<svg xmlns="http://www.w3.org/2000/svg" xmlns:xlink="http://www.w3.org/1999/xlink" width="3780" zoomAndPan="magnify" viewBox="0 0 2835 1417.499962" height="1890" preserveAspectRatio="xMidYMid meet" version="1.0"><defs><g/><clipPath id="99f9dbf3ee"><path d="M 81 266 L 2834.5 266 L 2834.5 1151 L 81 1151 Z M 81 266 " clip-rule="nonzero"/></clipPath><clipPath id="b956865a20"><path d="M 1.050781 0.535156 L 884.976562 0.535156 L 884.976562 884.464844 L 1.050781 884.464844 Z M 1.050781 0.535156 " clip-rule="nonzero"/></clipPath><clipPath id="3cf05f82d9"><path d="M 443.015625 0.535156 C 198.925781 0.535156 1.050781 198.410156 1.050781 442.5 C 1.050781 686.589844 198.925781 884.464844 443.015625 884.464844 C 687.105469 884.464844 884.976562 686.589844 884.976562 442.5 C 884.976562 198.410156 687.105469 0.535156 443.015625 0.535156 Z M 443.015625 0.535156 " clip-rule="nonzero"/></clipPath><clipPath id="f40ba60ed2"><path d="M 0.0507812 0.535156 L 883.976562 0.535156 L 883.976562 884.464844 L 0.0507812 884.464844 Z M 0.0507812 0.535156 " clip-rule="nonzero"/></clipPath><clipPath id="37d01c5b62"><path d="M 442.015625 0.535156 C 197.925781 0.535156 0.0507812 198.410156 0.0507812 442.5 C 0.0507812 686.589844 197.925781 884.464844 442.015625 884.464844 C 686.105469 884.464844 883.976562 686.589844 883.976562 442.5 C 883.976562 198.410156 686.105469 0.535156 442.015625 0.535156 Z M 442.015625 0.535156 " clip-rule="nonzero"/></clipPath><linearGradient x1="0" gradientTransform="matrix(3.452843, 0, 0, 3.452843, 0.0501502, 0.53621)" y1="128" x2="256" gradientUnits="userSpaceOnUse" y2="128" id="e11b4de3ce"><stop stop-opacity="1" stop-color="rgb(100%, 48.629761%, 56.469727%)" offset="0"/><stop stop-opacity="1" stop-color="rgb(100%, 48.783875%, 56.500244%)" offset="0.0078125"/><stop stop-opacity="1" stop-color="rgb(100%, 49.092102%, 56.561279%)" offset="0.015625"/><stop stop-opacity="1" stop-color="rgb(100%, 49.401855%, 56.622314%)" offset="0.0234375"/><stop stop-opacity="1" stop-color="rgb(100%, 49.711609%, 56.68335%)" offset="0.03125"/><stop stop-opacity="1" stop-color="rgb(100%, 50.021362%, 56.744385%)" offset="0.0390625"/><stop stop-opacity="1" stop-color="rgb(100%, 50.331116%, 56.80542%)" offset="0.046875"/><stop stop-opacity="1" stop-color="rgb(100%, 50.639343%, 56.867981%)" offset="0.0546875"/><stop stop-opacity="1" stop-color="rgb(100%, 50.949097%, 56.929016%)" offset="0.0625"/><stop stop-opacity="1" stop-color="rgb(100%, 51.25885%, 56.990051%)" offset="0.0703125"/><stop stop-opacity="1" stop-color="rgb(100%, 51.568604%, 57.051086%)" offset="0.078125"/><stop stop-opacity="1" stop-color="rgb(100%, 51.878357%, 57.112122%)" offset="0.0859375"/><stop stop-opacity="1" stop-color="rgb(100%, 52.186584%, 57.173157%)" offset="0.09375"/><stop stop-opacity="1" stop-color="rgb(100%, 52.496338%, 57.234192%)" offset="0.101562"/><stop stop-opacity="1" stop-color="rgb(100%, 52.806091%, 57.296753%)" offset="0.109375"/><stop stop-opacity="1" stop-color="rgb(100%, 53.115845%, 57.357788%)" offset="0.117188"/><stop stop-opacity="1" stop-color="rgb(100%, 53.425598%, 57.418823%)" offset="0.125"/><stop stop-opacity="1" stop-color="rgb(100%, 53.735352%, 57.479858%)" offset="0.132812"/><stop stop-opacity="1" stop-color="rgb(100%, 54.043579%, 57.540894%)" offset="0.140625"/><stop stop-opacity="1" stop-color="rgb(100%, 54.353333%, 57.601929%)" offset="0.148438"/><stop stop-opacity="1" stop-color="rgb(100%, 54.663086%, 57.662964%)" offset="0.15625"/><stop stop-opacity="1" stop-color="rgb(100%, 54.972839%, 57.723999%)" offset="0.164062"/><stop stop-opacity="1" stop-color="rgb(100%, 55.282593%, 57.78656%)" offset="0.171875"/><stop stop-opacity="1" stop-color="rgb(100%, 55.59082%, 57.847595%)" offset="0.179688"/><stop stop-opacity="1" stop-color="rgb(100%, 55.900574%, 57.90863%)" offset="0.1875"/><stop stop-opacity="1" stop-color="rgb(100%, 56.210327%, 57.969666%)" offset="0.195312"/><stop stop-opacity="1" stop-color="rgb(100%, 56.520081%, 58.030701%)" offset="0.203125"/><stop stop-opacity="1" stop-color="rgb(100%, 56.829834%, 58.091736%)" offset="0.210938"/><stop stop-opacity="1" stop-color="rgb(100%, 57.138062%, 58.152771%)" offset="0.21875"/><stop stop-opacity="1" stop-color="rgb(100%, 57.447815%, 58.215332%)" offset="0.226562"/><stop stop-opacity="1" stop-color="rgb(100%, 57.757568%, 58.276367%)" offset="0.234375"/><stop stop-opacity="1" stop-color="rgb(100%, 58.067322%, 58.337402%)" offset="0.242188"/><stop stop-opacity="1" stop-color="rgb(100%, 58.377075%, 58.398438%)" offset="0.25"/><stop stop-opacity="1" stop-color="rgb(100%, 58.685303%, 58.459473%)" offset="0.257812"/><stop stop-opacity="1" stop-color="rgb(100%, 58.995056%, 58.520508%)" offset="0.265625"/><stop stop-opacity="1" stop-color="rgb(100%, 59.30481%, 58.581543%)" offset="0.273438"/><stop stop-opacity="1" stop-color="rgb(100%, 59.614563%, 58.644104%)" offset="0.28125"/><stop stop-opacity="1" stop-color="rgb(100%, 59.924316%, 58.705139%)" offset="0.289062"/><stop stop-opacity="1" stop-color="rgb(100%, 60.232544%, 58.766174%)" offset="0.296875"/><stop stop-opacity="1" stop-color="rgb(100%, 60.542297%, 58.827209%)" offset="0.304688"/><stop stop-opacity="1" stop-color="rgb(100%, 60.852051%, 58.888245%)" offset="0.3125"/><stop stop-opacity="1" stop-color="rgb(100%, 61.161804%, 58.94928%)" offset="0.320312"/><stop stop-opacity="1" stop-color="rgb(100%, 61.471558%, 59.010315%)" offset="0.328125"/><stop stop-opacity="1" stop-color="rgb(100%, 61.779785%, 59.072876%)" offset="0.335938"/><stop stop-opacity="1" stop-color="rgb(100%, 62.089539%, 59.133911%)" offset="0.34375"/><stop stop-opacity="1" stop-color="rgb(100%, 62.399292%, 59.194946%)" offset="0.351562"/><stop stop-opacity="1" stop-color="rgb(100%, 62.709045%, 59.255981%)" offset="0.359375"/><stop stop-opacity="1" stop-color="rgb(100%, 63.018799%, 59.317017%)" offset="0.367188"/><stop stop-opacity="1" stop-color="rgb(100%, 63.327026%, 59.378052%)" offset="0.375"/><stop stop-opacity="1" stop-color="rgb(100%, 63.63678%, 59.439087%)" offset="0.382812"/><stop stop-opacity="1" stop-color="rgb(100%, 63.946533%, 59.501648%)" offset="0.390625"/><stop stop-opacity="1" stop-color="rgb(100%, 64.256287%, 59.562683%)" offset="0.398438"/><stop stop-opacity="1" stop-color="rgb(100%, 64.56604%, 59.623718%)" offset="0.40625"/><stop stop-opacity="1" stop-color="rgb(100%, 64.874268%, 59.684753%)" offset="0.414062"/><stop stop-opacity="1" stop-color="rgb(100%, 65.184021%, 59.745789%)" offset="0.421875"/><stop stop-opacity="1" stop-color="rgb(100%, 65.493774%, 59.806824%)" offset="0.429688"/><stop stop-opacity="1" stop-color="rgb(100%, 65.803528%, 59.867859%)" offset="0.4375"/><stop stop-opacity="1" stop-color="rgb(100%, 66.113281%, 59.93042%)" offset="0.445312"/><stop stop-opacity="1" stop-color="rgb(100%, 66.421509%, 59.991455%)" offset="0.453125"/><stop stop-opacity="1" stop-color="rgb(100%, 66.731262%, 60.05249%)" offset="0.460938"/><stop stop-opacity="1" stop-color="rgb(100%, 67.041016%, 60.113525%)" offset="0.46875"/><stop stop-opacity="1" stop-color="rgb(100%, 67.350769%, 60.174561%)" offset="0.476562"/><stop stop-opacity="1" stop-color="rgb(100%, 67.660522%, 60.235596%)" offset="0.484375"/><stop stop-opacity="1" stop-color="rgb(100%, 67.96875%, 60.296631%)" offset="0.492188"/><stop stop-opacity="1" stop-color="rgb(100%, 68.278503%, 60.359192%)" offset="0.5"/><stop stop-opacity="1" stop-color="rgb(100%, 68.588257%, 60.420227%)" offset="0.507812"/><stop stop-opacity="1" stop-color="rgb(100%, 68.89801%, 60.481262%)" offset="0.515625"/><stop stop-opacity="1" stop-color="rgb(100%, 69.207764%, 60.542297%)" offset="0.523438"/><stop stop-opacity="1" stop-color="rgb(100%, 69.515991%, 60.603333%)" offset="0.53125"/><stop stop-opacity="1" stop-color="rgb(100%, 69.825745%, 60.664368%)" offset="0.539062"/><stop stop-opacity="1" stop-color="rgb(100%, 70.135498%, 60.725403%)" offset="0.546875"/><stop stop-opacity="1" stop-color="rgb(100%, 70.445251%, 60.787964%)" offset="0.554688"/><stop stop-opacity="1" stop-color="rgb(100%, 70.755005%, 60.848999%)" offset="0.5625"/><stop stop-opacity="1" stop-color="rgb(100%, 71.063232%, 60.910034%)" offset="0.570312"/><stop stop-opacity="1" stop-color="rgb(100%, 71.372986%, 60.971069%)" offset="0.578125"/><stop stop-opacity="1" stop-color="rgb(100%, 71.682739%, 61.032104%)" offset="0.585938"/><stop stop-opacity="1" stop-color="rgb(100%, 71.992493%, 61.09314%)" offset="0.59375"/><stop stop-opacity="1" stop-color="rgb(100%, 72.302246%, 61.154175%)" offset="0.601562"/><stop stop-opacity="1" stop-color="rgb(100%, 72.612%, 61.216736%)" offset="0.609375"/><stop stop-opacity="1" stop-color="rgb(100%, 72.920227%, 61.277771%)" offset="0.617188"/><stop stop-opacity="1" stop-color="rgb(100%, 73.22998%, 61.338806%)" offset="0.625"/><stop stop-opacity="1" stop-color="rgb(100%, 73.539734%, 61.399841%)" offset="0.632812"/><stop stop-opacity="1" stop-color="rgb(100%, 73.849487%, 61.460876%)" offset="0.640625"/><stop stop-opacity="1" stop-color="rgb(100%, 74.159241%, 61.521912%)" offset="0.648438"/><stop stop-opacity="1" stop-color="rgb(100%, 74.467468%, 61.582947%)" offset="0.65625"/><stop stop-opacity="1" stop-color="rgb(100%, 74.777222%, 61.645508%)" offset="0.664062"/><stop stop-opacity="1" stop-color="rgb(100%, 75.086975%, 61.706543%)" offset="0.671875"/><stop stop-opacity="1" stop-color="rgb(100%, 75.396729%, 61.767578%)" offset="0.679688"/><stop stop-opacity="1" stop-color="rgb(100%, 75.706482%, 61.828613%)" offset="0.6875"/><stop stop-opacity="1" stop-color="rgb(100%, 76.014709%, 61.889648%)" offset="0.695312"/><stop stop-opacity="1" stop-color="rgb(100%, 76.324463%, 61.950684%)" offset="0.703125"/><stop stop-opacity="1" stop-color="rgb(100%, 76.634216%, 62.011719%)" offset="0.710938"/><stop stop-opacity="1" stop-color="rgb(100%, 76.94397%, 62.072754%)" offset="0.71875"/><stop stop-opacity="1" stop-color="rgb(100%, 77.253723%, 62.135315%)" offset="0.726562"/><stop stop-opacity="1" stop-color="rgb(100%, 77.561951%, 62.19635%)" offset="0.734375"/><stop stop-opacity="1" stop-color="rgb(100%, 77.871704%, 62.257385%)" offset="0.742188"/><stop stop-opacity="1" stop-color="rgb(100%, 78.181458%, 62.31842%)" offset="0.75"/><stop stop-opacity="1" stop-color="rgb(100%, 78.491211%, 62.379456%)" offset="0.757812"/><stop stop-opacity="1" stop-color="rgb(100%, 78.800964%, 62.440491%)" offset="0.765625"/><stop stop-opacity="1" stop-color="rgb(100%, 79.109192%, 62.501526%)" offset="0.773438"/><stop stop-opacity="1" stop-color="rgb(100%, 79.418945%, 62.564087%)" offset="0.78125"/><stop stop-opacity="1" stop-color="rgb(100%, 79.728699%, 62.625122%)" offset="0.789062"/><stop stop-opacity="1" stop-color="rgb(100%, 80.038452%, 62.686157%)" offset="0.796875"/><stop stop-opacity="1" stop-color="rgb(100%, 80.348206%, 62.747192%)" offset="0.804688"/><stop stop-opacity="1" stop-color="rgb(100%, 80.656433%, 62.808228%)" offset="0.8125"/><stop stop-opacity="1" stop-color="rgb(100%, 80.966187%, 62.869263%)" offset="0.820312"/><stop stop-opacity="1" stop-color="rgb(100%, 81.27594%, 62.930298%)" offset="0.828125"/><stop stop-opacity="1" stop-color="rgb(100%, 81.585693%, 62.992859%)" offset="0.835938"/><stop stop-opacity="1" stop-color="rgb(100%, 81.895447%, 63.053894%)" offset="0.84375"/><stop stop-opacity="1" stop-color="rgb(100%, 82.203674%, 63.114929%)" offset="0.851562"/><stop stop-opacity="1" stop-color="rgb(100%, 82.513428%, 63.175964%)" offset="0.859375"/><stop stop-opacity="1" stop-color="rgb(100%, 82.823181%, 63.237%)" offset="0.867188"/><stop stop-opacity="1" stop-color="rgb(100%, 83.132935%, 63.298035%)" offset="0.875"/><stop stop-opacity="1" stop-color="rgb(100%, 83.442688%, 63.35907%)" offset="0.882812"/><stop stop-opacity="1" stop-color="rgb(100%, 83.750916%, 63.421631%)" offset="0.890625"/><stop stop-opacity="1" stop-color="rgb(100%, 84.060669%, 63.482666%)" offset="0.898438"/><stop stop-opacity="1" stop-color="rgb(100%, 84.370422%, 63.543701%)" offset="0.90625"/><stop stop-opacity="1" stop-color="rgb(100%, 84.680176%, 63.604736%)" offset="0.914062"/><stop stop-opacity="1" stop-color="rgb(100%, 84.989929%, 63.665771%)" offset="0.921875"/><stop stop-opacity="1" stop-color="rgb(100%, 85.298157%, 63.726807%)" offset="0.929688"/><stop stop-opacity="1" stop-color="rgb(100%, 85.60791%, 63.787842%)" offset="0.9375"/><stop stop-opacity="1" stop-color="rgb(100%, 85.917664%, 63.850403%)" offset="0.945312"/><stop stop-opacity="1" stop-color="rgb(100%, 86.227417%, 63.911438%)" offset="0.953125"/><stop stop-opacity="1" stop-color="rgb(100%, 86.53717%, 63.972473%)" offset="0.960938"/><stop stop-opacity="1" stop-color="rgb(100%, 86.845398%, 64.033508%)" offset="0.96875"/><stop stop-opacity="1" stop-color="rgb(100%, 87.155151%, 64.094543%)" offset="0.976562"/><stop stop-opacity="1" stop-color="rgb(100%, 87.464905%, 64.155579%)" offset="0.984375"/><stop stop-opacity="1" stop-color="rgb(100%, 87.774658%, 64.216614%)" offset="0.992188"/><stop stop-opacity="1" stop-color="rgb(100%, 88.084412%, 64.279175%)" offset="1"/></linearGradient><clipPath id="2b74a95aa8"><rect x="0" width="884" y="0" height="885"/></clipPath><clipPath id="ceddf7dc8a"><path d="M 200 201 L 688 201 L 688 740.675781 L 200 740.675781 Z M 200 201 " clip-rule="nonzero"/></clipPath><clipPath id="120aedd595"><path d="M 96.789062 83.074219 L 791.128906 83.074219 L 791.128906 431 L 96.789062 431 Z M 96.789062 83.074219 " clip-rule="nonzero"/></clipPath><clipPath id="aa9e47d776"><path d="M 244 357.597656 L 646 357.597656 L 646 745 L 244 745 Z M 244 357.597656 " clip-rule="nonzero"/></clipPath><clipPath id="600c172ead"><path d="M 907.675781 557 L 1829 557 L 1829 703.132812 L 907.675781 703.132812 Z M 907.675781 557 " clip-rule="nonzero"/></clipPath><clipPath id="a23e7d297f"><rect x="0" width="2754" y="0" height="885"/></clipPath></defs><g clip-path="url(#99f9dbf3ee)"><g transform="matrix(1, 0, 0, 1, 81, 266)"><g clip-path="url(#a23e7d297f)"><g clip-path="url(#b956865a20)"><g clip-path="url(#3cf05f82d9)"><g transform="matrix(1, 0, 0, 1, 1, -0.000000000000056843)"><g clip-path="url(#2b74a95aa8)"><g clip-path="url(#f40ba60ed2)"><g clip-path="url(#37d01c5b62)"><path fill="url(#e11b4de3ce)" d="M 0.0507812 0.535156 L 0.0507812 884.464844 L 883.976562 884.464844 L 883.976562 0.535156 Z M 0.0507812 0.535156 " fill-rule="nonzero"/></g></g></g></g></g></g><g clip-path="url(#ceddf7dc8a)"><path fill="#fff5e6" d="M 687.902344 417.152344 Z M 687.902344 417.152344 L 444.140625 201.273438 L 200.230469 417.242188 L 200.230469 725.847656 C 200.230469 733.816406 206.671875 740.210938 214.640625 740.210938 L 367.074219 740.210938 L 367.074219 604.902344 C 367.074219 596.929688 373.464844 590.492188 381.4375 590.492188 L 506.6875 590.492188 C 514.65625 590.492188 521.050781 596.929688 521.050781 604.902344 L 521.050781 740.210938 L 673.527344 740.210938 C 681.496094 740.210938 687.890625 733.816406 687.890625 725.847656 L 687.890625 417.136719 Z M 200.230469 417.246094 Z M 200.230469 417.246094 " fill-opacity="1" fill-rule="nonzero"/></g><g clip-path="url(#120aedd595)"><path fill="#fff5e6" d="M 442.71875 83.128906 L 96.789062 389.425781 L 133.230469 430.535156 L 444.136719 155.226562 L 754.972656 430.535156 L 791.339844 389.425781 L 445.488281 83.128906 L 444.144531 84.683594 L 442.726562 83.128906 Z M 442.71875 83.128906 " fill-opacity="1" fill-rule="nonzero"/></g><path fill="#fff5e6" d="M 200.230469 127.21875 L 287.925781 127.21875 L 287.160156 179.160156 L 200.230469 257.691406 Z M 200.230469 127.21875 " fill-opacity="1" fill-rule="nonzero"/><g clip-path="url(#aa9e47d776)"><path fill="#8b6345" d="M 514.347656 357.980469 C 513.503906 357.992188 512.636719 358.03125 511.773438 358.101562 C 477.460938 364.023438 458.59375 400.308594 455.859375 432.304688 C 451.863281 461.339844 464.65625 498.660156 496.539062 505.164062 C 501.164062 506.046875 505.96875 505.644531 510.488281 504.417969 C 548.875 491.542969 566.054688 446.078125 560.507812 408.417969 C 558.894531 384.09375 540.558594 357.644531 514.347656 357.980469 Z M 368.867188 359.535156 C 347.527344 360.0625 330.90625 381.699219 327.527344 402.042969 C 320.398438 442.34375 338.730469 492.421875 380.71875 505.167969 C 384.652344 506.023438 388.71875 506.113281 392.691406 505.5 C 421.070312 500.769531 433.09375 468.949219 431.90625 443.265625 C 431.050781 409.382812 413.453125 370.203125 378.265625 360.675781 C 375.046875 359.824219 371.914062 359.464844 368.867188 359.539062 Z M 607.320312 474.003906 C 570.410156 476.210938 545.105469 513.042969 541.496094 547.433594 C 536.613281 572.234375 549.835938 605.410156 578.136719 607.390625 C 617.597656 606.902344 644.519531 564.734375 645.636719 528.453125 C 648.132812 504.457031 633.996094 475.328125 607.320312 474.003906 Z M 284.246094 482.175781 C 268.542969 482.042969 253.097656 491.449219 247.964844 507.410156 C 234.273438 550.113281 261.769531 604.195312 306.996094 613.171875 C 325.871094 616.402344 342.457031 601.90625 347.136719 584.464844 C 357.054688 547.160156 336.683594 503.84375 302.207031 486.914062 C 296.589844 483.761719 290.390625 482.234375 284.246094 482.183594 Z M 449.71875 558.746094 C 418.933594 558.8125 387.664062 574.4375 367.730469 597.691406 C 346.199219 624.796875 328.5625 656.339844 321.664062 690.546875 C 313.28125 715.171875 332.277344 743.507812 358.601562 743.679688 C 390.265625 744.558594 417.484375 722.8125 448.972656 721.199219 C 475.6875 717.125 499.609375 731.023438 523.625 740.117188 C 544.078125 748.863281 572.335938 745.511719 582.777344 723.503906 C 590.988281 701.070312 578.902344 677.152344 568.886719 657.230469 C 548.464844 624.894531 526.582031 590.910156 493.09375 570.722656 C 479.671875 562.402344 464.753906 558.714844 449.71875 558.746094 Z M 449.71875 558.746094 " fill-opacity="1" fill-rule="nonzero"/></g><g fill="#8b6345" fill-opacity="1"><g transform="translate(972.807245, 442.5671)"><g><path d="M 156.609375 -116.390625 C 156.609375 -105.429688 154.109375 -95.640625 149.109375 -87.015625 C 144.117188 -78.398438 136.972656 -71.734375 127.671875 -67.015625 C 118.367188 -62.304688 107.3125 -59.953125 94.5 -59.953125 L 52.203125 -59.953125 L 52.203125 0 L 16.5625 0 L 16.5625 -170.296875 L 93.046875 -170.296875 C 113.429688 -170.296875 129.117188 -165.601562 140.109375 -156.21875 C 151.109375 -146.832031 156.609375 -133.554688 156.609375 -116.390625 Z M 120.71875 -115.78125 C 120.71875 -133.675781 110.164062 -142.625 89.0625 -142.625 L 52.203125 -142.625 L 52.203125 -87.390625 L 90.03125 -87.390625 C 99.851562 -87.390625 107.421875 -89.828125 112.734375 -94.703125 C 118.054688 -99.578125 120.71875 -106.601562 120.71875 -115.78125 Z M 120.71875 -115.78125 "/></g></g><g transform="translate(1137.874586, 442.5671)"><g><path d="M 47.484375 2.421875 C 34.835938 2.421875 24.96875 -1.019531 17.875 -7.90625 C 10.789062 -14.800781 7.25 -24.492188 7.25 -36.984375 C 7.25 -50.523438 11.660156 -60.835938 20.484375 -67.921875 C 29.304688 -75.015625 42.09375 -78.640625 58.84375 -78.796875 L 87 -79.28125 L 87 -85.9375 C 87 -94.476562 85.507812 -100.820312 82.53125 -104.96875 C 79.550781 -109.125 74.675781 -111.203125 67.90625 -111.203125 C 61.625 -111.203125 57.015625 -109.769531 54.078125 -106.90625 C 51.140625 -104.039062 49.304688 -99.304688 48.578125 -92.703125 L 13.171875 -94.390625 C 15.347656 -107.117188 21.164062 -116.765625 30.625 -123.328125 C 40.09375 -129.898438 53.003906 -133.1875 69.359375 -133.1875 C 85.878906 -133.1875 98.609375 -129.117188 107.546875 -120.984375 C 116.492188 -112.847656 120.96875 -101.285156 120.96875 -86.296875 L 120.96875 -38.671875 C 120.96875 -31.335938 121.789062 -26.28125 123.4375 -23.5 C 125.09375 -20.726562 127.851562 -19.34375 131.71875 -19.34375 C 134.289062 -19.34375 136.785156 -19.582031 139.203125 -20.0625 L 139.203125 -1.6875 C 137.191406 -1.207031 135.378906 -0.765625 133.765625 -0.359375 C 132.160156 0.0351562 130.550781 0.351562 128.9375 0.59375 C 127.320312 0.84375 125.609375 1.046875 123.796875 1.203125 C 121.984375 1.367188 119.867188 1.453125 117.453125 1.453125 C 108.921875 1.453125 102.617188 -0.640625 98.546875 -4.828125 C 94.472656 -9.023438 92.035156 -15.191406 91.234375 -23.328125 L 90.515625 -23.328125 C 81.003906 -6.160156 66.660156 2.421875 47.484375 2.421875 Z M 87 -60.546875 L 69.609375 -60.3125 C 61.710938 -59.988281 56.113281 -59.117188 52.8125 -57.703125 C 49.507812 -56.296875 46.988281 -54.140625 45.25 -51.234375 C 43.519531 -48.335938 42.65625 -44.472656 42.65625 -39.640625 C 42.65625 -33.441406 44.082031 -28.828125 46.9375 -25.796875 C 49.800781 -22.773438 53.609375 -21.265625 58.359375 -21.265625 C 63.679688 -21.265625 68.535156 -22.710938 72.921875 -25.609375 C 77.316406 -28.515625 80.757812 -32.523438 83.25 -37.640625 C 85.75 -42.765625 87 -48.1875 87 -53.90625 Z M 87 -60.546875 "/></g></g><g transform="translate(1275.511262, 442.5671)"><g><path d="M 158.671875 0 L 122.78125 0 L 101.984375 -79.765625 C 101.023438 -83.390625 99.132812 -92.335938 96.3125 -106.609375 L 90.03125 -79.53125 L 69 0 L 33.109375 0 L -0.71875 -130.78125 L 31.171875 -130.78125 L 52.6875 -30.828125 L 54.375 -39.765625 L 57.40625 -53.90625 L 77.9375 -130.78125 L 114.3125 -130.78125 L 134.375 -53.90625 C 135.5 -49.71875 137.148438 -42.023438 139.328125 -30.828125 L 142.71875 -46.78125 L 161.5625 -130.78125 L 192.984375 -130.78125 Z M 158.671875 0 "/></g></g></g><g fill="#ff6b6b" fill-opacity="1"><g transform="translate(1468.015516, 442.5671)"><g><path d="M 50.75 2.171875 C 40.757812 2.171875 33.066406 -0.546875 27.671875 -5.984375 C 22.273438 -11.421875 19.578125 -19.660156 19.578125 -30.703125 L 19.578125 -107.8125 L 3.015625 -107.8125 L 3.015625 -130.78125 L 21.265625 -130.78125 L 31.90625 -161.46875 L 53.171875 -161.46875 L 53.171875 -130.78125 L 77.9375 -130.78125 L 77.9375 -107.8125 L 53.171875 -107.8125 L 53.171875 -39.890625 C 53.171875 -33.523438 54.378906 -28.828125 56.796875 -25.796875 C 59.210938 -22.773438 62.957031 -21.265625 68.03125 -21.265625 C 70.6875 -21.265625 74.472656 -21.832031 79.390625 -22.96875 L 79.390625 -1.9375 C 71.015625 0.800781 61.46875 2.171875 50.75 2.171875 Z M 50.75 2.171875 "/></g></g></g><g fill="#ff6b6b" fill-opacity="1"><g transform="translate(1550.428338, 442.5671)"><g><path d="M 50.75 -104.671875 C 55.34375 -114.660156 61.101562 -121.910156 68.03125 -126.421875 C 74.957031 -130.929688 83.21875 -133.1875 92.8125 -133.1875 C 106.664062 -133.1875 117.296875 -128.914062 124.703125 -120.375 C 132.117188 -111.832031 135.828125 -99.34375 135.828125 -82.90625 L 135.828125 0 L 101.984375 0 L 101.984375 -73.25 C 101.984375 -96.207031 94.210938 -107.6875 78.671875 -107.6875 C 70.453125 -107.6875 63.820312 -104.160156 58.78125 -97.109375 C 53.75 -90.066406 51.234375 -81.023438 51.234375 -69.984375 L 51.234375 0 L 17.28125 0 L 17.28125 -179.359375 L 51.234375 -179.359375 L 51.234375 -130.40625 C 51.234375 -121.625 50.910156 -113.046875 50.265625 -104.671875 Z M 50.75 -104.671875 "/></g></g></g><g fill="#ff6b6b" fill-opacity="1"><g transform="translate(1701.599099, 442.5671)"><g><path d="M 70.8125 2.421875 C 51.15625 2.421875 36.050781 -3.398438 25.5 -15.046875 C 14.945312 -26.691406 9.671875 -43.675781 9.671875 -66 C 9.671875 -87.59375 15.023438 -104.1875 25.734375 -115.78125 C 36.453125 -127.382812 51.640625 -133.1875 71.296875 -133.1875 C 90.066406 -133.1875 104.40625 -126.960938 114.3125 -114.515625 C 124.226562 -102.066406 129.1875 -83.835938 129.1875 -59.828125 L 129.1875 -58.859375 L 45.3125 -58.859375 C 45.3125 -46.128906 47.664062 -36.519531 52.375 -30.03125 C 57.09375 -23.550781 63.800781 -20.3125 72.5 -20.3125 C 84.507812 -20.3125 92.082031 -25.503906 95.21875 -35.890625 L 127.25 -33.109375 C 117.976562 -9.421875 99.164062 2.421875 70.8125 2.421875 Z M 70.8125 -111.796875 C 62.832031 -111.796875 56.6875 -109.015625 52.375 -103.453125 C 48.070312 -97.898438 45.800781 -90.128906 45.5625 -80.140625 L 96.3125 -80.140625 C 95.664062 -90.691406 93.125 -98.601562 88.6875 -103.875 C 84.257812 -109.15625 78.300781 -111.796875 70.8125 -111.796875 Z M 70.8125 -111.796875 "/></g></g></g><g fill="#ff6b6b" fill-opacity="1"><g transform="translate(1839.235762, 442.5671)"><g><path d="M 101.984375 0 L 101.984375 -73.359375 C 101.984375 -96.328125 94.210938 -107.8125 78.671875 -107.8125 C 70.453125 -107.8125 63.820312 -104.285156 58.78125 -97.234375 C 53.75 -90.179688 51.234375 -81.140625 51.234375 -70.109375 L 51.234375 0 L 17.28125 0 L 17.28125 -101.53125 C 17.28125 -108.539062 17.175781 -114.28125 16.96875 -118.75 C 16.769531 -123.21875 16.550781 -127.226562 16.3125 -130.78125 L 48.703125 -130.78125 C 48.941406 -129.25 49.257812 -125.15625 49.65625 -118.5 C 50.0625 -111.851562 50.265625 -107.285156 50.265625 -104.796875 L 50.75 -104.796875 C 55.34375 -114.785156 61.101562 -122.035156 68.03125 -126.546875 C 74.957031 -131.054688 83.21875 -133.3125 92.8125 -133.3125 C 106.664062 -133.3125 117.296875 -129.039062 124.703125 -120.5 C 132.117188 -111.957031 135.828125 -99.46875 135.828125 -83.03125 L 135.828125 0 Z M 101.984375 0 "/></g></g></g><g fill="#ff6b6b" fill-opacity="1"><g transform="translate(1990.4065, 442.5671)"><g><path d="M 50.75 2.171875 C 40.757812 2.171875 33.066406 -0.546875 27.671875 -5.984375 C 22.273438 -11.421875 19.578125 -19.660156 19.578125 -30.703125 L 19.578125 -107.8125 L 3.015625 -107.8125 L 3.015625 -130.78125 L 21.265625 -130.78125 L 31.90625 -161.46875 L 53.171875 -161.46875 L 53.171875 -130.78125 L 77.9375 -130.78125 L 77.9375 -107.8125 L 53.171875 -107.8125 L 53.171875 -39.890625 C 53.171875 -33.523438 54.378906 -28.828125 56.796875 -25.796875 C 59.210938 -22.773438 62.957031 -21.265625 68.03125 -21.265625 C 70.6875 -21.265625 74.472656 -21.832031 79.390625 -22.96875 L 79.390625 -1.9375 C 71.015625 0.800781 61.46875 2.171875 50.75 2.171875 Z M 50.75 2.171875 "/></g></g></g><g fill="#ff6b6b" fill-opacity="1"><g transform="translate(2072.819345, 442.5671)"><g><path d="M 17.28125 -154.34375 L 17.28125 -179.359375 L 51.234375 -179.359375 L 51.234375 -154.34375 Z M 17.28125 0 L 17.28125 -130.78125 L 51.234375 -130.78125 L 51.234375 0 Z M 17.28125 0 "/></g></g></g><g fill="#ff6b6b" fill-opacity="1"><g transform="translate(2141.577238, 442.5671)"><g><path d="M 71.78125 2.421875 C 51.957031 2.421875 36.648438 -3.476562 25.859375 -15.28125 C 15.066406 -27.09375 9.671875 -43.550781 9.671875 -64.65625 C 9.671875 -86.25 15.109375 -103.066406 25.984375 -115.109375 C 36.859375 -127.160156 52.285156 -133.1875 72.265625 -133.1875 C 87.648438 -133.1875 100.378906 -129.316406 110.453125 -121.578125 C 120.523438 -113.847656 126.847656 -103.175781 129.421875 -89.5625 L 95.21875 -87.875 C 94.25 -94.5625 91.832031 -99.894531 87.96875 -103.875 C 84.101562 -107.863281 78.625 -109.859375 71.53125 -109.859375 C 54.050781 -109.859375 45.3125 -95.238281 45.3125 -66 C 45.3125 -35.851562 54.210938 -20.78125 72.015625 -20.78125 C 78.460938 -20.78125 83.859375 -22.816406 88.203125 -26.890625 C 92.554688 -30.960938 95.257812 -37.023438 96.3125 -45.078125 L 130.390625 -43.515625 C 129.179688 -34.566406 125.976562 -26.585938 120.78125 -19.578125 C 115.582031 -12.566406 108.753906 -7.144531 100.296875 -3.3125 C 91.835938 0.507812 82.332031 2.421875 71.78125 2.421875 Z M 71.78125 2.421875 "/></g></g></g><g fill="#ff6b6b" fill-opacity="1"><g transform="translate(2279.213901, 442.5671)"><g><path d="M 47.484375 2.421875 C 34.835938 2.421875 24.96875 -1.019531 17.875 -7.90625 C 10.789062 -14.800781 7.25 -24.492188 7.25 -36.984375 C 7.25 -50.523438 11.660156 -60.835938 20.484375 -67.921875 C 29.304688 -75.015625 42.09375 -78.640625 58.84375 -78.796875 L 87 -79.28125 L 87 -85.9375 C 87 -94.476562 85.507812 -100.820312 82.53125 -104.96875 C 79.550781 -109.125 74.675781 -111.203125 67.90625 -111.203125 C 61.625 -111.203125 57.015625 -109.769531 54.078125 -106.90625 C 51.140625 -104.039062 49.304688 -99.304688 48.578125 -92.703125 L 13.171875 -94.390625 C 15.347656 -107.117188 21.164062 -116.765625 30.625 -123.328125 C 40.09375 -129.898438 53.003906 -133.1875 69.359375 -133.1875 C 85.878906 -133.1875 98.609375 -129.117188 107.546875 -120.984375 C 116.492188 -112.847656 120.96875 -101.285156 120.96875 -86.296875 L 120.96875 -38.671875 C 120.96875 -31.335938 121.789062 -26.28125 123.4375 -23.5 C 125.09375 -20.726562 127.851562 -19.34375 131.71875 -19.34375 C 134.289062 -19.34375 136.785156 -19.582031 139.203125 -20.0625 L 139.203125 -1.6875 C 137.191406 -1.207031 135.378906 -0.765625 133.765625 -0.359375 C 132.160156 0.0351562 130.550781 0.351562 128.9375 0.59375 C 127.320312 0.84375 125.609375 1.046875 123.796875 1.203125 C 121.984375 1.367188 119.867188 1.453125 117.453125 1.453125 C 108.921875 1.453125 102.617188 -0.640625 98.546875 -4.828125 C 94.472656 -9.023438 92.035156 -15.191406 91.234375 -23.328125 L 90.515625 -23.328125 C 81.003906 -6.160156 66.660156 2.421875 47.484375 2.421875 Z M 87 -60.546875 L 69.609375 -60.3125 C 61.710938 -59.988281 56.113281 -59.117188 52.8125 -57.703125 C 49.507812 -56.296875 46.988281 -54.140625 45.25 -51.234375 C 43.519531 -48.335938 42.65625 -44.472656 42.65625 -39.640625 C 42.65625 -33.441406 44.082031 -28.828125 46.9375 -25.796875 C 49.800781 -22.773438 53.609375 -21.265625 58.359375 -21.265625 C 63.679688 -21.265625 68.535156 -22.710938 72.921875 -25.609375 C 77.316406 -28.515625 80.757812 -32.523438 83.25 -37.640625 C 85.75 -42.765625 87 -48.1875 87 -53.90625 Z M 87 -60.546875 "/></g></g></g><g fill="#ff6b6b" fill-opacity="1"><g transform="translate(2416.850609, 442.5671)"><g><path d="M 50.75 2.171875 C 40.757812 2.171875 33.066406 -0.546875 27.671875 -5.984375 C 22.273438 -11.421875 19.578125 -19.660156 19.578125 -30.703125 L 19.578125 -107.8125 L 3.015625 -107.8125 L 3.015625 -130.78125 L 21.265625 -130.78125 L 31.90625 -161.46875 L 53.171875 -161.46875 L 53.171875 -130.78125 L 77.9375 -130.78125 L 77.9375 -107.8125 L 53.171875 -107.8125 L 53.171875 -39.890625 C 53.171875 -33.523438 54.378906 -28.828125 56.796875 -25.796875 C 59.210938 -22.773438 62.957031 -21.265625 68.03125 -21.265625 C 70.6875 -21.265625 74.472656 -21.832031 79.390625 -22.96875 L 79.390625 -1.9375 C 71.015625 0.800781 61.46875 2.171875 50.75 2.171875 Z M 50.75 2.171875 "/></g></g></g><g fill="#ff6b6b" fill-opacity="1"><g transform="translate(2499.263454, 442.5671)"><g><path d="M 70.8125 2.421875 C 51.15625 2.421875 36.050781 -3.398438 25.5 -15.046875 C 14.945312 -26.691406 9.671875 -43.675781 9.671875 -66 C 9.671875 -87.59375 15.023438 -104.1875 25.734375 -115.78125 C 36.453125 -127.382812 51.640625 -133.1875 71.296875 -133.1875 C 90.066406 -133.1875 104.40625 -126.960938 114.3125 -114.515625 C 124.226562 -102.066406 129.1875 -83.835938 129.1875 -59.828125 L 129.1875 -58.859375 L 45.3125 -58.859375 C 45.3125 -46.128906 47.664062 -36.519531 52.375 -30.03125 C 57.09375 -23.550781 63.800781 -20.3125 72.5 -20.3125 C 84.507812 -20.3125 92.082031 -25.503906 95.21875 -35.890625 L 127.25 -33.109375 C 117.976562 -9.421875 99.164062 2.421875 70.8125 2.421875 Z M 70.8125 -111.796875 C 62.832031 -111.796875 56.6875 -109.015625 52.375 -103.453125 C 48.070312 -97.898438 45.800781 -90.128906 45.5625 -80.140625 L 96.3125 -80.140625 C 95.664062 -90.691406 93.125 -98.601562 88.6875 -103.875 C 84.257812 -109.15625 78.300781 -111.796875 70.8125 -111.796875 Z M 70.8125 -111.796875 "/></g></g></g><g fill="#a0826d" fill-opacity="1"><g transform="translate(972.807245, 605.417715)"><g><path d="M 62.59375 0 L 52.671875 0 L 49.5 -39.859375 C 49.082031 -48.023438 48.847656 -52.832031 48.796875 -54.28125 C 46.535156 -48.375 44.53125 -43.566406 42.78125 -39.859375 L 24.125 0 L 14.203125 0 L 7.875 -62.75 L 16.65625 -62.75 L 20.171875 -22.890625 C 20.523438 -18.285156 20.757812 -13.148438 20.875 -7.484375 C 23.21875 -13.066406 25.15625 -17.546875 26.6875 -20.921875 C 28.21875 -24.304688 34.800781 -38.25 46.4375 -62.75 L 54.578125 -62.75 L 57.921875 -23.6875 C 58.335938 -19.113281 58.585938 -13.710938 58.671875 -7.484375 L 59.390625 -9.046875 C 60.804688 -12.453125 61.957031 -15.179688 62.84375 -17.234375 C 63.738281 -19.285156 70.878906 -34.457031 84.265625 -62.75 L 93.21875 -62.75 Z M 62.59375 0 "/></g></g></g><g fill="#a0826d" fill-opacity="1"><g transform="translate(1058.855954, 605.417715)"><g><path d="M 17.046875 -39.953125 C 19.515625 -43.359375 21.984375 -45.722656 24.453125 -47.046875 C 26.929688 -48.367188 29.878906 -49.03125 33.296875 -49.03125 C 37.691406 -49.03125 40.992188 -47.945312 43.203125 -45.78125 C 45.410156 -43.613281 46.515625 -40.484375 46.515625 -36.390625 C 46.515625 -34.484375 46.207031 -32.046875 45.59375 -29.078125 L 39.9375 0 L 31.875 0 L 37.484375 -28.71875 C 38.015625 -31.332031 38.28125 -33.5625 38.28125 -35.40625 C 38.28125 -40.363281 35.625 -42.84375 30.3125 -42.84375 C 26.570312 -42.84375 23.273438 -41.414062 20.421875 -38.5625 C 17.578125 -35.71875 15.679688 -31.859375 14.734375 -26.984375 L 9.484375 0 L 1.515625 0 L 14.328125 -66.09375 L 22.34375 -66.09375 L 19.015625 -48.890625 C 18.472656 -45.921875 17.773438 -42.941406 16.921875 -39.953125 Z M 17.046875 -39.953125 "/></g></g></g><g fill="#a0826d" fill-opacity="1"><g transform="translate(1109.559257, 605.417715)"><g><path d="M 11.390625 -22.40625 C 11.210938 -21.363281 11.082031 -19.6875 11 -17.375 C 11 -13.414062 11.984375 -10.382812 13.953125 -8.28125 C 15.929688 -6.175781 18.90625 -5.125 22.875 -5.125 C 25.757812 -5.125 28.375 -5.832031 30.71875 -7.25 C 33.0625 -8.675781 34.882812 -10.625 36.1875 -13.09375 L 42.34375 -10.28125 C 40.175781 -6.394531 37.421875 -3.5625 34.078125 -1.78125 C 30.734375 0 26.691406 0.890625 21.953125 0.890625 C 15.984375 0.890625 11.34375 -0.765625 8.03125 -4.078125 C 4.726562 -7.390625 3.078125 -12.039062 3.078125 -18.03125 C 3.078125 -24 4.128906 -29.347656 6.234375 -34.078125 C 8.335938 -38.816406 11.300781 -42.5 15.125 -45.125 C 18.957031 -47.757812 23.265625 -49.078125 28.046875 -49.078125 C 34.128906 -49.078125 38.863281 -47.546875 42.25 -44.484375 C 45.632812 -41.429688 47.328125 -37.113281 47.328125 -31.53125 C 47.328125 -28.414062 46.96875 -25.375 46.25 -22.40625 Z M 39.171875 -28.546875 L 39.359375 -31.75 C 39.359375 -35.4375 38.398438 -38.257812 36.484375 -40.21875 C 34.566406 -42.175781 31.8125 -43.15625 28.21875 -43.15625 C 24.25 -43.15625 20.90625 -41.882812 18.1875 -39.34375 C 15.46875 -36.800781 13.5625 -33.203125 12.46875 -28.546875 Z M 39.171875 -28.546875 "/></g></g></g><g fill="#a0826d" fill-opacity="1"><g transform="translate(1160.26256, 605.417715)"><g><path d="M 31.96875 -41.765625 C 30.65625 -42.148438 29.316406 -42.34375 27.953125 -42.34375 C 24.835938 -42.34375 22.023438 -40.707031 19.515625 -37.4375 C 17.015625 -34.175781 15.316406 -30.066406 14.421875 -25.109375 L 9.53125 0 L 1.515625 0 L 8.71875 -36.96875 L 9.84375 -43.109375 L 10.640625 -48.1875 L 18.203125 -48.1875 L 16.65625 -38.34375 L 16.828125 -38.34375 C 18.785156 -42.289062 20.710938 -45.066406 22.609375 -46.671875 C 24.515625 -48.273438 26.710938 -49.078125 29.203125 -49.078125 C 30.566406 -49.078125 31.976562 -48.867188 33.4375 -48.453125 Z M 31.96875 -41.765625 "/></g></g></g><g fill="#a0826d" fill-opacity="1"><g transform="translate(1190.622216, 605.417715)"><g><path d="M 11.390625 -22.40625 C 11.210938 -21.363281 11.082031 -19.6875 11 -17.375 C 11 -13.414062 11.984375 -10.382812 13.953125 -8.28125 C 15.929688 -6.175781 18.90625 -5.125 22.875 -5.125 C 25.757812 -5.125 28.375 -5.832031 30.71875 -7.25 C 33.0625 -8.675781 34.882812 -10.625 36.1875 -13.09375 L 42.34375 -10.28125 C 40.175781 -6.394531 37.421875 -3.5625 34.078125 -1.78125 C 30.734375 0 26.691406 0.890625 21.953125 0.890625 C 15.984375 0.890625 11.34375 -0.765625 8.03125 -4.078125 C 4.726562 -7.390625 3.078125 -12.039062 3.078125 -18.03125 C 3.078125 -24 4.128906 -29.347656 6.234375 -34.078125 C 8.335938 -38.816406 11.300781 -42.5 15.125 -45.125 C 18.957031 -47.757812 23.265625 -49.078125 28.046875 -49.078125 C 34.128906 -49.078125 38.863281 -47.546875 42.25 -44.484375 C 45.632812 -41.429688 47.328125 -37.113281 47.328125 -31.53125 C 47.328125 -28.414062 46.96875 -25.375 46.25 -22.40625 Z M 39.171875 -28.546875 L 39.359375 -31.75 C 39.359375 -35.4375 38.398438 -38.257812 36.484375 -40.21875 C 34.566406 -42.175781 31.8125 -43.15625 28.21875 -43.15625 C 24.25 -43.15625 20.90625 -41.882812 18.1875 -39.34375 C 15.46875 -36.800781 13.5625 -33.203125 12.46875 -28.546875 Z M 39.171875 -28.546875 "/></g></g></g><g fill="#a0826d" fill-opacity="1"><g transform="translate(1241.325519, 605.417715)"><g/></g></g><g fill="#a0826d" fill-opacity="1"><g transform="translate(1266.654904, 605.417715)"><g><path d="M 0.71875 18.921875 C -1.425781 18.921875 -3.382812 18.710938 -5.15625 18.296875 L -3.78125 12.328125 C -2.445312 12.566406 -1.304688 12.6875 -0.359375 12.6875 C 2.460938 12.6875 4.945312 11.734375 7.09375 9.828125 C 9.25 7.929688 11.363281 5.175781 13.4375 1.5625 L 14.640625 -0.53125 L 4.984375 -48.1875 L 13.125 -48.1875 L 18.125 -21.546875 C 18.5625 -19.171875 18.972656 -16.640625 19.359375 -13.953125 C 19.742188 -11.273438 19.953125 -9.535156 19.984375 -8.734375 C 20.285156 -9.378906 20.671875 -10.175781 21.140625 -11.125 C 21.617188 -12.082031 28.34375 -24.4375 41.3125 -48.1875 L 50.171875 -48.1875 L 22.296875 0 C 19.003906 5.726562 16.359375 9.742188 14.359375 12.046875 C 12.359375 14.347656 10.265625 16.066406 8.078125 17.203125 C 5.898438 18.347656 3.445312 18.921875 0.71875 18.921875 Z M 0.71875 18.921875 "/></g></g></g><g fill="#a0826d" fill-opacity="1"><g transform="translate(1312.238904, 605.417715)"><g><path d="M 47.8125 -30.421875 C 47.8125 -26.554688 47.21875 -22.535156 46.03125 -18.359375 C 44.84375 -14.191406 43.144531 -10.660156 40.9375 -7.765625 C 38.726562 -4.867188 36.019531 -2.703125 32.8125 -1.265625 C 29.601562 0.171875 25.953125 0.890625 21.859375 0.890625 C 16.035156 0.890625 11.429688 -0.859375 8.046875 -4.359375 C 4.671875 -7.867188 2.984375 -12.632812 2.984375 -18.65625 C 3.097656 -24.71875 4.191406 -30.09375 6.265625 -34.78125 C 8.347656 -39.46875 11.226562 -43.015625 14.90625 -45.421875 C 18.59375 -47.828125 23.148438 -49.03125 28.578125 -49.03125 C 34.804688 -49.03125 39.566406 -47.40625 42.859375 -44.15625 C 46.160156 -40.90625 47.8125 -36.328125 47.8125 -30.421875 Z M 39.53125 -30.421875 C 39.53125 -38.910156 35.847656 -43.15625 28.484375 -43.15625 C 24.484375 -43.15625 21.269531 -42.125 18.84375 -40.0625 C 16.425781 -38 14.550781 -34.875 13.21875 -30.6875 C 11.882812 -26.5 11.21875 -22.445312 11.21875 -18.53125 C 11.21875 -14.132812 12.164062 -10.785156 14.0625 -8.484375 C 15.96875 -6.179688 18.726562 -5.03125 22.34375 -5.03125 C 25.40625 -5.03125 27.863281 -5.539062 29.71875 -6.5625 C 31.570312 -7.59375 33.195312 -9.195312 34.59375 -11.375 C 35.988281 -13.5625 37.125 -16.347656 38 -19.734375 C 38.875 -23.117188 39.382812 -26.679688 39.53125 -30.421875 Z M 39.53125 -30.421875 "/></g></g></g><g fill="#a0826d" fill-opacity="1"><g transform="translate(1362.942207, 605.417715)"><g><path d="M 18.46875 -48.1875 L 12.859375 -19.453125 C 12.328125 -16.847656 12.0625 -14.625 12.0625 -12.78125 C 12.0625 -7.820312 14.71875 -5.34375 20.03125 -5.34375 C 23.769531 -5.34375 27.0625 -6.765625 29.90625 -9.609375 C 32.757812 -12.460938 34.660156 -16.328125 35.609375 -21.203125 L 40.859375 -48.1875 L 48.875 -48.1875 L 41.484375 -10.28125 C 40.890625 -7.46875 40.3125 -4.039062 39.75 0 L 32.1875 0 C 32.1875 -0.320312 32.34375 -1.46875 32.65625 -3.4375 C 32.96875 -5.414062 33.226562 -7.015625 33.4375 -8.234375 L 33.296875 -8.234375 C 30.835938 -4.828125 28.367188 -2.460938 25.890625 -1.140625 C 23.410156 0.179688 20.460938 0.84375 17.046875 0.84375 C 12.660156 0.84375 9.359375 -0.238281 7.140625 -2.40625 C 4.929688 -4.570312 3.828125 -7.703125 3.828125 -11.796875 C 3.828125 -13.703125 4.140625 -16.140625 4.765625 -19.109375 L 10.421875 -48.1875 Z M 18.46875 -48.1875 "/></g></g></g><g fill="#a0826d" fill-opacity="1"><g transform="translate(1413.64551, 605.417715)"><g><path d="M 31.96875 -41.765625 C 30.65625 -42.148438 29.316406 -42.34375 27.953125 -42.34375 C 24.835938 -42.34375 22.023438 -40.707031 19.515625 -37.4375 C 17.015625 -34.175781 15.316406 -30.066406 14.421875 -25.109375 L 9.53125 0 L 1.515625 0 L 8.71875 -36.96875 L 9.84375 -43.109375 L 10.640625 -48.1875 L 18.203125 -48.1875 L 16.65625 -38.34375 L 16.828125 -38.34375 C 18.785156 -42.289062 20.710938 -45.066406 22.609375 -46.671875 C 24.515625 -48.273438 26.710938 -49.078125 29.203125 -49.078125 C 30.566406 -49.078125 31.976562 -48.867188 33.4375 -48.453125 Z M 31.96875 -41.765625 "/></g></g></g><g fill="#a0826d" fill-opacity="1"><g transform="translate(1444.005155, 605.417715)"><g/></g></g><g fill="#a0826d" fill-opacity="1"><g transform="translate(1469.334562, 605.417715)"><g><path d="M 24.65625 0.890625 C 21.007812 0.890625 18.035156 0.117188 15.734375 -1.421875 C 13.429688 -2.960938 11.804688 -5.128906 10.859375 -7.921875 L 10.640625 -7.921875 C 10.640625 -7.597656 10.515625 -6.632812 10.265625 -5.03125 C 10.015625 -3.425781 8.492188 4.554688 5.703125 18.921875 L -2.265625 18.921875 L 8.8125 -38.34375 C 9.5 -41.632812 10.019531 -44.914062 10.375 -48.1875 L 17.8125 -48.1875 C 17.8125 -47.382812 17.710938 -46.15625 17.515625 -44.5 C 17.328125 -42.851562 17.171875 -41.691406 17.046875 -41.015625 L 17.234375 -41.015625 C 19.398438 -43.835938 21.679688 -45.882812 24.078125 -47.15625 C 26.484375 -48.4375 29.453125 -49.078125 32.984375 -49.078125 C 37.648438 -49.078125 41.28125 -47.671875 43.875 -44.859375 C 46.46875 -42.054688 47.765625 -38.207031 47.765625 -33.3125 C 47.765625 -27.28125 46.851562 -21.4375 45.03125 -15.78125 C 43.207031 -10.125 40.640625 -5.929688 37.328125 -3.203125 C 34.015625 -0.472656 29.789062 0.890625 24.65625 0.890625 Z M 30.671875 -42.890625 C 27.734375 -42.890625 25.21875 -42.285156 23.125 -41.078125 C 21.03125 -39.878906 19.253906 -38.066406 17.796875 -35.640625 C 16.347656 -33.222656 15.207031 -30.195312 14.375 -26.5625 C 13.539062 -22.925781 13.125 -19.664062 13.125 -16.78125 C 13.125 -13.070312 14.066406 -10.1875 15.953125 -8.125 C 17.835938 -6.0625 20.457031 -5.03125 23.8125 -5.03125 C 27.5 -5.03125 30.410156 -6.148438 32.546875 -8.390625 C 34.679688 -10.628906 36.351562 -14.191406 37.5625 -19.078125 C 38.78125 -23.960938 39.390625 -28.234375 39.390625 -31.890625 C 39.390625 -35.535156 38.691406 -38.28125 37.296875 -40.125 C 35.910156 -41.96875 33.703125 -42.890625 30.671875 -42.890625 Z M 30.671875 -42.890625 "/></g></g></g><g fill="#a0826d" fill-opacity="1"><g transform="translate(1520.037865, 605.417715)"><g><path d="M 11.390625 -22.40625 C 11.210938 -21.363281 11.082031 -19.6875 11 -17.375 C 11 -13.414062 11.984375 -10.382812 13.953125 -8.28125 C 15.929688 -6.175781 18.90625 -5.125 22.875 -5.125 C 25.757812 -5.125 28.375 -5.832031 30.71875 -7.25 C 33.0625 -8.675781 34.882812 -10.625 36.1875 -13.09375 L 42.34375 -10.28125 C 40.175781 -6.394531 37.421875 -3.5625 34.078125 -1.78125 C 30.734375 0 26.691406 0.890625 21.953125 0.890625 C 15.984375 0.890625 11.34375 -0.765625 8.03125 -4.078125 C 4.726562 -7.390625 3.078125 -12.039062 3.078125 -18.03125 C 3.078125 -24 4.128906 -29.347656 6.234375 -34.078125 C 8.335938 -38.816406 11.300781 -42.5 15.125 -45.125 C 18.957031 -47.757812 23.265625 -49.078125 28.046875 -49.078125 C 34.128906 -49.078125 38.863281 -47.546875 42.25 -44.484375 C 45.632812 -41.429688 47.328125 -37.113281 47.328125 -31.53125 C 47.328125 -28.414062 46.96875 -25.375 46.25 -22.40625 Z M 39.171875 -28.546875 L 39.359375 -31.75 C 39.359375 -35.4375 38.398438 -38.257812 36.484375 -40.21875 C 34.566406 -42.175781 31.8125 -43.15625 28.21875 -43.15625 C 24.25 -43.15625 20.90625 -41.882812 18.1875 -39.34375 C 15.46875 -36.800781 13.5625 -33.203125 12.46875 -28.546875 Z M 39.171875 -28.546875 "/></g></g></g><g fill="#a0826d" fill-opacity="1"><g transform="translate(1570.741168, 605.417715)"><g><path d="M 12.25 0.890625 C 9.71875 0.890625 7.734375 0.132812 6.296875 -1.375 C 4.859375 -2.894531 4.140625 -4.898438 4.140625 -7.390625 C 4.140625 -9.023438 4.363281 -10.957031 4.8125 -13.1875 L 10.421875 -42.34375 L 4.859375 -42.34375 L 6.015625 -48.1875 L 11.65625 -48.1875 L 16.34375 -58.96875 L 21.6875 -58.96875 L 19.59375 -48.1875 L 28.484375 -48.1875 L 27.328125 -42.34375 L 18.4375 -42.34375 L 12.859375 -13.625 C 12.503906 -11.84375 12.328125 -10.429688 12.328125 -9.390625 C 12.328125 -6.785156 13.664062 -5.484375 16.34375 -5.484375 C 17.582031 -5.484375 19.066406 -5.6875 20.796875 -6.09375 L 19.9375 -0.171875 C 17 0.535156 14.4375 0.890625 12.25 0.890625 Z M 12.25 0.890625 "/></g></g></g><g fill="#a0826d" fill-opacity="1"><g transform="translate(1596.070575, 605.417715)"><g><path d="M 15.265625 -43.015625 L 9 -43.015625 L 11.796875 -62.75 L 19.984375 -62.75 Z M 15.265625 -43.015625 "/></g></g></g><g fill="#a0826d" fill-opacity="1"><g transform="translate(1613.476168, 605.417715)"><g><path d="M 40.375 -14.109375 C 40.375 -9.304688 38.535156 -5.601562 34.859375 -3 C 31.179688 -0.40625 25.867188 0.890625 18.921875 0.890625 C 13.753906 0.890625 9.648438 0.0234375 6.609375 -1.703125 C 3.566406 -3.441406 1.4375 -6.1875 0.21875 -9.9375 L 6.765625 -12.421875 C 7.742188 -9.804688 9.265625 -7.90625 11.328125 -6.71875 C 13.390625 -5.53125 16.15625 -4.9375 19.625 -4.9375 C 23.875 -4.9375 27.097656 -5.65625 29.296875 -7.09375 C 31.492188 -8.539062 32.59375 -10.644531 32.59375 -13.40625 C 32.59375 -15.25 31.832031 -16.785156 30.3125 -18.015625 C 28.800781 -19.242188 25.597656 -20.613281 20.703125 -22.125 C 16.898438 -23.375 14.046875 -24.59375 12.140625 -25.78125 C 10.242188 -26.96875 8.789062 -28.351562 7.78125 -29.9375 C 6.78125 -31.53125 6.28125 -33.382812 6.28125 -35.5 C 6.28125 -39.800781 8 -43.113281 11.4375 -45.4375 C 14.882812 -47.769531 19.738281 -48.9375 26 -48.9375 C 36.5 -48.9375 42.40625 -45.148438 43.71875 -37.578125 L 36.453125 -36.46875 C 35.804688 -38.8125 34.578125 -40.503906 32.765625 -41.546875 C 30.953125 -42.585938 28.519531 -43.109375 25.46875 -43.109375 C 21.78125 -43.109375 18.945312 -42.519531 16.96875 -41.34375 C 15 -40.175781 14.015625 -38.523438 14.015625 -36.390625 C 14.015625 -35.140625 14.328125 -34.082031 14.953125 -33.21875 C 15.578125 -32.363281 16.472656 -31.597656 17.640625 -30.921875 C 18.816406 -30.253906 21.53125 -29.253906 25.78125 -27.921875 C 29.539062 -26.734375 32.378906 -25.53125 34.296875 -24.3125 C 36.210938 -23.09375 37.703125 -21.648438 38.765625 -19.984375 C 39.835938 -18.328125 40.375 -16.367188 40.375 -14.109375 Z M 40.375 -14.109375 "/></g></g></g><g fill="#a0826d" fill-opacity="1"><g transform="translate(1659.060168, 605.417715)"><g/></g></g><g fill="#a0826d" fill-opacity="1"><g transform="translate(1684.389576, 605.417715)"><g><path d="M 40.375 -14.109375 C 40.375 -9.304688 38.535156 -5.601562 34.859375 -3 C 31.179688 -0.40625 25.867188 0.890625 18.921875 0.890625 C 13.753906 0.890625 9.648438 0.0234375 6.609375 -1.703125 C 3.566406 -3.441406 1.4375 -6.1875 0.21875 -9.9375 L 6.765625 -12.421875 C 7.742188 -9.804688 9.265625 -7.90625 11.328125 -6.71875 C 13.390625 -5.53125 16.15625 -4.9375 19.625 -4.9375 C 23.875 -4.9375 27.097656 -5.65625 29.296875 -7.09375 C 31.492188 -8.539062 32.59375 -10.644531 32.59375 -13.40625 C 32.59375 -15.25 31.832031 -16.785156 30.3125 -18.015625 C 28.800781 -19.242188 25.597656 -20.613281 20.703125 -22.125 C 16.898438 -23.375 14.046875 -24.59375 12.140625 -25.78125 C 10.242188 -26.96875 8.789062 -28.351562 7.78125 -29.9375 C 6.78125 -31.53125 6.28125 -33.382812 6.28125 -35.5 C 6.28125 -39.800781 8 -43.113281 11.4375 -45.4375 C 14.882812 -47.769531 19.738281 -48.9375 26 -48.9375 C 36.5 -48.9375 42.40625 -45.148438 43.71875 -37.578125 L 36.453125 -36.46875 C 35.804688 -38.8125 34.578125 -40.503906 32.765625 -41.546875 C 30.953125 -42.585938 28.519531 -43.109375 25.46875 -43.109375 C 21.78125 -43.109375 18.945312 -42.519531 16.96875 -41.34375 C 15 -40.175781 14.015625 -38.523438 14.015625 -36.390625 C 14.015625 -35.140625 14.328125 -34.082031 14.953125 -33.21875 C 15.578125 -32.363281 16.472656 -31.597656 17.640625 -30.921875 C 18.816406 -30.253906 21.53125 -29.253906 25.78125 -27.921875 C 29.539062 -26.734375 32.378906 -25.53125 34.296875 -24.3125 C 36.210938 -23.09375 37.703125 -21.648438 38.765625 -19.984375 C 39.835938 -18.328125 40.375 -16.367188 40.375 -14.109375 Z M 40.375 -14.109375 "/></g></g></g><g fill="#a0826d" fill-opacity="1"><g transform="translate(1729.973576, 605.417715)"><g><path d="M 12.25 0.890625 C 9.71875 0.890625 7.734375 0.132812 6.296875 -1.375 C 4.859375 -2.894531 4.140625 -4.898438 4.140625 -7.390625 C 4.140625 -9.023438 4.363281 -10.957031 4.8125 -13.1875 L 10.421875 -42.34375 L 4.859375 -42.34375 L 6.015625 -48.1875 L 11.65625 -48.1875 L 16.34375 -58.96875 L 21.6875 -58.96875 L 19.59375 -48.1875 L 28.484375 -48.1875 L 27.328125 -42.34375 L 18.4375 -42.34375 L 12.859375 -13.625 C 12.503906 -11.84375 12.328125 -10.429688 12.328125 -9.390625 C 12.328125 -6.785156 13.664062 -5.484375 16.34375 -5.484375 C 17.582031 -5.484375 19.066406 -5.6875 20.796875 -6.09375 L 19.9375 -0.171875 C 17 0.535156 14.4375 0.890625 12.25 0.890625 Z M 12.25 0.890625 "/></g></g></g><g fill="#a0826d" fill-opacity="1"><g transform="translate(1755.302984, 605.417715)"><g><path d="M 47.8125 -30.421875 C 47.8125 -26.554688 47.21875 -22.535156 46.03125 -18.359375 C 44.84375 -14.191406 43.144531 -10.660156 40.9375 -7.765625 C 38.726562 -4.867188 36.019531 -2.703125 32.8125 -1.265625 C 29.601562 0.171875 25.953125 0.890625 21.859375 0.890625 C 16.035156 0.890625 11.429688 -0.859375 8.046875 -4.359375 C 4.671875 -7.867188 2.984375 -12.632812 2.984375 -18.65625 C 3.097656 -24.71875 4.191406 -30.09375 6.265625 -34.78125 C 8.347656 -39.46875 11.226562 -43.015625 14.90625 -45.421875 C 18.59375 -47.828125 23.148438 -49.03125 28.578125 -49.03125 C 34.804688 -49.03125 39.566406 -47.40625 42.859375 -44.15625 C 46.160156 -40.90625 47.8125 -36.328125 47.8125 -30.421875 Z M 39.53125 -30.421875 C 39.53125 -38.910156 35.847656 -43.15625 28.484375 -43.15625 C 24.484375 -43.15625 21.269531 -42.125 18.84375 -40.0625 C 16.425781 -38 14.550781 -34.875 13.21875 -30.6875 C 11.882812 -26.5 11.21875 -22.445312 11.21875 -18.53125 C 11.21875 -14.132812 12.164062 -10.785156 14.0625 -8.484375 C 15.96875 -6.179688 18.726562 -5.03125 22.34375 -5.03125 C 25.40625 -5.03125 27.863281 -5.539062 29.71875 -6.5625 C 31.570312 -7.59375 33.195312 -9.195312 34.59375 -11.375 C 35.988281 -13.5625 37.125 -16.347656 38 -19.734375 C 38.875 -23.117188 39.382812 -26.679688 39.53125 -30.421875 Z M 39.53125 -30.421875 "/></g></g></g><g fill="#a0826d" fill-opacity="1"><g transform="translate(1806.006287, 605.417715)"><g><path d="M 31.96875 -41.765625 C 30.65625 -42.148438 29.316406 -42.34375 27.953125 -42.34375 C 24.835938 -42.34375 22.023438 -40.707031 19.515625 -37.4375 C 17.015625 -34.175781 15.316406 -30.066406 14.421875 -25.109375 L 9.53125 0 L 1.515625 0 L 8.71875 -36.96875 L 9.84375 -43.109375 L 10.640625 -48.1875 L 18.203125 -48.1875 L 16.65625 -38.34375 L 16.828125 -38.34375 C 18.785156 -42.289062 20.710938 -45.066406 22.609375 -46.671875 C 24.515625 -48.273438 26.710938 -49.078125 29.203125 -49.078125 C 30.566406 -49.078125 31.976562 -48.867188 33.4375 -48.453125 Z M 31.96875 -41.765625 "/></g></g></g><g fill="#a0826d" fill-opacity="1"><g transform="translate(1836.365931, 605.417715)"><g><path d="M 0.71875 18.921875 C -1.425781 18.921875 -3.382812 18.710938 -5.15625 18.296875 L -3.78125 12.328125 C -2.445312 12.566406 -1.304688 12.6875 -0.359375 12.6875 C 2.460938 12.6875 4.945312 11.734375 7.09375 9.828125 C 9.25 7.929688 11.363281 5.175781 13.4375 1.5625 L 14.640625 -0.53125 L 4.984375 -48.1875 L 13.125 -48.1875 L 18.125 -21.546875 C 18.5625 -19.171875 18.972656 -16.640625 19.359375 -13.953125 C 19.742188 -11.273438 19.953125 -9.535156 19.984375 -8.734375 C 20.285156 -9.378906 20.671875 -10.175781 21.140625 -11.125 C 21.617188 -12.082031 28.34375 -24.4375 41.3125 -48.1875 L 50.171875 -48.1875 L 22.296875 0 C 19.003906 5.726562 16.359375 9.742188 14.359375 12.046875 C 12.359375 14.347656 10.265625 16.066406 8.078125 17.203125 C 5.898438 18.347656 3.445312 18.921875 0.71875 18.921875 Z M 0.71875 18.921875 "/></g></g></g><g fill="#a0826d" fill-opacity="1"><g transform="translate(1881.949932, 605.417715)"><g/></g></g><g fill="#a0826d" fill-opacity="1"><g transform="translate(1907.279339, 605.417715)"><g><path d="M 1.46875 0 L 14.296875 -66.09375 L 22.296875 -66.09375 L 9.4375 0 Z M 1.46875 0 "/></g></g></g><g fill="#a0826d" fill-opacity="1"><g transform="translate(1927.533931, 605.417715)"><g><path d="M 12.78125 -58.421875 L 14.296875 -66.09375 L 22.296875 -66.09375 L 20.796875 -58.421875 Z M 1.46875 0 L 10.8125 -48.1875 L 18.828125 -48.1875 L 9.4375 0 Z M 1.46875 0 "/></g></g></g><g fill="#a0826d" fill-opacity="1"><g transform="translate(1947.788615, 605.417715)"><g><path d="M 22.578125 0 L 13.09375 0 L 4.984375 -48.1875 L 13.3125 -48.1875 L 17.8125 -16.828125 C 18.070312 -14.816406 18.351562 -12.085938 18.65625 -8.640625 L 18.828125 -6.28125 L 19.984375 -8.640625 C 21.316406 -11.429688 22.695312 -14.132812 24.125 -16.75 L 41.21875 -48.1875 L 49.953125 -48.1875 Z M 22.578125 0 "/></g></g></g><g fill="#a0826d" fill-opacity="1"><g transform="translate(1993.372616, 605.417715)"><g><path d="M 11.390625 -22.40625 C 11.210938 -21.363281 11.082031 -19.6875 11 -17.375 C 11 -13.414062 11.984375 -10.382812 13.953125 -8.28125 C 15.929688 -6.175781 18.90625 -5.125 22.875 -5.125 C 25.757812 -5.125 28.375 -5.832031 30.71875 -7.25 C 33.0625 -8.675781 34.882812 -10.625 36.1875 -13.09375 L 42.34375 -10.28125 C 40.175781 -6.394531 37.421875 -3.5625 34.078125 -1.78125 C 30.734375 0 26.691406 0.890625 21.953125 0.890625 C 15.984375 0.890625 11.34375 -0.765625 8.03125 -4.078125 C 4.726562 -7.390625 3.078125 -12.039062 3.078125 -18.03125 C 3.078125 -24 4.128906 -29.347656 6.234375 -34.078125 C 8.335938 -38.816406 11.300781 -42.5 15.125 -45.125 C 18.957031 -47.757812 23.265625 -49.078125 28.046875 -49.078125 C 34.128906 -49.078125 38.863281 -47.546875 42.25 -44.484375 C 45.632812 -41.429688 47.328125 -37.113281 47.328125 -31.53125 C 47.328125 -28.414062 46.96875 -25.375 46.25 -22.40625 Z M 39.171875 -28.546875 L 39.359375 -31.75 C 39.359375 -35.4375 38.398438 -38.257812 36.484375 -40.21875 C 34.566406 -42.175781 31.8125 -43.15625 28.21875 -43.15625 C 24.25 -43.15625 20.90625 -41.882812 18.1875 -39.34375 C 15.46875 -36.800781 13.5625 -33.203125 12.46875 -28.546875 Z M 39.171875 -28.546875 "/></g></g></g><g fill="#a0826d" fill-opacity="1"><g transform="translate(2044.075918, 605.417715)"><g><path d="M 40.375 -14.109375 C 40.375 -9.304688 38.535156 -5.601562 34.859375 -3 C 31.179688 -0.40625 25.867188 0.890625 18.921875 0.890625 C 13.753906 0.890625 9.648438 0.0234375 6.609375 -1.703125 C 3.566406 -3.441406 1.4375 -6.1875 0.21875 -9.9375 L 6.765625 -12.421875 C 7.742188 -9.804688 9.265625 -7.90625 11.328125 -6.71875 C 13.390625 -5.53125 16.15625 -4.9375 19.625 -4.9375 C 23.875 -4.9375 27.097656 -5.65625 29.296875 -7.09375 C 31.492188 -8.539062 32.59375 -10.644531 32.59375 -13.40625 C 32.59375 -15.25 31.832031 -16.785156 30.3125 -18.015625 C 28.800781 -19.242188 25.597656 -20.613281 20.703125 -22.125 C 16.898438 -23.375 14.046875 -24.59375 12.140625 -25.78125 C 10.242188 -26.96875 8.789062 -28.351562 7.78125 -29.9375 C 6.78125 -31.53125 6.28125 -33.382812 6.28125 -35.5 C 6.28125 -39.800781 8 -43.113281 11.4375 -45.4375 C 14.882812 -47.769531 19.738281 -48.9375 26 -48.9375 C 36.5 -48.9375 42.40625 -45.148438 43.71875 -37.578125 L 36.453125 -36.46875 C 35.804688 -38.8125 34.578125 -40.503906 32.765625 -41.546875 C 30.953125 -42.585938 28.519531 -43.109375 25.46875 -43.109375 C 21.78125 -43.109375 18.945312 -42.519531 16.96875 -41.34375 C 15 -40.175781 14.015625 -38.523438 14.015625 -36.390625 C 14.015625 -35.140625 14.328125 -34.082031 14.953125 -33.21875 C 15.578125 -32.363281 16.472656 -31.597656 17.640625 -30.921875 C 18.816406 -30.253906 21.53125 -29.253906 25.78125 -27.921875 C 29.539062 -26.734375 32.378906 -25.53125 34.296875 -24.3125 C 36.210938 -23.09375 37.703125 -21.648438 38.765625 -19.984375 C 39.835938 -18.328125 40.375 -16.367188 40.375 -14.109375 Z M 40.375 -14.109375 "/></g></g></g><g clip-path="url(#600c172ead)"><path stroke-linecap="round" transform="matrix(6.512753, 0, 0, 6.514142, 907.685571, 182.001427)" fill="none" stroke-linejoin="miter" d="M 9.999907 70.000129 C 16.666514 68.666492 23.333122 68.666492 29.999729 70.000129 C 36.666936 71.333166 43.333543 71.333166 50.000151 70.000129 C 56.666758 68.666492 63.333365 68.666492 69.999972 70.000129 C 76.66658 71.333166 83.333187 71.333166 89.999794 70.000129 C 96.666402 68.666492 103.333609 68.666492 110.000216 70.000129 C 116.666823 71.333166 123.33343 71.333166 130.000038 70.000129 " stroke="#ffb347" stroke-width="2" stroke-opacity="0.4" stroke-miterlimit="4"/></g></g></g></g></svg>