<svg xmlns="http://www.w3.org/2000/svg" xmlns:xlink="http://www.w3.org/1999/xlink" width="3780" zoomAndPan="magnify" viewBox="0 0 2835 1417.499962" height="1890" preserveAspectRatio="xMidYMid meet" version="1.0"><defs><g/><clipPath id="bb58c76da4"><path d="M 0.609375 0.113281 L 1145.382812 0.113281 L 1145.382812 1144.886719 L 0.609375 1144.886719 Z M 0.609375 0.113281 " clip-rule="nonzero"/></clipPath><clipPath id="9888697659"><path d="M 572.996094 0.113281 C 256.878906 0.113281 0.609375 256.378906 0.609375 572.5 C 0.609375 888.621094 256.878906 1144.886719 572.996094 1144.886719 C 889.117188 1144.886719 1145.382812 888.621094 1145.382812 572.5 C 1145.382812 256.378906 889.117188 0.113281 572.996094 0.113281 Z M 572.996094 0.113281 " clip-rule="nonzero"/></clipPath><clipPath id="e3d80b29cb"><path d="M 0.609375 0.113281 L 1145.382812 0.113281 L 1145.382812 1144.886719 L 0.609375 1144.886719 Z M 0.609375 0.113281 " clip-rule="nonzero"/></clipPath><clipPath id="b2c193888c"><path d="M 572.996094 0.113281 C 256.878906 0.113281 0.609375 256.378906 0.609375 572.5 C 0.609375 888.621094 256.878906 1144.886719 572.996094 1144.886719 C 889.117188 1144.886719 1145.382812 888.621094 1145.382812 572.5 C 1145.382812 256.378906 889.117188 0.113281 572.996094 0.113281 Z M 572.996094 0.113281 " clip-rule="nonzero"/></clipPath><linearGradient x1="0" gradientTransform="matrix(4.471765, 0, 0, 4.471765, 0.611065, 0.114098)" y1="128" x2="255.999991" gradientUnits="userSpaceOnUse" y2="128" id="f2809f1dc2"><stop stop-opacity="1" stop-color="rgb(100%, 48.629761%, 56.469727%)" offset="0"/><stop stop-opacity="1" stop-color="rgb(100%, 48.783875%, 56.500244%)" offset="0.0078125"/><stop stop-opacity="1" stop-color="rgb(100%, 49.092102%, 56.561279%)" offset="0.015625"/><stop stop-opacity="1" stop-color="rgb(100%, 49.401855%, 56.622314%)" offset="0.0234375"/><stop stop-opacity="1" stop-color="rgb(100%, 49.711609%, 56.68335%)" offset="0.03125"/><stop stop-opacity="1" stop-color="rgb(100%, 50.021362%, 56.744385%)" offset="0.0390625"/><stop stop-opacity="1" stop-color="rgb(100%, 50.331116%, 56.80542%)" offset="0.046875"/><stop stop-opacity="1" stop-color="rgb(100%, 50.639343%, 56.867981%)" offset="0.0546875"/><stop stop-opacity="1" stop-color="rgb(100%, 50.949097%, 56.929016%)" offset="0.0625"/><stop stop-opacity="1" stop-color="rgb(100%, 51.25885%, 56.990051%)" offset="0.0703125"/><stop stop-opacity="1" stop-color="rgb(100%, 51.568604%, 57.051086%)" offset="0.078125"/><stop stop-opacity="1" stop-color="rgb(100%, 51.878357%, 57.112122%)" offset="0.0859375"/><stop stop-opacity="1" stop-color="rgb(100%, 52.186584%, 57.173157%)" offset="0.09375"/><stop stop-opacity="1" stop-color="rgb(100%, 52.496338%, 57.234192%)" offset="0.101562"/><stop stop-opacity="1" stop-color="rgb(100%, 52.806091%, 57.296753%)" offset="0.109375"/><stop stop-opacity="1" stop-color="rgb(100%, 53.115845%, 57.357788%)" offset="0.117188"/><stop stop-opacity="1" stop-color="rgb(100%, 53.425598%, 57.418823%)" offset="0.125"/><stop stop-opacity="1" stop-color="rgb(100%, 53.735352%, 57.479858%)" offset="0.132812"/><stop stop-opacity="1" stop-color="rgb(100%, 54.043579%, 57.540894%)" offset="0.140625"/><stop stop-opacity="1" stop-color="rgb(100%, 54.353333%, 57.601929%)" offset="0.148437"/><stop stop-opacity="1" stop-color="rgb(100%, 54.663086%, 57.662964%)" offset="0.15625"/><stop stop-opacity="1" stop-color="rgb(100%, 54.972839%, 57.723999%)" offset="0.164062"/><stop stop-opacity="1" stop-color="rgb(100%, 55.282593%, 57.78656%)" offset="0.171875"/><stop stop-opacity="1" stop-color="rgb(100%, 55.59082%, 57.847595%)" offset="0.179687"/><stop stop-opacity="1" stop-color="rgb(100%, 55.900574%, 57.90863%)" offset="0.1875"/><stop stop-opacity="1" stop-color="rgb(100%, 56.210327%, 57.969666%)" offset="0.195312"/><stop stop-opacity="1" stop-color="rgb(100%, 56.520081%, 58.030701%)" offset="0.203125"/><stop stop-opacity="1" stop-color="rgb(100%, 56.829834%, 58.091736%)" offset="0.210937"/><stop stop-opacity="1" stop-color="rgb(100%, 57.138062%, 58.152771%)" offset="0.21875"/><stop stop-opacity="1" stop-color="rgb(100%, 57.447815%, 58.215332%)" offset="0.226562"/><stop stop-opacity="1" stop-color="rgb(100%, 57.757568%, 58.276367%)" offset="0.234375"/><stop stop-opacity="1" stop-color="rgb(100%, 58.067322%, 58.337402%)" offset="0.242187"/><stop stop-opacity="1" stop-color="rgb(100%, 58.377075%, 58.398438%)" offset="0.25"/><stop stop-opacity="1" stop-color="rgb(100%, 58.685303%, 58.459473%)" offset="0.257812"/><stop stop-opacity="1" stop-color="rgb(100%, 58.995056%, 58.520508%)" offset="0.265625"/><stop stop-opacity="1" stop-color="rgb(100%, 59.30481%, 58.581543%)" offset="0.273438"/><stop stop-opacity="1" stop-color="rgb(100%, 59.614563%, 58.644104%)" offset="0.28125"/><stop stop-opacity="1" stop-color="rgb(100%, 59.924316%, 58.705139%)" offset="0.289062"/><stop stop-opacity="1" stop-color="rgb(100%, 60.232544%, 58.766174%)" offset="0.296875"/><stop stop-opacity="1" stop-color="rgb(100%, 60.542297%, 58.827209%)" offset="0.304687"/><stop stop-opacity="1" stop-color="rgb(100%, 60.852051%, 58.888245%)" offset="0.3125"/><stop stop-opacity="1" stop-color="rgb(100%, 61.161804%, 58.94928%)" offset="0.320312"/><stop stop-opacity="1" stop-color="rgb(100%, 61.471558%, 59.010315%)" offset="0.328125"/><stop stop-opacity="1" stop-color="rgb(100%, 61.779785%, 59.072876%)" offset="0.335938"/><stop stop-opacity="1" stop-color="rgb(100%, 62.089539%, 59.133911%)" offset="0.34375"/><stop stop-opacity="1" stop-color="rgb(100%, 62.399292%, 59.194946%)" offset="0.351562"/><stop stop-opacity="1" stop-color="rgb(100%, 62.709045%, 59.255981%)" offset="0.359375"/><stop stop-opacity="1" stop-color="rgb(100%, 63.018799%, 59.317017%)" offset="0.367187"/><stop stop-opacity="1" stop-color="rgb(100%, 63.327026%, 59.378052%)" offset="0.375"/><stop stop-opacity="1" stop-color="rgb(100%, 63.63678%, 59.439087%)" offset="0.382813"/><stop stop-opacity="1" stop-color="rgb(100%, 63.946533%, 59.501648%)" offset="0.390625"/><stop stop-opacity="1" stop-color="rgb(100%, 64.256287%, 59.562683%)" offset="0.398438"/><stop stop-opacity="1" stop-color="rgb(100%, 64.56604%, 59.623718%)" offset="0.40625"/><stop stop-opacity="1" stop-color="rgb(100%, 64.874268%, 59.684753%)" offset="0.414062"/><stop stop-opacity="1" stop-color="rgb(100%, 65.184021%, 59.745789%)" offset="0.421875"/><stop stop-opacity="1" stop-color="rgb(100%, 65.493774%, 59.806824%)" offset="0.429687"/><stop stop-opacity="1" stop-color="rgb(100%, 65.803528%, 59.867859%)" offset="0.4375"/><stop stop-opacity="1" stop-color="rgb(100%, 66.113281%, 59.93042%)" offset="0.445313"/><stop stop-opacity="1" stop-color="rgb(100%, 66.421509%, 59.991455%)" offset="0.453125"/><stop stop-opacity="1" stop-color="rgb(100%, 66.731262%, 60.05249%)" offset="0.460938"/><stop stop-opacity="1" stop-color="rgb(100%, 67.041016%, 60.113525%)" offset="0.46875"/><stop stop-opacity="1" stop-color="rgb(100%, 67.350769%, 60.174561%)" offset="0.476562"/><stop stop-opacity="1" stop-color="rgb(100%, 67.660522%, 60.235596%)" offset="0.484375"/><stop stop-opacity="1" stop-color="rgb(100%, 67.96875%, 60.296631%)" offset="0.492187"/><stop stop-opacity="1" stop-color="rgb(100%, 68.278503%, 60.359192%)" offset="0.5"/><stop stop-opacity="1" stop-color="rgb(100%, 68.588257%, 60.420227%)" offset="0.507812"/><stop stop-opacity="1" stop-color="rgb(100%, 68.89801%, 60.481262%)" offset="0.515625"/><stop stop-opacity="1" stop-color="rgb(100%, 69.207764%, 60.542297%)" offset="0.523438"/><stop stop-opacity="1" stop-color="rgb(100%, 69.515991%, 60.603333%)" offset="0.53125"/><stop stop-opacity="1" stop-color="rgb(100%, 69.825745%, 60.664368%)" offset="0.539062"/><stop stop-opacity="1" stop-color="rgb(100%, 70.135498%, 60.725403%)" offset="0.546875"/><stop stop-opacity="1" stop-color="rgb(100%, 70.445251%, 60.787964%)" offset="0.554688"/><stop stop-opacity="1" stop-color="rgb(100%, 70.755005%, 60.848999%)" offset="0.5625"/><stop stop-opacity="1" stop-color="rgb(100%, 71.063232%, 60.910034%)" offset="0.570312"/><stop stop-opacity="1" stop-color="rgb(100%, 71.372986%, 60.971069%)" offset="0.578125"/><stop stop-opacity="1" stop-color="rgb(100%, 71.682739%, 61.032104%)" offset="0.585937"/><stop stop-opacity="1" stop-color="rgb(100%, 71.992493%, 61.09314%)" offset="0.59375"/><stop stop-opacity="1" stop-color="rgb(100%, 72.302246%, 61.154175%)" offset="0.601562"/><stop stop-opacity="1" stop-color="rgb(100%, 72.612%, 61.216736%)" offset="0.609375"/><stop stop-opacity="1" stop-color="rgb(100%, 72.920227%, 61.277771%)" offset="0.617187"/><stop stop-opacity="1" stop-color="rgb(100%, 73.22998%, 61.338806%)" offset="0.625"/><stop stop-opacity="1" stop-color="rgb(100%, 73.539734%, 61.399841%)" offset="0.632813"/><stop stop-opacity="1" stop-color="rgb(100%, 73.849487%, 61.460876%)" offset="0.640625"/><stop stop-opacity="1" stop-color="rgb(100%, 74.159241%, 61.521912%)" offset="0.648438"/><stop stop-opacity="1" stop-color="rgb(100%, 74.467468%, 61.582947%)" offset="0.65625"/><stop stop-opacity="1" stop-color="rgb(100%, 74.777222%, 61.645508%)" offset="0.664062"/><stop stop-opacity="1" stop-color="rgb(100%, 75.086975%, 61.706543%)" offset="0.671875"/><stop stop-opacity="1" stop-color="rgb(100%, 75.396729%, 61.767578%)" offset="0.679688"/><stop stop-opacity="1" stop-color="rgb(100%, 75.706482%, 61.828613%)" offset="0.6875"/><stop stop-opacity="1" stop-color="rgb(100%, 76.014709%, 61.889648%)" offset="0.695312"/><stop stop-opacity="1" stop-color="rgb(100%, 76.324463%, 61.950684%)" offset="0.703125"/><stop stop-opacity="1" stop-color="rgb(100%, 76.634216%, 62.011719%)" offset="0.710937"/><stop stop-opacity="1" stop-color="rgb(100%, 76.94397%, 62.072754%)" offset="0.71875"/><stop stop-opacity="1" stop-color="rgb(100%, 77.253723%, 62.135315%)" offset="0.726562"/><stop stop-opacity="1" stop-color="rgb(100%, 77.561951%, 62.19635%)" offset="0.734375"/><stop stop-opacity="1" stop-color="rgb(100%, 77.871704%, 62.257385%)" offset="0.742187"/><stop stop-opacity="1" stop-color="rgb(100%, 78.181458%, 62.31842%)" offset="0.75"/><stop stop-opacity="1" stop-color="rgb(100%, 78.491211%, 62.379456%)" offset="0.757813"/><stop stop-opacity="1" stop-color="rgb(100%, 78.800964%, 62.440491%)" offset="0.765625"/><stop stop-opacity="1" stop-color="rgb(100%, 79.109192%, 62.501526%)" offset="0.773438"/><stop stop-opacity="1" stop-color="rgb(100%, 79.418945%, 62.564087%)" offset="0.78125"/><stop stop-opacity="1" stop-color="rgb(100%, 79.728699%, 62.625122%)" offset="0.789062"/><stop stop-opacity="1" stop-color="rgb(100%, 80.038452%, 62.686157%)" offset="0.796875"/><stop stop-opacity="1" stop-color="rgb(100%, 80.348206%, 62.747192%)" offset="0.804688"/><stop stop-opacity="1" stop-color="rgb(100%, 80.656433%, 62.808228%)" offset="0.8125"/><stop stop-opacity="1" stop-color="rgb(100%, 80.966187%, 62.869263%)" offset="0.820312"/><stop stop-opacity="1" stop-color="rgb(100%, 81.27594%, 62.930298%)" offset="0.828125"/><stop stop-opacity="1" stop-color="rgb(100%, 81.585693%, 62.992859%)" offset="0.835937"/><stop stop-opacity="1" stop-color="rgb(100%, 81.895447%, 63.053894%)" offset="0.84375"/><stop stop-opacity="1" stop-color="rgb(100%, 82.203674%, 63.114929%)" offset="0.851562"/><stop stop-opacity="1" stop-color="rgb(100%, 82.513428%, 63.175964%)" offset="0.859375"/><stop stop-opacity="1" stop-color="rgb(100%, 82.823181%, 63.237%)" offset="0.867187"/><stop stop-opacity="1" stop-color="rgb(100%, 83.132935%, 63.298035%)" offset="0.875"/><stop stop-opacity="1" stop-color="rgb(100%, 83.442688%, 63.35907%)" offset="0.882813"/><stop stop-opacity="1" stop-color="rgb(100%, 83.750916%, 63.421631%)" offset="0.890625"/><stop stop-opacity="1" stop-color="rgb(100%, 84.060669%, 63.482666%)" offset="0.898438"/><stop stop-opacity="1" stop-color="rgb(100%, 84.370422%, 63.543701%)" offset="0.90625"/><stop stop-opacity="1" stop-color="rgb(100%, 84.680176%, 63.604736%)" offset="0.914062"/><stop stop-opacity="1" stop-color="rgb(100%, 84.989929%, 63.665771%)" offset="0.921875"/><stop stop-opacity="1" stop-color="rgb(100%, 85.298157%, 63.726807%)" offset="0.929688"/><stop stop-opacity="1" stop-color="rgb(100%, 85.60791%, 63.787842%)" offset="0.9375"/><stop stop-opacity="1" stop-color="rgb(100%, 85.917664%, 63.850403%)" offset="0.945312"/><stop stop-opacity="1" stop-color="rgb(100%, 86.227417%, 63.911438%)" offset="0.953125"/><stop stop-opacity="1" stop-color="rgb(100%, 86.53717%, 63.972473%)" offset="0.960938"/><stop stop-opacity="1" stop-color="rgb(100%, 86.845398%, 64.033508%)" offset="0.96875"/><stop stop-opacity="1" stop-color="rgb(100%, 87.155151%, 64.094543%)" offset="0.976562"/><stop stop-opacity="1" stop-color="rgb(100%, 87.464905%, 64.155579%)" offset="0.984375"/><stop stop-opacity="1" stop-color="rgb(100%, 87.774658%, 64.216614%)" offset="0.992187"/><stop stop-opacity="1" stop-color="rgb(100%, 88.084412%, 64.279175%)" offset="1"/></linearGradient><clipPath id="3a486ce1b1"><rect x="0" width="1146" y="0" height="1145"/></clipPath><clipPath id="ceff566a0a"><path d="M 253 256 L 893 256 L 893 962.355469 L 253 962.355469 Z M 253 256 " clip-rule="nonzero"/></clipPath><clipPath id="f6edc5e16e"><path d="M 117.960938 101.550781 L 1028.253906 101.550781 L 1028.253906 557 L 117.960938 557 Z M 117.960938 101.550781 " clip-rule="nonzero"/></clipPath><clipPath id="d580a5e6fe"><path d="M 399.265625 606.421875 L 746.726562 606.421875 L 746.726562 962.707031 L 399.265625 962.707031 Z M 399.265625 606.421875 " clip-rule="nonzero"/></clipPath><clipPath id="36507eea02"><path d="M 0.265625 0.421875 L 347.726562 0.421875 L 347.726562 356.707031 L 0.265625 356.707031 Z M 0.265625 0.421875 " clip-rule="nonzero"/></clipPath><clipPath id="a2c278f5ba"><rect x="0" width="348" y="0" height="357"/></clipPath><clipPath id="5bb088141e"><path d="M 323 425.183594 L 831 425.183594 L 831 914 L 323 914 Z M 323 425.183594 " clip-rule="nonzero"/></clipPath><clipPath id="651cf6c27e"><rect x="0" width="2617" y="0" height="1145"/></clipPath></defs><g transform="matrix(1, 0, 0, 1, 47, 136)"><g clip-path="url(#651cf6c27e)"><g clip-path="url(#bb58c76da4)"><g clip-path="url(#9888697659)"><g transform="matrix(1, 0, 0, 1, -0.000000000000007105, -0.000000000000028422)"><g clip-path="url(#3a486ce1b1)"><g clip-path="url(#e3d80b29cb)"><g clip-path="url(#b2c193888c)"><path fill="url(#f2809f1dc2)" d="M 0.609375 0.113281 L 0.609375 1144.886719 L 1145.382812 1144.886719 L 1145.382812 0.113281 Z M 0.609375 0.113281 " fill-rule="nonzero"/></g></g></g></g></g></g><g clip-path="url(#ceff566a0a)"><path fill="#fff5e6" d="M 892.492188 539.289062 Z M 892.492188 539.289062 L 573.09375 256.421875 L 253.5 539.40625 L 253.5 943.769531 C 253.5 954.214844 261.941406 962.589844 272.382812 962.589844 L 472.113281 962.589844 L 472.113281 785.296875 C 472.113281 774.851562 480.492188 766.414062 490.933594 766.414062 L 655.046875 766.414062 C 665.492188 766.414062 673.871094 774.851562 673.871094 785.296875 L 673.871094 962.589844 L 873.65625 962.589844 C 884.101562 962.589844 892.476562 954.214844 892.476562 943.769531 L 892.476562 539.269531 Z M 253.5 539.414062 Z M 253.5 539.414062 " fill-opacity="1" fill-rule="nonzero"/></g><g clip-path="url(#f6edc5e16e)"><path fill="#fff5e6" d="M 571.230469 101.617188 L 117.960938 502.957031 L 165.707031 556.824219 L 573.089844 196.089844 L 980.378906 556.824219 L 1028.03125 502.957031 L 574.859375 101.617188 L 573.097656 103.65625 L 571.242188 101.617188 Z M 571.230469 101.617188 " fill-opacity="1" fill-rule="nonzero"/></g><path fill="#fff5e6" d="M 253.503906 159.390625 L 368.40625 159.390625 L 367.402344 227.449219 L 253.5 330.347656 L 253.5 159.390625 Z M 253.503906 159.390625 " fill-opacity="1" fill-rule="nonzero"/><g clip-path="url(#d580a5e6fe)"><g transform="matrix(1, 0, 0, 1, 399, 606)"><g clip-path="url(#a2c278f5ba)"><g clip-path="url(#36507eea02)"><path fill="#fff5e6" d="M 0.265625 0.421875 L 347.726562 0.421875 L 347.726562 357.382812 L 0.265625 357.382812 Z M 0.265625 0.421875 " fill-opacity="1" fill-rule="nonzero"/></g></g></g></g><g clip-path="url(#5bb088141e)"><path fill="#8b6345" d="M 663.914062 425.664062 C 662.847656 425.679688 661.75 425.730469 660.664062 425.816406 C 617.34375 433.292969 593.523438 479.101562 590.070312 519.5 C 585.027344 556.152344 601.183594 603.265625 641.429688 611.476562 C 647.265625 612.589844 653.332031 612.082031 659.039062 610.535156 C 707.503906 594.285156 729.191406 536.886719 722.183594 489.339844 C 720.148438 458.632812 697 425.242188 663.914062 425.664062 Z M 480.25 427.632812 C 453.3125 428.292969 432.328125 455.609375 428.0625 481.292969 C 419.0625 532.171875 442.207031 595.390625 495.214844 611.484375 C 500.179688 612.5625 505.3125 612.675781 510.328125 611.898438 C 546.15625 605.929688 561.332031 565.761719 559.835938 533.332031 C 558.757812 490.558594 536.535156 441.097656 492.117188 429.070312 C 488.054688 427.996094 484.097656 427.539062 480.25 427.636719 Z M 781.285156 572.140625 C 734.6875 574.925781 702.738281 621.421875 698.183594 664.835938 C 692.019531 696.152344 708.710938 738.03125 744.441406 740.53125 C 794.257812 739.917969 828.246094 686.683594 829.65625 640.878906 C 832.808594 610.585938 814.960938 573.8125 781.285156 572.140625 Z M 373.421875 582.457031 C 353.597656 582.285156 334.097656 594.160156 327.621094 614.3125 C 310.335938 668.222656 345.042969 736.5 402.140625 747.828125 C 425.972656 751.90625 446.910156 733.605469 452.816406 711.589844 C 465.339844 664.492188 439.621094 609.808594 396.09375 588.4375 C 389.003906 584.457031 381.179688 582.53125 373.421875 582.464844 Z M 582.324219 679.121094 C 543.457031 679.207031 503.984375 698.929688 478.816406 728.289062 C 451.636719 762.507812 429.371094 802.328125 420.65625 845.511719 C 410.074219 876.597656 434.058594 912.371094 467.289062 912.589844 C 507.265625 913.699219 541.625 886.246094 581.378906 884.207031 C 615.105469 879.066406 645.304688 896.609375 675.625 908.09375 C 701.441406 919.132812 737.117188 914.902344 750.300781 887.117188 C 760.667969 858.796875 745.40625 828.601562 732.765625 803.449219 C 706.980469 762.628906 679.355469 719.726562 637.082031 694.238281 C 620.136719 683.734375 601.304688 679.082031 582.324219 679.121094 Z M 582.324219 679.121094 " fill-opacity="1" fill-rule="nonzero"/></g><g fill="#8b6345" fill-opacity="1"><g transform="translate(1202.60535, 529.50989)"><g><path d="M 73.71875 -142.734375 C 83.9375 -142.734375 92.671875 -140.863281 99.921875 -137.125 C 107.179688 -133.382812 112.664062 -128.144531 116.375 -121.40625 C 120.082031 -114.664062 121.9375 -106.835938 121.9375 -97.921875 C 121.9375 -89.003906 120.082031 -81.191406 116.375 -74.484375 C 112.664062 -67.785156 107.179688 -62.5625 99.921875 -58.8125 C 92.671875 -55.070312 83.9375 -53.203125 73.71875 -53.203125 L 46.765625 -53.203125 L 46.765625 0 L 18.546875 0 L 18.546875 -142.734375 Z M 70 -75.5625 C 85.6875 -75.5625 93.53125 -83.015625 93.53125 -97.921875 C 93.53125 -112.890625 85.6875 -120.375 70 -120.375 L 46.765625 -120.375 L 46.765625 -75.5625 Z M 70 -75.5625 "/></g></g></g><g fill="#8b6345" fill-opacity="1"><g transform="translate(1327.769033, 529.50989)"><g><path d="M 41.984375 2.046875 C 35.085938 2.046875 29.097656 0.78125 24.015625 -1.75 C 18.941406 -4.289062 15.035156 -8.019531 12.296875 -12.9375 C 9.566406 -17.851562 8.203125 -23.757812 8.203125 -30.65625 C 8.203125 -37.03125 9.566406 -42.378906 12.296875 -46.703125 C 15.035156 -51.035156 19.265625 -54.585938 24.984375 -57.359375 C 30.710938 -60.128906 38.203125 -62.257812 47.453125 -63.75 C 53.890625 -64.789062 58.785156 -65.929688 62.140625 -67.171875 C 65.492188 -68.410156 67.753906 -69.8125 68.921875 -71.375 C 70.097656 -72.9375 70.6875 -74.921875 70.6875 -77.328125 C 70.6875 -80.773438 69.484375 -83.410156 67.078125 -85.234375 C 64.671875 -87.054688 60.664062 -87.96875 55.0625 -87.96875 C 49.070312 -87.96875 43.375 -86.632812 37.96875 -83.96875 C 32.570312 -81.300781 27.890625 -77.785156 23.921875 -73.421875 L 21.96875 -73.421875 L 10.640625 -90.5 C 16.109375 -96.5625 22.78125 -101.28125 30.65625 -104.65625 C 38.53125 -108.039062 47.125 -109.734375 56.4375 -109.734375 C 70.6875 -109.734375 81 -106.707031 87.375 -100.65625 C 93.757812 -94.601562 96.953125 -86.015625 96.953125 -74.890625 L 96.953125 -28.125 C 96.953125 -23.300781 99.066406 -20.890625 103.296875 -20.890625 C 104.921875 -20.890625 106.515625 -21.179688 108.078125 -21.765625 L 109.453125 -21.375 L 111.40625 -2.53125 C 109.90625 -1.5625 107.816406 -0.765625 105.140625 -0.140625 C 102.472656 0.472656 99.546875 0.78125 96.359375 0.78125 C 89.921875 0.78125 84.894531 -0.453125 81.28125 -2.921875 C 77.664062 -5.398438 75.078125 -9.273438 73.515625 -14.546875 L 71.46875 -14.75 C 66.195312 -3.550781 56.367188 2.046875 41.984375 2.046875 Z M 50.578125 -18.15625 C 56.828125 -18.15625 61.820312 -20.253906 65.5625 -24.453125 C 69.300781 -28.648438 71.171875 -34.492188 71.171875 -41.984375 L 71.171875 -52.921875 L 69.3125 -53.3125 C 67.6875 -52.007812 65.554688 -50.914062 62.921875 -50.03125 C 60.285156 -49.15625 56.492188 -48.296875 51.546875 -47.453125 C 45.691406 -46.472656 41.476562 -44.796875 38.90625 -42.421875 C 36.332031 -40.046875 35.046875 -36.675781 35.046875 -32.3125 C 35.046875 -27.695312 36.410156 -24.179688 39.140625 -21.765625 C 41.878906 -19.359375 45.691406 -18.15625 50.578125 -18.15625 Z M 50.578125 -18.15625 "/></g></g></g><g fill="#8b6345" fill-opacity="1"><g transform="translate(1440.045346, 529.50989)"><g><path d="M 57.796875 0 L 29.484375 0 L 3.90625 -107.6875 L 29 -107.6875 L 44.8125 -34.859375 L 46.859375 -34.859375 L 67.359375 -107.6875 L 90.796875 -107.6875 L 111.984375 -34.859375 L 114.03125 -34.859375 L 129.265625 -107.6875 L 153.671875 -107.6875 L 128.390625 0 L 99.984375 0 L 79.578125 -73.328125 L 77.515625 -73.328125 Z M 57.796875 0 "/></g></g></g><g fill="#ff6b63" fill-opacity="1"><g transform="translate(1599.288456, 529.50989)"><g><path d="M 74.296875 -25.671875 L 81.328125 -5.65625 C 78.398438 -3.25 74.722656 -1.363281 70.296875 0 C 65.867188 1.363281 60.859375 2.046875 55.265625 2.046875 C 43.609375 2.046875 34.753906 -1.125 28.703125 -7.46875 C 22.648438 -13.8125 19.625 -23.035156 19.625 -35.140625 L 19.625 -86.3125 L 3.21875 -86.3125 L 3.21875 -107.78125 L 19.625 -107.78125 L 19.625 -128.78125 L 46.671875 -133.171875 L 46.671875 -107.78125 L 77.234375 -107.78125 L 77.234375 -86.3125 L 46.671875 -86.3125 L 46.671875 -37.09375 C 46.671875 -31.757812 47.773438 -27.867188 49.984375 -25.421875 C 52.203125 -22.984375 55.425781 -21.765625 59.65625 -21.765625 C 64.46875 -21.765625 68.664062 -23.066406 72.25 -25.671875 Z M 74.296875 -25.671875 "/></g></g><g transform="translate(1682.958717, 529.50989)"><g><path d="M 15.53125 0 L 15.53125 -150.9375 L 42.5625 -150.9375 L 42.5625 -93.625 L 44.625 -93.234375 C 48.195312 -98.503906 52.585938 -102.570312 57.796875 -105.4375 C 63.003906 -108.300781 69.285156 -109.734375 76.640625 -109.734375 C 100.398438 -109.734375 112.28125 -96.257812 112.28125 -69.3125 L 112.28125 0 L 85.234375 0 L 85.234375 -65.90625 C 85.234375 -73.257812 83.769531 -78.59375 80.84375 -81.90625 C 77.914062 -85.226562 73.359375 -86.890625 67.171875 -86.890625 C 59.617188 -86.890625 53.628906 -84.367188 49.203125 -79.328125 C 44.773438 -74.285156 42.5625 -66.425781 42.5625 -55.75 L 42.5625 0 Z M 15.53125 0 "/></g></g><g transform="translate(1809.098714, 529.50989)"><g><path d="M 106.421875 -47.75 L 37.203125 -47.75 C 37.984375 -38.375 40.648438 -31.550781 45.203125 -27.28125 C 49.753906 -23.019531 55.972656 -20.890625 63.859375 -20.890625 C 70.035156 -20.890625 75.039062 -22.046875 78.875 -24.359375 C 82.71875 -26.671875 85.8125 -30.171875 88.15625 -34.859375 L 90.21875 -34.859375 L 108.171875 -23.328125 C 104.660156 -15.785156 99.359375 -9.671875 92.265625 -4.984375 C 85.171875 -0.296875 75.703125 2.046875 63.859375 2.046875 C 52.722656 2.046875 43.101562 -0.0664062 35 -4.296875 C 26.894531 -8.523438 20.644531 -14.820312 16.25 -23.1875 C 11.863281 -31.550781 9.671875 -41.753906 9.671875 -53.796875 C 9.671875 -66.035156 11.976562 -76.351562 16.59375 -84.75 C 21.21875 -93.144531 27.46875 -99.40625 35.34375 -103.53125 C 43.21875 -107.664062 52.070312 -109.734375 61.90625 -109.734375 C 77.132812 -109.734375 88.800781 -105.695312 96.90625 -97.625 C 105.007812 -89.5625 109.0625 -77.71875 109.0625 -62.09375 C 109.0625 -56.425781 108.863281 -52.035156 108.46875 -48.921875 Z M 83.1875 -65.21875 C 82.925781 -73.414062 81.019531 -79.382812 77.46875 -83.125 C 73.925781 -86.875 68.738281 -88.75 61.90625 -88.75 C 48.226562 -88.75 40.1875 -80.90625 37.78125 -65.21875 Z M 83.1875 -65.21875 "/></g></g></g><g fill="#ff6b63" fill-opacity="1"><g transform="translate(1926.15898, 529.50989)"><g><path d="M 15.53125 0 L 15.53125 -107.6875 L 41.5 -107.6875 L 41.5 -91.875 L 43.546875 -91.390625 C 50.242188 -103.617188 61.113281 -109.734375 76.15625 -109.734375 C 88.582031 -109.734375 97.707031 -106.347656 103.53125 -99.578125 C 109.363281 -92.816406 112.28125 -82.957031 112.28125 -70 L 112.28125 0 L 85.234375 0 L 85.234375 -66.6875 C 85.234375 -73.84375 83.800781 -79 80.9375 -82.15625 C 78.070312 -85.3125 73.484375 -86.890625 67.171875 -86.890625 C 59.421875 -86.890625 53.378906 -84.382812 49.046875 -79.375 C 44.722656 -74.363281 42.5625 -66.488281 42.5625 -55.75 L 42.5625 0 Z M 15.53125 0 "/></g></g></g><g fill="#ff6b63" fill-opacity="1"><g transform="translate(2051.517923, 529.50989)"><g><path d="M 74.296875 -25.671875 L 81.328125 -5.65625 C 78.398438 -3.25 74.722656 -1.363281 70.296875 0 C 65.867188 1.363281 60.859375 2.046875 55.265625 2.046875 C 43.609375 2.046875 34.753906 -1.125 28.703125 -7.46875 C 22.648438 -13.8125 19.625 -23.035156 19.625 -35.140625 L 19.625 -86.3125 L 3.21875 -86.3125 L 3.21875 -107.78125 L 19.625 -107.78125 L 19.625 -128.78125 L 46.671875 -133.171875 L 46.671875 -107.78125 L 77.234375 -107.78125 L 77.234375 -86.3125 L 46.671875 -86.3125 L 46.671875 -37.09375 C 46.671875 -31.757812 47.773438 -27.867188 49.984375 -25.421875 C 52.203125 -22.984375 55.425781 -21.765625 59.65625 -21.765625 C 64.46875 -21.765625 68.664062 -23.066406 72.25 -25.671875 Z M 74.296875 -25.671875 "/></g></g><g transform="translate(2135.188183, 529.50989)"><g><path d="M 29 -120.578125 C 24.113281 -120.578125 20.140625 -122.054688 17.078125 -125.015625 C 14.023438 -127.984375 12.5 -131.804688 12.5 -136.484375 C 12.5 -141.109375 14.023438 -144.898438 17.078125 -147.859375 C 20.140625 -150.828125 24.113281 -152.3125 29 -152.3125 C 32.25 -152.3125 35.144531 -151.625 37.6875 -150.25 C 40.226562 -148.882812 42.195312 -147.015625 43.59375 -144.640625 C 44.988281 -142.265625 45.6875 -139.546875 45.6875 -136.484375 C 45.6875 -133.429688 44.988281 -130.695312 43.59375 -128.28125 C 42.195312 -125.875 40.226562 -123.988281 37.6875 -122.625 C 35.144531 -121.257812 32.25 -120.578125 29 -120.578125 Z M 15.53125 0 L 15.53125 -107.6875 L 42.5625 -107.6875 L 42.5625 0 Z M 15.53125 0 "/></g></g></g><g fill="#ff6b63" fill-opacity="1"><g transform="translate(2193.181326, 529.50989)"><g><path d="M 62.78125 2.046875 C 52.363281 2.046875 43.148438 -0.113281 35.140625 -4.4375 C 27.140625 -8.769531 20.894531 -15.132812 16.40625 -23.53125 C 11.914062 -31.925781 9.671875 -42.015625 9.671875 -53.796875 C 9.671875 -65.640625 11.914062 -75.757812 16.40625 -84.15625 C 20.894531 -92.550781 27.109375 -98.910156 35.046875 -103.234375 C 42.992188 -107.566406 52.078125 -109.734375 62.296875 -109.734375 C 85.003906 -109.734375 99.550781 -101.5 105.9375 -85.03125 L 87.375 -71.765625 L 85.328125 -71.765625 C 83.117188 -76.835938 80.238281 -80.609375 76.6875 -83.078125 C 73.144531 -85.554688 68.347656 -86.796875 62.296875 -86.796875 C 54.484375 -86.796875 48.394531 -84.09375 44.03125 -78.6875 C 39.664062 -73.289062 37.484375 -64.992188 37.484375 -53.796875 C 37.484375 -42.734375 39.695312 -34.484375 44.125 -29.046875 C 48.550781 -23.609375 54.769531 -20.890625 62.78125 -20.890625 C 68.632812 -20.890625 73.59375 -22.46875 77.65625 -25.625 C 81.726562 -28.78125 84.644531 -33.320312 86.40625 -39.25 L 88.453125 -39.4375 L 107.6875 -28.90625 C 104.957031 -19.789062 99.894531 -12.351562 92.5 -6.59375 C 85.113281 -0.832031 75.207031 2.046875 62.78125 2.046875 Z M 62.78125 2.046875 "/></g></g></g><g fill="#ff6b63" fill-opacity="1"><g transform="translate(2304.188457, 529.50989)"><g><path d="M 41.984375 2.046875 C 35.085938 2.046875 29.097656 0.78125 24.015625 -1.75 C 18.941406 -4.289062 15.035156 -8.019531 12.296875 -12.9375 C 9.566406 -17.851562 8.203125 -23.757812 8.203125 -30.65625 C 8.203125 -37.03125 9.566406 -42.378906 12.296875 -46.703125 C 15.035156 -51.035156 19.265625 -54.585938 24.984375 -57.359375 C 30.710938 -60.128906 38.203125 -62.257812 47.453125 -63.75 C 53.890625 -64.789062 58.785156 -65.929688 62.140625 -67.171875 C 65.492188 -68.410156 67.753906 -69.8125 68.921875 -71.375 C 70.097656 -72.9375 70.6875 -74.921875 70.6875 -77.328125 C 70.6875 -80.773438 69.484375 -83.410156 67.078125 -85.234375 C 64.671875 -87.054688 60.664062 -87.96875 55.0625 -87.96875 C 49.070312 -87.96875 43.375 -86.632812 37.96875 -83.96875 C 32.570312 -81.300781 27.890625 -77.785156 23.921875 -73.421875 L 21.96875 -73.421875 L 10.640625 -90.5 C 16.109375 -96.5625 22.78125 -101.28125 30.65625 -104.65625 C 38.53125 -108.039062 47.125 -109.734375 56.4375 -109.734375 C 70.6875 -109.734375 81 -106.707031 87.375 -100.65625 C 93.757812 -94.601562 96.953125 -86.015625 96.953125 -74.890625 L 96.953125 -28.125 C 96.953125 -23.300781 99.066406 -20.890625 103.296875 -20.890625 C 104.921875 -20.890625 106.515625 -21.179688 108.078125 -21.765625 L 109.453125 -21.375 L 111.40625 -2.53125 C 109.90625 -1.5625 107.816406 -0.765625 105.140625 -0.140625 C 102.472656 0.472656 99.546875 0.78125 96.359375 0.78125 C 89.921875 0.78125 84.894531 -0.453125 81.28125 -2.921875 C 77.664062 -5.398438 75.078125 -9.273438 73.515625 -14.546875 L 71.46875 -14.75 C 66.195312 -3.550781 56.367188 2.046875 41.984375 2.046875 Z M 50.578125 -18.15625 C 56.828125 -18.15625 61.820312 -20.253906 65.5625 -24.453125 C 69.300781 -28.648438 71.171875 -34.492188 71.171875 -41.984375 L 71.171875 -52.921875 L 69.3125 -53.3125 C 67.6875 -52.007812 65.554688 -50.914062 62.921875 -50.03125 C 60.285156 -49.15625 56.492188 -48.296875 51.546875 -47.453125 C 45.691406 -46.472656 41.476562 -44.796875 38.90625 -42.421875 C 36.332031 -40.046875 35.046875 -36.675781 35.046875 -32.3125 C 35.046875 -27.695312 36.410156 -24.179688 39.140625 -21.765625 C 41.878906 -19.359375 45.691406 -18.15625 50.578125 -18.15625 Z M 50.578125 -18.15625 "/></g></g></g><g fill="#ff6b63" fill-opacity="1"><g transform="translate(2416.46477, 529.50989)"><g><path d="M 74.296875 -25.671875 L 81.328125 -5.65625 C 78.398438 -3.25 74.722656 -1.363281 70.296875 0 C 65.867188 1.363281 60.859375 2.046875 55.265625 2.046875 C 43.609375 2.046875 34.753906 -1.125 28.703125 -7.46875 C 22.648438 -13.8125 19.625 -23.035156 19.625 -35.140625 L 19.625 -86.3125 L 3.21875 -86.3125 L 3.21875 -107.78125 L 19.625 -107.78125 L 19.625 -128.78125 L 46.671875 -133.171875 L 46.671875 -107.78125 L 77.234375 -107.78125 L 77.234375 -86.3125 L 46.671875 -86.3125 L 46.671875 -37.09375 C 46.671875 -31.757812 47.773438 -27.867188 49.984375 -25.421875 C 52.203125 -22.984375 55.425781 -21.765625 59.65625 -21.765625 C 64.46875 -21.765625 68.664062 -23.066406 72.25 -25.671875 Z M 74.296875 -25.671875 "/></g></g></g><g fill="#ff6b63" fill-opacity="1"><g transform="translate(2498.865805, 529.50989)"><g><path d="M 106.421875 -47.75 L 37.203125 -47.75 C 37.984375 -38.375 40.648438 -31.550781 45.203125 -27.28125 C 49.753906 -23.019531 55.972656 -20.890625 63.859375 -20.890625 C 70.035156 -20.890625 75.039062 -22.046875 78.875 -24.359375 C 82.71875 -26.671875 85.8125 -30.171875 88.15625 -34.859375 L 90.21875 -34.859375 L 108.171875 -23.328125 C 104.660156 -15.785156 99.359375 -9.671875 92.265625 -4.984375 C 85.171875 -0.296875 75.703125 2.046875 63.859375 2.046875 C 52.722656 2.046875 43.101562 -0.0664062 35 -4.296875 C 26.894531 -8.523438 20.644531 -14.820312 16.25 -23.1875 C 11.863281 -31.550781 9.671875 -41.753906 9.671875 -53.796875 C 9.671875 -66.035156 11.976562 -76.351562 16.59375 -84.75 C 21.21875 -93.144531 27.46875 -99.40625 35.34375 -103.53125 C 43.21875 -107.664062 52.070312 -109.734375 61.90625 -109.734375 C 77.132812 -109.734375 88.800781 -105.695312 96.90625 -97.625 C 105.007812 -89.5625 109.0625 -77.71875 109.0625 -62.09375 C 109.0625 -56.425781 108.863281 -52.035156 108.46875 -48.921875 Z M 83.1875 -65.21875 C 82.925781 -73.414062 81.019531 -79.382812 77.46875 -83.125 C 73.925781 -86.875 68.738281 -88.75 61.90625 -88.75 C 48.226562 -88.75 40.1875 -80.90625 37.78125 -65.21875 Z M 83.1875 -65.21875 "/></g></g></g><g fill="#8b6345" fill-opacity="1"><g transform="translate(1202.617067, 650.732249)"><g><path d="M 20.9375 0 L 11.984375 0 L 10.625 -57.09375 L 17.265625 -57.09375 L 17.96875 -9.875 L 18.9375 -9.875 L 41.515625 -57.09375 L 47.71875 -57.09375 L 50.765625 -9.875 L 51.75 -9.875 L 72.21875 -57.09375 L 79.015625 -57.09375 L 54.40625 0 L 45.421875 0 L 42.453125 -43.234375 L 41.625 -43.234375 Z M 20.9375 0 "/></g></g></g><g fill="#8b6345" fill-opacity="1"><g transform="translate(1277.163122, 650.732249)"><g><path d="M 2.921875 0 L 15.734375 -60.375 L 22.109375 -60.375 L 17.140625 -36.953125 L 17.921875 -36.796875 C 19.691406 -39.078125 21.726562 -40.828125 24.03125 -42.046875 C 26.34375 -43.273438 28.992188 -43.890625 31.984375 -43.890625 C 36.179688 -43.890625 39.332031 -42.851562 41.4375 -40.78125 C 43.539062 -38.71875 44.59375 -35.890625 44.59375 -32.296875 C 44.59375 -30.785156 44.425781 -29.265625 44.09375 -27.734375 L 38.203125 0 L 31.828125 0 L 37.6875 -27.578125 C 37.976562 -28.929688 38.125 -30.113281 38.125 -31.125 C 38.125 -33.5 37.453125 -35.296875 36.109375 -36.515625 C 34.765625 -37.742188 32.753906 -38.359375 30.078125 -38.359375 C 26.296875 -38.359375 22.96875 -37.054688 20.09375 -34.453125 C 17.21875 -31.847656 15.179688 -27.734375 13.984375 -22.109375 L 9.296875 0 Z M 2.921875 0 "/></g></g></g><g fill="#8b6345" fill-opacity="1"><g transform="translate(1326.756359, 650.732249)"><g><path d="M 41.984375 -30.234375 C 41.253906 -26.429688 39.128906 -23.363281 35.609375 -21.03125 C 32.097656 -18.695312 27.085938 -17.53125 20.578125 -17.53125 C 17.503906 -17.53125 14.273438 -17.789062 10.890625 -18.3125 C 10.785156 -17.507812 10.734375 -16.640625 10.734375 -15.703125 C 10.734375 -12.179688 11.628906 -9.492188 13.421875 -7.640625 C 15.222656 -5.796875 17.832031 -4.875 21.25 -4.875 C 24.269531 -4.875 26.785156 -5.441406 28.796875 -6.578125 C 30.816406 -7.710938 32.625 -9.476562 34.21875 -11.875 L 35.03125 -11.875 L 38.984375 -9.21875 C 37.128906 -5.882812 34.664062 -3.378906 31.59375 -1.703125 C 28.519531 -0.0234375 24.664062 0.8125 20.03125 0.8125 C 16.90625 0.8125 14.15625 0.0976562 11.78125 -1.328125 C 9.414062 -2.753906 7.585938 -4.789062 6.296875 -7.4375 C 5.015625 -10.082031 4.375 -13.160156 4.375 -16.671875 C 4.375 -18.835938 4.617188 -21.066406 5.109375 -23.359375 C 6.046875 -27.734375 7.601562 -31.460938 9.78125 -34.546875 C 11.957031 -37.628906 14.609375 -39.957031 17.734375 -41.53125 C 20.859375 -43.101562 24.304688 -43.890625 28.078125 -43.890625 C 31.179688 -43.890625 33.789062 -43.367188 35.90625 -42.328125 C 38.03125 -41.285156 39.613281 -39.898438 40.65625 -38.171875 C 41.695312 -36.441406 42.21875 -34.5625 42.21875 -32.53125 C 42.21875 -31.78125 42.140625 -31.015625 41.984375 -30.234375 Z M 26.953125 -38.515625 C 23.148438 -38.515625 20.023438 -37.34375 17.578125 -35 C 15.128906 -32.65625 13.238281 -28.890625 11.90625 -23.703125 C 14.957031 -23.390625 17.664062 -23.234375 20.03125 -23.234375 C 25.132812 -23.234375 28.921875 -23.890625 31.390625 -25.203125 C 33.867188 -26.523438 35.332031 -28.410156 35.78125 -30.859375 C 35.851562 -31.328125 35.890625 -31.78125 35.890625 -32.21875 C 35.890625 -34.125 35.101562 -35.648438 33.53125 -36.796875 C 31.957031 -37.941406 29.765625 -38.515625 26.953125 -38.515625 Z M 26.953125 -38.515625 "/></g></g></g><g fill="#8b6345" fill-opacity="1"><g transform="translate(1372.678916, 650.732249)"><g><path d="M 2.921875 0 L 12.0625 -43.078125 L 18.125 -43.078125 L 16.671875 -36.328125 L 17.453125 -36.125 C 19.046875 -38.726562 20.847656 -40.601562 22.859375 -41.75 C 24.878906 -42.894531 27.375 -43.46875 30.34375 -43.46875 C 31.851562 -43.46875 33.101562 -43.335938 34.09375 -43.078125 C 35.082031 -42.816406 35.929688 -42.410156 36.640625 -41.859375 L 34.015625 -36.28125 L 33.203125 -36.125 C 31.765625 -37.0625 30.019531 -37.53125 27.96875 -37.53125 C 20.851562 -37.53125 16.125 -32.0625 13.78125 -21.125 L 9.296875 0 Z M 2.921875 0 "/></g></g></g><g fill="#8b6345" fill-opacity="1"><g transform="translate(1404.816873, 650.732249)"><g><path d="M 41.984375 -30.234375 C 41.253906 -26.429688 39.128906 -23.363281 35.609375 -21.03125 C 32.097656 -18.695312 27.085938 -17.53125 20.578125 -17.53125 C 17.503906 -17.53125 14.273438 -17.789062 10.890625 -18.3125 C 10.785156 -17.507812 10.734375 -16.640625 10.734375 -15.703125 C 10.734375 -12.179688 11.628906 -9.492188 13.421875 -7.640625 C 15.222656 -5.796875 17.832031 -4.875 21.25 -4.875 C 24.269531 -4.875 26.785156 -5.441406 28.796875 -6.578125 C 30.816406 -7.710938 32.625 -9.476562 34.21875 -11.875 L 35.03125 -11.875 L 38.984375 -9.21875 C 37.128906 -5.882812 34.664062 -3.378906 31.59375 -1.703125 C 28.519531 -0.0234375 24.664062 0.8125 20.03125 0.8125 C 16.90625 0.8125 14.15625 0.0976562 11.78125 -1.328125 C 9.414062 -2.753906 7.585938 -4.789062 6.296875 -7.4375 C 5.015625 -10.082031 4.375 -13.160156 4.375 -16.671875 C 4.375 -18.835938 4.617188 -21.066406 5.109375 -23.359375 C 6.046875 -27.734375 7.601562 -31.460938 9.78125 -34.546875 C 11.957031 -37.628906 14.609375 -39.957031 17.734375 -41.53125 C 20.859375 -43.101562 24.304688 -43.890625 28.078125 -43.890625 C 31.179688 -43.890625 33.789062 -43.367188 35.90625 -42.328125 C 38.03125 -41.285156 39.613281 -39.898438 40.65625 -38.171875 C 41.695312 -36.441406 42.21875 -34.5625 42.21875 -32.53125 C 42.21875 -31.78125 42.140625 -31.015625 41.984375 -30.234375 Z M 26.953125 -38.515625 C 23.148438 -38.515625 20.023438 -37.34375 17.578125 -35 C 15.128906 -32.65625 13.238281 -28.890625 11.90625 -23.703125 C 14.957031 -23.390625 17.664062 -23.234375 20.03125 -23.234375 C 25.132812 -23.234375 28.921875 -23.890625 31.390625 -25.203125 C 33.867188 -26.523438 35.332031 -28.410156 35.78125 -30.859375 C 35.851562 -31.328125 35.890625 -31.78125 35.890625 -32.21875 C 35.890625 -34.125 35.101562 -35.648438 33.53125 -36.796875 C 31.957031 -37.941406 29.765625 -38.515625 26.953125 -38.515625 Z M 26.953125 -38.515625 "/></g></g></g><g fill="#8b6345" fill-opacity="1"><g transform="translate(1450.73943, 650.732249)"><g/></g></g><g fill="#8b6345" fill-opacity="1"><g transform="translate(1470.342403, 650.732249)"><g><path d="M 0.15625 18.28125 C -1.21875 18.28125 -2.507812 18.125 -3.71875 17.8125 C -4.9375 17.5 -5.988281 17.09375 -6.875 16.59375 L -4.640625 11.5625 L -3.90625 11.328125 C -3.382812 11.710938 -2.660156 12.039062 -1.734375 12.3125 C -0.804688 12.59375 0.132812 12.734375 1.09375 12.734375 C 2.832031 12.734375 4.304688 12.5 5.515625 12.03125 C 6.734375 11.5625 7.851562 10.789062 8.875 9.71875 C 9.90625 8.65625 10.992188 7.160156 12.140625 5.234375 L 14.6875 1.015625 L 6.671875 -43.078125 L 13.203125 -43.078125 L 19.296875 -7.921875 L 20.03125 -7.921875 L 40.296875 -43.078125 L 47.5625 -43.078125 L 17.96875 6.953125 C 16.300781 9.785156 14.640625 12.015625 12.984375 13.640625 C 11.328125 15.273438 9.484375 16.457031 7.453125 17.1875 C 5.421875 17.914062 2.988281 18.28125 0.15625 18.28125 Z M 0.15625 18.28125 "/></g></g></g><g fill="#8b6345" fill-opacity="1"><g transform="translate(1514.937244, 650.732249)"><g><path d="M 20.34375 0.8125 C 17.007812 0.8125 14.117188 0.171875 11.671875 -1.109375 C 9.222656 -2.398438 7.332031 -4.253906 6 -6.671875 C 4.675781 -9.097656 4.015625 -11.988281 4.015625 -15.34375 C 4.015625 -17.269531 4.25 -19.328125 4.71875 -21.515625 C 6.257812 -28.804688 9.101562 -34.359375 13.25 -38.171875 C 17.40625 -41.984375 22.6875 -43.890625 29.09375 -43.890625 C 32.425781 -43.890625 35.320312 -43.242188 37.78125 -41.953125 C 40.238281 -40.671875 42.125 -38.8125 43.4375 -36.375 C 44.757812 -33.945312 45.421875 -31.050781 45.421875 -27.6875 C 45.421875 -25.757812 45.1875 -23.703125 44.71875 -21.515625 C 43.175781 -14.253906 40.328125 -8.71875 36.171875 -4.90625 C 32.023438 -1.09375 26.75 0.8125 20.34375 0.8125 Z M 21.171875 -4.875 C 25.460938 -4.875 29.039062 -6.226562 31.90625 -8.9375 C 34.769531 -11.644531 36.800781 -15.835938 38 -21.515625 C 38.445312 -23.679688 38.671875 -25.570312 38.671875 -27.1875 C 38.671875 -30.851562 37.734375 -33.601562 35.859375 -35.4375 C 33.984375 -37.28125 31.457031 -38.203125 28.28125 -38.203125 C 23.976562 -38.203125 20.390625 -36.835938 17.515625 -34.109375 C 14.640625 -31.390625 12.601562 -27.191406 11.40625 -21.515625 C 10.957031 -19.378906 10.734375 -17.503906 10.734375 -15.890625 C 10.734375 -12.222656 11.675781 -9.46875 13.5625 -7.625 C 15.457031 -5.789062 17.992188 -4.875 21.171875 -4.875 Z M 21.171875 -4.875 "/></g></g></g><g fill="#8b6345" fill-opacity="1"><g transform="translate(1564.374282, 650.732249)"><g><path d="M 16.984375 0.8125 C 14.484375 0.8125 12.332031 0.3125 10.53125 -0.6875 C 8.738281 -1.6875 7.378906 -3.085938 6.453125 -4.890625 C 5.535156 -6.703125 5.078125 -8.804688 5.078125 -11.203125 C 5.078125 -12.554688 5.234375 -13.988281 5.546875 -15.5 L 11.40625 -43.078125 L 17.765625 -43.078125 L 11.71875 -14.53125 C 11.53125 -13.695312 11.4375 -12.835938 11.4375 -11.953125 C 11.4375 -9.734375 12.109375 -7.972656 13.453125 -6.671875 C 14.796875 -5.367188 16.648438 -4.71875 19.015625 -4.71875 C 22.898438 -4.71875 26.222656 -5.988281 28.984375 -8.53125 C 31.742188 -11.070312 33.734375 -15.21875 34.953125 -20.96875 L 39.640625 -43.078125 L 46 -43.078125 L 36.875 0 L 30.859375 0 L 32.296875 -6.75 L 31.515625 -6.953125 C 29.742188 -4.265625 27.742188 -2.296875 25.515625 -1.046875 C 23.296875 0.191406 20.453125 0.8125 16.984375 0.8125 Z M 16.984375 0.8125 "/></g></g></g><g fill="#8b6345" fill-opacity="1"><g transform="translate(1613.303684, 650.732249)"><g><path d="M 2.921875 0 L 12.0625 -43.078125 L 18.125 -43.078125 L 16.671875 -36.328125 L 17.453125 -36.125 C 19.046875 -38.726562 20.847656 -40.601562 22.859375 -41.75 C 24.878906 -42.894531 27.375 -43.46875 30.34375 -43.46875 C 31.851562 -43.46875 33.101562 -43.335938 34.09375 -43.078125 C 35.082031 -42.816406 35.929688 -42.410156 36.640625 -41.859375 L 34.015625 -36.28125 L 33.203125 -36.125 C 31.765625 -37.0625 30.019531 -37.53125 27.96875 -37.53125 C 20.851562 -37.53125 16.125 -32.0625 13.78125 -21.125 L 9.296875 0 Z M 2.921875 0 "/></g></g></g><g fill="#8b6345" fill-opacity="1"><g transform="translate(1646.574108, 650.732249)"><g/></g></g><g fill="#8b6345" fill-opacity="1"><g transform="translate(1666.177082, 650.732249)"><g><path d="M -0.78125 17.421875 L 12.0625 -43.078125 L 18.4375 -43.078125 L 17.109375 -36.796875 L 17.890625 -36.640625 C 19.296875 -38.722656 21.328125 -40.453125 23.984375 -41.828125 C 26.640625 -43.203125 29.660156 -43.890625 33.046875 -43.890625 C 35.773438 -43.890625 38.207031 -43.273438 40.34375 -42.046875 C 42.476562 -40.828125 44.15625 -38.992188 45.375 -36.546875 C 46.601562 -34.109375 47.21875 -31.144531 47.21875 -27.65625 C 47.21875 -25.3125 46.929688 -22.796875 46.359375 -20.109375 C 45.390625 -15.578125 43.835938 -11.75 41.703125 -8.625 C 39.578125 -5.5 36.96875 -3.144531 33.875 -1.5625 C 30.789062 0.0195312 27.347656 0.8125 23.546875 0.8125 C 20.765625 0.8125 18.269531 0.242188 16.0625 -0.890625 C 13.863281 -2.035156 12.3125 -3.726562 11.40625 -5.96875 L 10.546875 -5.8125 L 5.578125 17.421875 Z M 23.515625 -4.875 C 32.128906 -4.875 37.625 -10.4375 40 -21.5625 C 40.488281 -23.851562 40.734375 -25.910156 40.734375 -27.734375 C 40.734375 -31.328125 39.847656 -33.96875 38.078125 -35.65625 C 36.304688 -37.351562 33.820312 -38.203125 30.625 -38.203125 C 28.019531 -38.203125 25.601562 -37.628906 23.375 -36.484375 C 21.144531 -35.335938 19.21875 -33.578125 17.59375 -31.203125 C 15.96875 -28.835938 14.773438 -25.882812 14.015625 -22.34375 C 13.523438 -19.945312 13.28125 -17.785156 13.28125 -15.859375 C 13.28125 -12.109375 14.179688 -9.335938 15.984375 -7.546875 C 17.796875 -5.765625 20.304688 -4.875 23.515625 -4.875 Z M 23.515625 -4.875 "/></g></g></g><g fill="#8b6345" fill-opacity="1"><g transform="translate(1717.566609, 650.732249)"><g><path d="M 41.984375 -30.234375 C 41.253906 -26.429688 39.128906 -23.363281 35.609375 -21.03125 C 32.097656 -18.695312 27.085938 -17.53125 20.578125 -17.53125 C 17.503906 -17.53125 14.273438 -17.789062 10.890625 -18.3125 C 10.785156 -17.507812 10.734375 -16.640625 10.734375 -15.703125 C 10.734375 -12.179688 11.628906 -9.492188 13.421875 -7.640625 C 15.222656 -5.796875 17.832031 -4.875 21.25 -4.875 C 24.269531 -4.875 26.785156 -5.441406 28.796875 -6.578125 C 30.816406 -7.710938 32.625 -9.476562 34.21875 -11.875 L 35.03125 -11.875 L 38.984375 -9.21875 C 37.128906 -5.882812 34.664062 -3.378906 31.59375 -1.703125 C 28.519531 -0.0234375 24.664062 0.8125 20.03125 0.8125 C 16.90625 0.8125 14.15625 0.0976562 11.78125 -1.328125 C 9.414062 -2.753906 7.585938 -4.789062 6.296875 -7.4375 C 5.015625 -10.082031 4.375 -13.160156 4.375 -16.671875 C 4.375 -18.835938 4.617188 -21.066406 5.109375 -23.359375 C 6.046875 -27.734375 7.601562 -31.460938 9.78125 -34.546875 C 11.957031 -37.628906 14.609375 -39.957031 17.734375 -41.53125 C 20.859375 -43.101562 24.304688 -43.890625 28.078125 -43.890625 C 31.179688 -43.890625 33.789062 -43.367188 35.90625 -42.328125 C 38.03125 -41.285156 39.613281 -39.898438 40.65625 -38.171875 C 41.695312 -36.441406 42.21875 -34.5625 42.21875 -32.53125 C 42.21875 -31.78125 42.140625 -31.015625 41.984375 -30.234375 Z M 26.953125 -38.515625 C 23.148438 -38.515625 20.023438 -37.34375 17.578125 -35 C 15.128906 -32.65625 13.238281 -28.890625 11.90625 -23.703125 C 14.957031 -23.390625 17.664062 -23.234375 20.03125 -23.234375 C 25.132812 -23.234375 28.921875 -23.890625 31.390625 -25.203125 C 33.867188 -26.523438 35.332031 -28.410156 35.78125 -30.859375 C 35.851562 -31.328125 35.890625 -31.78125 35.890625 -32.21875 C 35.890625 -34.125 35.101562 -35.648438 33.53125 -36.796875 C 31.957031 -37.941406 29.765625 -38.515625 26.953125 -38.515625 Z M 26.953125 -38.515625 "/></g></g></g><g fill="#8b6345" fill-opacity="1"><g transform="translate(1763.489166, 650.732249)"><g><path d="M 19.296875 -37.890625 L 13.859375 -12.296875 C 13.679688 -11.410156 13.59375 -10.578125 13.59375 -9.796875 C 13.59375 -8.109375 14.046875 -6.863281 14.953125 -6.0625 C 15.867188 -5.269531 17.132812 -4.875 18.75 -4.875 C 21.0625 -4.875 23.144531 -5.523438 25 -6.828125 L 25.8125 -6.828125 L 27.109375 -2.265625 C 24.679688 -0.210938 21.410156 0.8125 17.296875 0.8125 C 14.148438 0.8125 11.671875 -0.0390625 9.859375 -1.75 C 8.046875 -3.46875 7.140625 -5.835938 7.140625 -8.859375 C 7.140625 -10.035156 7.269531 -11.234375 7.53125 -12.453125 L 12.921875 -37.890625 L 5.421875 -37.890625 L 6.5625 -43.109375 L 14.0625 -43.109375 L 15.96875 -52.21875 L 22.578125 -53.265625 L 20.421875 -43.109375 L 34.296875 -43.109375 L 33.15625 -37.890625 Z M 19.296875 -37.890625 "/></g></g></g><g fill="#8b6345" fill-opacity="1"><g transform="translate(1798.751232, 650.732249)"><g><path d="M 6.4375 -40.6875 C 9.195312 -42.070312 11.492188 -43.570312 13.328125 -45.1875 C 15.171875 -46.800781 16.328125 -48.519531 16.796875 -50.34375 C 15.617188 -50.34375 14.648438 -50.707031 13.890625 -51.4375 C 13.140625 -52.164062 12.765625 -53.085938 12.765625 -54.203125 C 12.765625 -54.546875 12.804688 -54.910156 12.890625 -55.296875 C 13.148438 -56.546875 13.726562 -57.566406 14.625 -58.359375 C 15.519531 -59.160156 16.695312 -59.5625 18.15625 -59.5625 C 19.382812 -59.5625 20.375 -59.15625 21.125 -58.34375 C 21.882812 -57.539062 22.265625 -56.316406 22.265625 -54.671875 C 22.265625 -53.835938 22.144531 -52.875 21.90625 -51.78125 C 21.226562 -48.550781 19.710938 -45.625 17.359375 -43 C 15.003906 -40.375 11.960938 -38.109375 8.234375 -36.203125 Z M 6.4375 -40.6875 "/></g></g></g><g fill="#8b6345" fill-opacity="1"><g transform="translate(1817.495087, 650.732249)"><g><path d="M 14.875 0.8125 C 12.425781 0.8125 10.171875 0.457031 8.109375 -0.25 C 6.054688 -0.96875 4.328125 -1.953125 2.921875 -3.203125 C 1.515625 -4.453125 0.515625 -5.859375 -0.078125 -7.421875 L 4.484375 -11.328125 L 5.3125 -11.328125 C 6.269531 -9.191406 7.617188 -7.582031 9.359375 -6.5 C 11.109375 -5.414062 13.351562 -4.875 16.09375 -4.875 C 19.269531 -4.875 21.820312 -5.492188 23.75 -6.734375 C 25.675781 -7.972656 26.875 -9.695312 27.34375 -11.90625 C 27.445312 -12.351562 27.5 -12.863281 27.5 -13.4375 C 27.5 -16.039062 25.78125 -17.785156 22.34375 -18.671875 L 15.5 -20.390625 C 12.820312 -21.066406 10.691406 -22.289062 9.109375 -24.0625 C 7.535156 -25.832031 6.75 -27.992188 6.75 -30.546875 C 6.75 -31.453125 6.84375 -32.320312 7.03125 -33.15625 C 7.46875 -35.289062 8.414062 -37.15625 9.875 -38.75 C 11.332031 -40.351562 13.28125 -41.609375 15.71875 -42.515625 C 18.15625 -43.429688 21.023438 -43.890625 24.328125 -43.890625 C 27.765625 -43.890625 30.476562 -43.347656 32.46875 -42.265625 C 34.46875 -41.191406 36.195312 -39.640625 37.65625 -37.609375 L 33.3125 -34.09375 L 32.53125 -34.09375 C 31.519531 -35.6875 30.269531 -36.832031 28.78125 -37.53125 C 27.300781 -38.238281 25.441406 -38.59375 23.203125 -38.59375 C 20.359375 -38.59375 18.070312 -38.082031 16.34375 -37.0625 C 14.613281 -36.050781 13.539062 -34.582031 13.125 -32.65625 C 13.019531 -32.207031 12.96875 -31.722656 12.96875 -31.203125 C 12.96875 -29.929688 13.4375 -28.863281 14.375 -28 C 15.3125 -27.144531 16.804688 -26.429688 18.859375 -25.859375 L 24.71875 -24.296875 C 27.6875 -23.484375 29.957031 -22.203125 31.53125 -20.453125 C 33.113281 -18.710938 33.90625 -16.609375 33.90625 -14.140625 C 33.90625 -13.328125 33.800781 -12.398438 33.59375 -11.359375 C 32.8125 -7.691406 30.875 -4.742188 27.78125 -2.515625 C 24.695312 -0.296875 20.394531 0.8125 14.875 0.8125 Z M 14.875 0.8125 "/></g></g></g><g fill="#8b6345" fill-opacity="1"><g transform="translate(1857.32583, 650.732249)"><g/></g></g><g fill="#8b6345" fill-opacity="1"><g transform="translate(1876.92885, 650.732249)"><g><path d="M 14.875 0.8125 C 12.425781 0.8125 10.171875 0.457031 8.109375 -0.25 C 6.054688 -0.96875 4.328125 -1.953125 2.921875 -3.203125 C 1.515625 -4.453125 0.515625 -5.859375 -0.078125 -7.421875 L 4.484375 -11.328125 L 5.3125 -11.328125 C 6.269531 -9.191406 7.617188 -7.582031 9.359375 -6.5 C 11.109375 -5.414062 13.351562 -4.875 16.09375 -4.875 C 19.269531 -4.875 21.820312 -5.492188 23.75 -6.734375 C 25.675781 -7.972656 26.875 -9.695312 27.34375 -11.90625 C 27.445312 -12.351562 27.5 -12.863281 27.5 -13.4375 C 27.5 -16.039062 25.78125 -17.785156 22.34375 -18.671875 L 15.5 -20.390625 C 12.820312 -21.066406 10.691406 -22.289062 9.109375 -24.0625 C 7.535156 -25.832031 6.75 -27.992188 6.75 -30.546875 C 6.75 -31.453125 6.84375 -32.320312 7.03125 -33.15625 C 7.46875 -35.289062 8.414062 -37.15625 9.875 -38.75 C 11.332031 -40.351562 13.28125 -41.609375 15.71875 -42.515625 C 18.15625 -43.429688 21.023438 -43.890625 24.328125 -43.890625 C 27.765625 -43.890625 30.476562 -43.347656 32.46875 -42.265625 C 34.46875 -41.191406 36.195312 -39.640625 37.65625 -37.609375 L 33.3125 -34.09375 L 32.53125 -34.09375 C 31.519531 -35.6875 30.269531 -36.832031 28.78125 -37.53125 C 27.300781 -38.238281 25.441406 -38.59375 23.203125 -38.59375 C 20.359375 -38.59375 18.070312 -38.082031 16.34375 -37.0625 C 14.613281 -36.050781 13.539062 -34.582031 13.125 -32.65625 C 13.019531 -32.207031 12.96875 -31.722656 12.96875 -31.203125 C 12.96875 -29.929688 13.4375 -28.863281 14.375 -28 C 15.3125 -27.144531 16.804688 -26.429688 18.859375 -25.859375 L 24.71875 -24.296875 C 27.6875 -23.484375 29.957031 -22.203125 31.53125 -20.453125 C 33.113281 -18.710938 33.90625 -16.609375 33.90625 -14.140625 C 33.90625 -13.328125 33.800781 -12.398438 33.59375 -11.359375 C 32.8125 -7.691406 30.875 -4.742188 27.78125 -2.515625 C 24.695312 -0.296875 20.394531 0.8125 14.875 0.8125 Z M 14.875 0.8125 "/></g></g></g><g fill="#8b6345" fill-opacity="1"><g transform="translate(1916.759638, 650.732249)"><g><path d="M 19.296875 -37.890625 L 13.859375 -12.296875 C 13.679688 -11.410156 13.59375 -10.578125 13.59375 -9.796875 C 13.59375 -8.109375 14.046875 -6.863281 14.953125 -6.0625 C 15.867188 -5.269531 17.132812 -4.875 18.75 -4.875 C 21.0625 -4.875 23.144531 -5.523438 25 -6.828125 L 25.8125 -6.828125 L 27.109375 -2.265625 C 24.679688 -0.210938 21.410156 0.8125 17.296875 0.8125 C 14.148438 0.8125 11.671875 -0.0390625 9.859375 -1.75 C 8.046875 -3.46875 7.140625 -5.835938 7.140625 -8.859375 C 7.140625 -10.035156 7.269531 -11.234375 7.53125 -12.453125 L 12.921875 -37.890625 L 5.421875 -37.890625 L 6.5625 -43.109375 L 14.0625 -43.109375 L 15.96875 -52.21875 L 22.578125 -53.265625 L 20.421875 -43.109375 L 34.296875 -43.109375 L 33.15625 -37.890625 Z M 19.296875 -37.890625 "/></g></g></g><g fill="#8b6345" fill-opacity="1"><g transform="translate(1949.053783, 650.732249)"><g><path d="M 20.34375 0.8125 C 17.007812 0.8125 14.117188 0.171875 11.671875 -1.109375 C 9.222656 -2.398438 7.332031 -4.253906 6 -6.671875 C 4.675781 -9.097656 4.015625 -11.988281 4.015625 -15.34375 C 4.015625 -17.269531 4.25 -19.328125 4.71875 -21.515625 C 6.257812 -28.804688 9.101562 -34.359375 13.25 -38.171875 C 17.40625 -41.984375 22.6875 -43.890625 29.09375 -43.890625 C 32.425781 -43.890625 35.320312 -43.242188 37.78125 -41.953125 C 40.238281 -40.671875 42.125 -38.8125 43.4375 -36.375 C 44.757812 -33.945312 45.421875 -31.050781 45.421875 -27.6875 C 45.421875 -25.757812 45.1875 -23.703125 44.71875 -21.515625 C 43.175781 -14.253906 40.328125 -8.71875 36.171875 -4.90625 C 32.023438 -1.09375 26.75 0.8125 20.34375 0.8125 Z M 21.171875 -4.875 C 25.460938 -4.875 29.039062 -6.226562 31.90625 -8.9375 C 34.769531 -11.644531 36.800781 -15.835938 38 -21.515625 C 38.445312 -23.679688 38.671875 -25.570312 38.671875 -27.1875 C 38.671875 -30.851562 37.734375 -33.601562 35.859375 -35.4375 C 33.984375 -37.28125 31.457031 -38.203125 28.28125 -38.203125 C 23.976562 -38.203125 20.390625 -36.835938 17.515625 -34.109375 C 14.640625 -31.390625 12.601562 -27.191406 11.40625 -21.515625 C 10.957031 -19.378906 10.734375 -17.503906 10.734375 -15.890625 C 10.734375 -12.222656 11.675781 -9.46875 13.5625 -7.625 C 15.457031 -5.789062 17.992188 -4.875 21.171875 -4.875 Z M 21.171875 -4.875 "/></g></g></g><g fill="#8b6345" fill-opacity="1"><g transform="translate(1998.490798, 650.732249)"><g><path d="M 2.921875 0 L 12.0625 -43.078125 L 18.125 -43.078125 L 16.671875 -36.328125 L 17.453125 -36.125 C 19.046875 -38.726562 20.847656 -40.601562 22.859375 -41.75 C 24.878906 -42.894531 27.375 -43.46875 30.34375 -43.46875 C 31.851562 -43.46875 33.101562 -43.335938 34.09375 -43.078125 C 35.082031 -42.816406 35.929688 -42.410156 36.640625 -41.859375 L 34.015625 -36.28125 L 33.203125 -36.125 C 31.765625 -37.0625 30.019531 -37.53125 27.96875 -37.53125 C 20.851562 -37.53125 16.125 -32.0625 13.78125 -21.125 L 9.296875 0 Z M 2.921875 0 "/></g></g></g><g fill="#8b6345" fill-opacity="1"><g transform="translate(2031.761268, 650.732249)"><g><path d="M 0.15625 18.28125 C -1.21875 18.28125 -2.507812 18.125 -3.71875 17.8125 C -4.9375 17.5 -5.988281 17.09375 -6.875 16.59375 L -4.640625 11.5625 L -3.90625 11.328125 C -3.382812 11.710938 -2.660156 12.039062 -1.734375 12.3125 C -0.804688 12.59375 0.132812 12.734375 1.09375 12.734375 C 2.832031 12.734375 4.304688 12.5 5.515625 12.03125 C 6.734375 11.5625 7.851562 10.789062 8.875 9.71875 C 9.90625 8.65625 10.992188 7.160156 12.140625 5.234375 L 14.6875 1.015625 L 6.671875 -43.078125 L 13.203125 -43.078125 L 19.296875 -7.921875 L 20.03125 -7.921875 L 40.296875 -43.078125 L 47.5625 -43.078125 L 17.96875 6.953125 C 16.300781 9.785156 14.640625 12.015625 12.984375 13.640625 C 11.328125 15.273438 9.484375 16.457031 7.453125 17.1875 C 5.421875 17.914062 2.988281 18.28125 0.15625 18.28125 Z M 0.15625 18.28125 "/></g></g></g><g fill="#8b6345" fill-opacity="1"><g transform="translate(2077.187443, 650.732249)"><g/></g></g><g fill="#8b6345" fill-opacity="1"><g transform="translate(2096.790439, 650.732249)"><g/></g></g><g fill="#8b6345" fill-opacity="1"><g transform="translate(2116.401173, 650.732249)"><g><path d="M 12.375 0.78125 C 10.007812 0.78125 8.125 0.078125 6.71875 -1.328125 C 5.3125 -2.734375 4.609375 -4.6875 4.609375 -7.1875 C 4.609375 -8.144531 4.722656 -9.171875 4.953125 -10.265625 L 15.625 -60.375 L 21.984375 -60.375 L 11.25 -9.953125 C 11.113281 -9.253906 11.046875 -8.695312 11.046875 -8.28125 C 11.046875 -7.15625 11.34375 -6.304688 11.9375 -5.734375 C 12.539062 -5.160156 13.363281 -4.875 14.40625 -4.875 C 15.132812 -4.875 15.984375 -5.019531 16.953125 -5.3125 L 17.453125 -5.15625 L 17.453125 -0.15625 C 16.253906 0.46875 14.5625 0.78125 12.375 0.78125 Z M 12.375 0.78125 "/></g></g></g><g fill="#8b6345" fill-opacity="1"><g transform="translate(2139.831049, 650.732249)"><g><path d="M 17.96875 -51.390625 C 16.613281 -51.390625 15.507812 -51.8125 14.65625 -52.65625 C 13.8125 -53.507812 13.390625 -54.585938 13.390625 -55.890625 C 13.390625 -57.191406 13.8125 -58.265625 14.65625 -59.109375 C 15.507812 -59.953125 16.613281 -60.375 17.96875 -60.375 C 19.320312 -60.375 20.421875 -59.953125 21.265625 -59.109375 C 22.109375 -58.265625 22.53125 -57.191406 22.53125 -55.890625 C 22.53125 -54.585938 22.109375 -53.507812 21.265625 -52.65625 C 20.421875 -51.8125 19.320312 -51.390625 17.96875 -51.390625 Z M 2.890625 0 L 12.03125 -43.078125 L 18.390625 -43.078125 L 9.25 0 Z M 2.890625 0 "/></g></g></g><g fill="#8b6345" fill-opacity="1"><g transform="translate(2161.191286, 650.732249)"><g><path d="M 22.734375 0 L 14.015625 0 L 6.671875 -43.078125 L 13.125 -43.078125 L 19.09375 -7.265625 L 20 -7.265625 L 41 -43.078125 L 48.15625 -43.078125 Z M 22.734375 0 "/></g></g></g><g fill="#8b6345" fill-opacity="1"><g transform="translate(2206.020414, 650.732249)"><g><path d="M 41.984375 -30.234375 C 41.253906 -26.429688 39.128906 -23.363281 35.609375 -21.03125 C 32.097656 -18.695312 27.085938 -17.53125 20.578125 -17.53125 C 17.503906 -17.53125 14.273438 -17.789062 10.890625 -18.3125 C 10.785156 -17.507812 10.734375 -16.640625 10.734375 -15.703125 C 10.734375 -12.179688 11.628906 -9.492188 13.421875 -7.640625 C 15.222656 -5.796875 17.832031 -4.875 21.25 -4.875 C 24.269531 -4.875 26.785156 -5.441406 28.796875 -6.578125 C 30.816406 -7.710938 32.625 -9.476562 34.21875 -11.875 L 35.03125 -11.875 L 38.984375 -9.21875 C 37.128906 -5.882812 34.664062 -3.378906 31.59375 -1.703125 C 28.519531 -0.0234375 24.664062 0.8125 20.03125 0.8125 C 16.90625 0.8125 14.15625 0.0976562 11.78125 -1.328125 C 9.414062 -2.753906 7.585938 -4.789062 6.296875 -7.4375 C 5.015625 -10.082031 4.375 -13.160156 4.375 -16.671875 C 4.375 -18.835938 4.617188 -21.066406 5.109375 -23.359375 C 6.046875 -27.734375 7.601562 -31.460938 9.78125 -34.546875 C 11.957031 -37.628906 14.609375 -39.957031 17.734375 -41.53125 C 20.859375 -43.101562 24.304688 -43.890625 28.078125 -43.890625 C 31.179688 -43.890625 33.789062 -43.367188 35.90625 -42.328125 C 38.03125 -41.285156 39.613281 -39.898438 40.65625 -38.171875 C 41.695312 -36.441406 42.21875 -34.5625 42.21875 -32.53125 C 42.21875 -31.78125 42.140625 -31.015625 41.984375 -30.234375 Z M 26.953125 -38.515625 C 23.148438 -38.515625 20.023438 -37.34375 17.578125 -35 C 15.128906 -32.65625 13.238281 -28.890625 11.90625 -23.703125 C 14.957031 -23.390625 17.664062 -23.234375 20.03125 -23.234375 C 25.132812 -23.234375 28.921875 -23.890625 31.390625 -25.203125 C 33.867188 -26.523438 35.332031 -28.410156 35.78125 -30.859375 C 35.851562 -31.328125 35.890625 -31.78125 35.890625 -32.21875 C 35.890625 -34.125 35.101562 -35.648438 33.53125 -36.796875 C 31.957031 -37.941406 29.765625 -38.515625 26.953125 -38.515625 Z M 26.953125 -38.515625 "/></g></g></g><g fill="#8b6345" fill-opacity="1"><g transform="translate(2251.942971, 650.732249)"><g><path d="M 14.875 0.8125 C 12.425781 0.8125 10.171875 0.457031 8.109375 -0.25 C 6.054688 -0.96875 4.328125 -1.953125 2.921875 -3.203125 C 1.515625 -4.453125 0.515625 -5.859375 -0.078125 -7.421875 L 4.484375 -11.328125 L 5.3125 -11.328125 C 6.269531 -9.191406 7.617188 -7.582031 9.359375 -6.5 C 11.109375 -5.414062 13.351562 -4.875 16.09375 -4.875 C 19.269531 -4.875 21.820312 -5.492188 23.75 -6.734375 C 25.675781 -7.972656 26.875 -9.695312 27.34375 -11.90625 C 27.445312 -12.351562 27.5 -12.863281 27.5 -13.4375 C 27.5 -16.039062 25.78125 -17.785156 22.34375 -18.671875 L 15.5 -20.390625 C 12.820312 -21.066406 10.691406 -22.289062 9.109375 -24.0625 C 7.535156 -25.832031 6.75 -27.992188 6.75 -30.546875 C 6.75 -31.453125 6.84375 -32.320312 7.03125 -33.15625 C 7.46875 -35.289062 8.414062 -37.15625 9.875 -38.75 C 11.332031 -40.351562 13.28125 -41.609375 15.71875 -42.515625 C 18.15625 -43.429688 21.023438 -43.890625 24.328125 -43.890625 C 27.765625 -43.890625 30.476562 -43.347656 32.46875 -42.265625 C 34.46875 -41.191406 36.195312 -39.640625 37.65625 -37.609375 L 33.3125 -34.09375 L 32.53125 -34.09375 C 31.519531 -35.6875 30.269531 -36.832031 28.78125 -37.53125 C 27.300781 -38.238281 25.441406 -38.59375 23.203125 -38.59375 C 20.359375 -38.59375 18.070312 -38.082031 16.34375 -37.0625 C 14.613281 -36.050781 13.539062 -34.582031 13.125 -32.65625 C 13.019531 -32.207031 12.96875 -31.722656 12.96875 -31.203125 C 12.96875 -29.929688 13.4375 -28.863281 14.375 -28 C 15.3125 -27.144531 16.804688 -26.429688 18.859375 -25.859375 L 24.71875 -24.296875 C 27.6875 -23.484375 29.957031 -22.203125 31.53125 -20.453125 C 33.113281 -18.710938 33.90625 -16.609375 33.90625 -14.140625 C 33.90625 -13.328125 33.800781 -12.398438 33.59375 -11.359375 C 32.8125 -7.691406 30.875 -4.742188 27.78125 -2.515625 C 24.695312 -0.296875 20.394531 0.8125 14.875 0.8125 Z M 14.875 0.8125 "/></g></g></g><g fill="#8b6345" fill-opacity="1"><g transform="translate(2291.773759, 650.732249)"><g><path d="M 15.03125 -18.9375 L 8.515625 -18.9375 L 16.59375 -57.09375 L 23.125 -57.09375 Z M 8.625 0.390625 C 7.144531 0.390625 5.972656 -0.0234375 5.109375 -0.859375 C 4.253906 -1.691406 3.828125 -2.796875 3.828125 -4.171875 C 3.828125 -5.523438 4.253906 -6.640625 5.109375 -7.515625 C 5.972656 -8.390625 7.144531 -8.828125 8.625 -8.828125 C 10.132812 -8.828125 11.316406 -8.410156 12.171875 -7.578125 C 13.035156 -6.742188 13.46875 -5.632812 13.46875 -4.25 C 13.46875 -2.875 13.03125 -1.753906 12.15625 -0.890625 C 11.289062 -0.0351562 10.113281 0.390625 8.625 0.390625 Z M 8.625 0.390625 "/></g></g></g></g></g></svg>