<svg xmlns="http://www.w3.org/2000/svg" xmlns:xlink="http://www.w3.org/1999/xlink" width="3780" zoomAndPan="magnify" viewBox="0 0 2835 1417.499962" height="1890" preserveAspectRatio="xMidYMid meet" version="1.0"><defs><g/><clipPath id="9d7458bd89"><path d="M 0.648438 0.84375 L 2784.867188 0.84375 L 2784.867188 629.421875 L 0.648438 629.421875 Z M 0.648438 0.84375 " clip-rule="nonzero"/></clipPath><clipPath id="16123b9c12"><path d="M 0.703125 25.804688 L 604.277344 25.804688 L 604.277344 629.378906 L 0.703125 629.378906 Z M 0.703125 25.804688 " clip-rule="nonzero"/></clipPath><clipPath id="aada3db9f6"><path d="M 302.492188 25.804688 C 135.816406 25.804688 0.703125 160.917969 0.703125 327.589844 C 0.703125 494.261719 135.816406 629.378906 302.492188 629.378906 C 469.164062 629.378906 604.277344 494.261719 604.277344 327.589844 C 604.277344 160.917969 469.164062 25.804688 302.492188 25.804688 Z M 302.492188 25.804688 " clip-rule="nonzero"/></clipPath><clipPath id="4fdfdf8baa"><path d="M 0.703125 0.804688 L 604.277344 0.804688 L 604.277344 604.378906 L 0.703125 604.378906 Z M 0.703125 0.804688 " clip-rule="nonzero"/></clipPath><clipPath id="4a1934cc75"><path d="M 302.492188 0.804688 C 135.816406 0.804688 0.703125 135.917969 0.703125 302.589844 C 0.703125 469.261719 135.816406 604.378906 302.492188 604.378906 C 469.164062 604.378906 604.277344 469.261719 604.277344 302.589844 C 604.277344 135.917969 469.164062 0.804688 302.492188 0.804688 Z M 302.492188 0.804688 " clip-rule="nonzero"/></clipPath><linearGradient x1="0.000000000000001776" gradientTransform="matrix(2.357708, 0, 0, 2.357708, 0.70386, 0.804683)" y1="128" x2="256" gradientUnits="userSpaceOnUse" y2="128" id="caf3c3766a"><stop stop-opacity="1" stop-color="rgb(100%, 48.629761%, 56.469727%)" offset="0"/><stop stop-opacity="1" stop-color="rgb(100%, 48.783875%, 56.500244%)" offset="0.0078125"/><stop stop-opacity="1" stop-color="rgb(100%, 49.092102%, 56.561279%)" offset="0.015625"/><stop stop-opacity="1" stop-color="rgb(100%, 49.401855%, 56.622314%)" offset="0.0234375"/><stop stop-opacity="1" stop-color="rgb(100%, 49.711609%, 56.68335%)" offset="0.03125"/><stop stop-opacity="1" stop-color="rgb(100%, 50.021362%, 56.744385%)" offset="0.0390625"/><stop stop-opacity="1" stop-color="rgb(100%, 50.331116%, 56.80542%)" offset="0.046875"/><stop stop-opacity="1" stop-color="rgb(100%, 50.639343%, 56.867981%)" offset="0.0546875"/><stop stop-opacity="1" stop-color="rgb(100%, 50.949097%, 56.929016%)" offset="0.0625"/><stop stop-opacity="1" stop-color="rgb(100%, 51.25885%, 56.990051%)" offset="0.0703125"/><stop stop-opacity="1" stop-color="rgb(100%, 51.568604%, 57.051086%)" offset="0.078125"/><stop stop-opacity="1" stop-color="rgb(100%, 51.878357%, 57.112122%)" offset="0.0859375"/><stop stop-opacity="1" stop-color="rgb(100%, 52.186584%, 57.173157%)" offset="0.09375"/><stop stop-opacity="1" stop-color="rgb(100%, 52.496338%, 57.234192%)" offset="0.101563"/><stop stop-opacity="1" stop-color="rgb(100%, 52.806091%, 57.296753%)" offset="0.109375"/><stop stop-opacity="1" stop-color="rgb(100%, 53.115845%, 57.357788%)" offset="0.117188"/><stop stop-opacity="1" stop-color="rgb(100%, 53.425598%, 57.418823%)" offset="0.125"/><stop stop-opacity="1" stop-color="rgb(100%, 53.735352%, 57.479858%)" offset="0.132812"/><stop stop-opacity="1" stop-color="rgb(100%, 54.043579%, 57.540894%)" offset="0.140625"/><stop stop-opacity="1" stop-color="rgb(100%, 54.353333%, 57.601929%)" offset="0.148438"/><stop stop-opacity="1" stop-color="rgb(100%, 54.663086%, 57.662964%)" offset="0.15625"/><stop stop-opacity="1" stop-color="rgb(100%, 54.972839%, 57.723999%)" offset="0.164062"/><stop stop-opacity="1" stop-color="rgb(100%, 55.282593%, 57.78656%)" offset="0.171875"/><stop stop-opacity="1" stop-color="rgb(100%, 55.59082%, 57.847595%)" offset="0.179687"/><stop stop-opacity="1" stop-color="rgb(100%, 55.900574%, 57.90863%)" offset="0.1875"/><stop stop-opacity="1" stop-color="rgb(100%, 56.210327%, 57.969666%)" offset="0.195313"/><stop stop-opacity="1" stop-color="rgb(100%, 56.520081%, 58.030701%)" offset="0.203125"/><stop stop-opacity="1" stop-color="rgb(100%, 56.829834%, 58.091736%)" offset="0.210938"/><stop stop-opacity="1" stop-color="rgb(100%, 57.138062%, 58.152771%)" offset="0.21875"/><stop stop-opacity="1" stop-color="rgb(100%, 57.447815%, 58.215332%)" offset="0.226562"/><stop stop-opacity="1" stop-color="rgb(100%, 57.757568%, 58.276367%)" offset="0.234375"/><stop stop-opacity="1" stop-color="rgb(100%, 58.067322%, 58.337402%)" offset="0.242188"/><stop stop-opacity="1" stop-color="rgb(100%, 58.377075%, 58.398438%)" offset="0.25"/><stop stop-opacity="1" stop-color="rgb(100%, 58.685303%, 58.459473%)" offset="0.257812"/><stop stop-opacity="1" stop-color="rgb(100%, 58.995056%, 58.520508%)" offset="0.265625"/><stop stop-opacity="1" stop-color="rgb(100%, 59.30481%, 58.581543%)" offset="0.273438"/><stop stop-opacity="1" stop-color="rgb(100%, 59.614563%, 58.644104%)" offset="0.28125"/><stop stop-opacity="1" stop-color="rgb(100%, 59.924316%, 58.705139%)" offset="0.289062"/><stop stop-opacity="1" stop-color="rgb(100%, 60.232544%, 58.766174%)" offset="0.296875"/><stop stop-opacity="1" stop-color="rgb(100%, 60.542297%, 58.827209%)" offset="0.304688"/><stop stop-opacity="1" stop-color="rgb(100%, 60.852051%, 58.888245%)" offset="0.3125"/><stop stop-opacity="1" stop-color="rgb(100%, 61.161804%, 58.94928%)" offset="0.320312"/><stop stop-opacity="1" stop-color="rgb(100%, 61.471558%, 59.010315%)" offset="0.328125"/><stop stop-opacity="1" stop-color="rgb(100%, 61.779785%, 59.072876%)" offset="0.335937"/><stop stop-opacity="1" stop-color="rgb(100%, 62.089539%, 59.133911%)" offset="0.34375"/><stop stop-opacity="1" stop-color="rgb(100%, 62.399292%, 59.194946%)" offset="0.351562"/><stop stop-opacity="1" stop-color="rgb(100%, 62.709045%, 59.255981%)" offset="0.359375"/><stop stop-opacity="1" stop-color="rgb(100%, 63.018799%, 59.317017%)" offset="0.367187"/><stop stop-opacity="1" stop-color="rgb(100%, 63.327026%, 59.378052%)" offset="0.375"/><stop stop-opacity="1" stop-color="rgb(100%, 63.63678%, 59.439087%)" offset="0.382813"/><stop stop-opacity="1" stop-color="rgb(100%, 63.946533%, 59.501648%)" offset="0.390625"/><stop stop-opacity="1" stop-color="rgb(100%, 64.256287%, 59.562683%)" offset="0.398438"/><stop stop-opacity="1" stop-color="rgb(100%, 64.56604%, 59.623718%)" offset="0.40625"/><stop stop-opacity="1" stop-color="rgb(100%, 64.874268%, 59.684753%)" offset="0.414063"/><stop stop-opacity="1" stop-color="rgb(100%, 65.184021%, 59.745789%)" offset="0.421875"/><stop stop-opacity="1" stop-color="rgb(100%, 65.493774%, 59.806824%)" offset="0.429688"/><stop stop-opacity="1" stop-color="rgb(100%, 65.803528%, 59.867859%)" offset="0.4375"/><stop stop-opacity="1" stop-color="rgb(100%, 66.113281%, 59.93042%)" offset="0.445312"/><stop stop-opacity="1" stop-color="rgb(100%, 66.421509%, 59.991455%)" offset="0.453125"/><stop stop-opacity="1" stop-color="rgb(100%, 66.731262%, 60.05249%)" offset="0.460938"/><stop stop-opacity="1" stop-color="rgb(100%, 67.041016%, 60.113525%)" offset="0.46875"/><stop stop-opacity="1" stop-color="rgb(100%, 67.350769%, 60.174561%)" offset="0.476562"/><stop stop-opacity="1" stop-color="rgb(100%, 67.660522%, 60.235596%)" offset="0.484375"/><stop stop-opacity="1" stop-color="rgb(100%, 67.96875%, 60.296631%)" offset="0.492188"/><stop stop-opacity="1" stop-color="rgb(100%, 68.278503%, 60.359192%)" offset="0.5"/><stop stop-opacity="1" stop-color="rgb(100%, 68.588257%, 60.420227%)" offset="0.507812"/><stop stop-opacity="1" stop-color="rgb(100%, 68.89801%, 60.481262%)" offset="0.515625"/><stop stop-opacity="1" stop-color="rgb(100%, 69.207764%, 60.542297%)" offset="0.523438"/><stop stop-opacity="1" stop-color="rgb(100%, 69.515991%, 60.603333%)" offset="0.53125"/><stop stop-opacity="1" stop-color="rgb(100%, 69.825745%, 60.664368%)" offset="0.539062"/><stop stop-opacity="1" stop-color="rgb(100%, 70.135498%, 60.725403%)" offset="0.546875"/><stop stop-opacity="1" stop-color="rgb(100%, 70.445251%, 60.787964%)" offset="0.554688"/><stop stop-opacity="1" stop-color="rgb(100%, 70.755005%, 60.848999%)" offset="0.5625"/><stop stop-opacity="1" stop-color="rgb(100%, 71.063232%, 60.910034%)" offset="0.570312"/><stop stop-opacity="1" stop-color="rgb(100%, 71.372986%, 60.971069%)" offset="0.578125"/><stop stop-opacity="1" stop-color="rgb(100%, 71.682739%, 61.032104%)" offset="0.585938"/><stop stop-opacity="1" stop-color="rgb(100%, 71.992493%, 61.09314%)" offset="0.59375"/><stop stop-opacity="1" stop-color="rgb(100%, 72.302246%, 61.154175%)" offset="0.601562"/><stop stop-opacity="1" stop-color="rgb(100%, 72.612%, 61.216736%)" offset="0.609375"/><stop stop-opacity="1" stop-color="rgb(100%, 72.920227%, 61.277771%)" offset="0.617188"/><stop stop-opacity="1" stop-color="rgb(100%, 73.22998%, 61.338806%)" offset="0.625"/><stop stop-opacity="1" stop-color="rgb(100%, 73.539734%, 61.399841%)" offset="0.632812"/><stop stop-opacity="1" stop-color="rgb(100%, 73.849487%, 61.460876%)" offset="0.640625"/><stop stop-opacity="1" stop-color="rgb(100%, 74.159241%, 61.521912%)" offset="0.648437"/><stop stop-opacity="1" stop-color="rgb(100%, 74.467468%, 61.582947%)" offset="0.65625"/><stop stop-opacity="1" stop-color="rgb(100%, 74.777222%, 61.645508%)" offset="0.664062"/><stop stop-opacity="1" stop-color="rgb(100%, 75.086975%, 61.706543%)" offset="0.671875"/><stop stop-opacity="1" stop-color="rgb(100%, 75.396729%, 61.767578%)" offset="0.679687"/><stop stop-opacity="1" stop-color="rgb(100%, 75.706482%, 61.828613%)" offset="0.6875"/><stop stop-opacity="1" stop-color="rgb(100%, 76.014709%, 61.889648%)" offset="0.695312"/><stop stop-opacity="1" stop-color="rgb(100%, 76.324463%, 61.950684%)" offset="0.703125"/><stop stop-opacity="1" stop-color="rgb(100%, 76.634216%, 62.011719%)" offset="0.710937"/><stop stop-opacity="1" stop-color="rgb(100%, 76.94397%, 62.072754%)" offset="0.71875"/><stop stop-opacity="1" stop-color="rgb(100%, 77.253723%, 62.135315%)" offset="0.726562"/><stop stop-opacity="1" stop-color="rgb(100%, 77.561951%, 62.19635%)" offset="0.734375"/><stop stop-opacity="1" stop-color="rgb(100%, 77.871704%, 62.257385%)" offset="0.742187"/><stop stop-opacity="1" stop-color="rgb(100%, 78.181458%, 62.31842%)" offset="0.75"/><stop stop-opacity="1" stop-color="rgb(100%, 78.491211%, 62.379456%)" offset="0.757813"/><stop stop-opacity="1" stop-color="rgb(100%, 78.800964%, 62.440491%)" offset="0.765625"/><stop stop-opacity="1" stop-color="rgb(100%, 79.109192%, 62.501526%)" offset="0.773438"/><stop stop-opacity="1" stop-color="rgb(100%, 79.418945%, 62.564087%)" offset="0.78125"/><stop stop-opacity="1" stop-color="rgb(100%, 79.728699%, 62.625122%)" offset="0.789063"/><stop stop-opacity="1" stop-color="rgb(100%, 80.038452%, 62.686157%)" offset="0.796875"/><stop stop-opacity="1" stop-color="rgb(100%, 80.348206%, 62.747192%)" offset="0.804688"/><stop stop-opacity="1" stop-color="rgb(100%, 80.656433%, 62.808228%)" offset="0.8125"/><stop stop-opacity="1" stop-color="rgb(100%, 80.966187%, 62.869263%)" offset="0.820313"/><stop stop-opacity="1" stop-color="rgb(100%, 81.27594%, 62.930298%)" offset="0.828125"/><stop stop-opacity="1" stop-color="rgb(100%, 81.585693%, 62.992859%)" offset="0.835938"/><stop stop-opacity="1" stop-color="rgb(100%, 81.895447%, 63.053894%)" offset="0.84375"/><stop stop-opacity="1" stop-color="rgb(100%, 82.203674%, 63.114929%)" offset="0.851563"/><stop stop-opacity="1" stop-color="rgb(100%, 82.513428%, 63.175964%)" offset="0.859375"/><stop stop-opacity="1" stop-color="rgb(100%, 82.823181%, 63.237%)" offset="0.867188"/><stop stop-opacity="1" stop-color="rgb(100%, 83.132935%, 63.298035%)" offset="0.875"/><stop stop-opacity="1" stop-color="rgb(100%, 83.442688%, 63.35907%)" offset="0.882812"/><stop stop-opacity="1" stop-color="rgb(100%, 83.750916%, 63.421631%)" offset="0.890625"/><stop stop-opacity="1" stop-color="rgb(100%, 84.060669%, 63.482666%)" offset="0.898438"/><stop stop-opacity="1" stop-color="rgb(100%, 84.370422%, 63.543701%)" offset="0.90625"/><stop stop-opacity="1" stop-color="rgb(100%, 84.680176%, 63.604736%)" offset="0.914062"/><stop stop-opacity="1" stop-color="rgb(100%, 84.989929%, 63.665771%)" offset="0.921875"/><stop stop-opacity="1" stop-color="rgb(100%, 85.298157%, 63.726807%)" offset="0.929688"/><stop stop-opacity="1" stop-color="rgb(100%, 85.60791%, 63.787842%)" offset="0.9375"/><stop stop-opacity="1" stop-color="rgb(100%, 85.917664%, 63.850403%)" offset="0.945312"/><stop stop-opacity="1" stop-color="rgb(100%, 86.227417%, 63.911438%)" offset="0.953125"/><stop stop-opacity="1" stop-color="rgb(100%, 86.53717%, 63.972473%)" offset="0.960938"/><stop stop-opacity="1" stop-color="rgb(100%, 86.845398%, 64.033508%)" offset="0.96875"/><stop stop-opacity="1" stop-color="rgb(100%, 87.155151%, 64.094543%)" offset="0.976562"/><stop stop-opacity="1" stop-color="rgb(100%, 87.464905%, 64.155579%)" offset="0.984375"/><stop stop-opacity="1" stop-color="rgb(100%, 87.774658%, 64.216614%)" offset="0.992188"/><stop stop-opacity="1" stop-color="rgb(100%, 88.084412%, 64.279175%)" offset="1"/></linearGradient><clipPath id="b6fdd958fd"><rect x="0" width="605" y="0" height="605"/></clipPath><clipPath id="371aa64f77"><path d="M 134 160 L 471 160 L 471 533.140625 L 134 533.140625 Z M 134 160 " clip-rule="nonzero"/></clipPath><clipPath id="16db7da443"><path d="M 62.574219 79.285156 L 542.519531 79.285156 L 542.519531 320 L 62.574219 320 Z M 62.574219 79.285156 " clip-rule="nonzero"/></clipPath><clipPath id="8bafd0c883"><path d="M 210.894531 345.476562 L 394.089844 345.476562 L 394.089844 533.324219 L 210.894531 533.324219 Z M 210.894531 345.476562 " clip-rule="nonzero"/></clipPath><clipPath id="1cafeef60f"><path d="M 0.894531 0.476562 L 184.089844 0.476562 L 184.089844 188.324219 L 0.894531 188.324219 Z M 0.894531 0.476562 " clip-rule="nonzero"/></clipPath><clipPath id="61fd796452"><rect x="0" width="185" y="0" height="189"/></clipPath><clipPath id="fec178825e"><path d="M 631 0.84375 L 2784.867188 0.84375 L 2784.867188 416 L 631 416 Z M 631 0.84375 " clip-rule="nonzero"/></clipPath><clipPath id="ff3fed7881"><rect x="0" width="2154" y="0" height="416"/></clipPath><clipPath id="aa6491e53c"><rect x="0" width="1699" y="0" height="167"/></clipPath><clipPath id="7708d7f331"><rect x="0" width="2785" y="0" height="630"/></clipPath><clipPath id="7eb9e6bfb7"><rect x="0" width="2785" y="0" height="630"/></clipPath></defs><g transform="matrix(1, 0, 0, 1, 32, 443)"><g clip-path="url(#7eb9e6bfb7)"><g clip-path="url(#9d7458bd89)"><g transform="matrix(1, 0, 0, 1, 0, -0.000000000000113687)"><g clip-path="url(#7708d7f331)"><g clip-path="url(#16123b9c12)"><g clip-path="url(#aada3db9f6)"><g transform="matrix(1, 0, 0, 1, 0, 25)"><g clip-path="url(#b6fdd958fd)"><g clip-path="url(#4fdfdf8baa)"><g clip-path="url(#4a1934cc75)"><path fill="url(#caf3c3766a)" d="M 0.703125 0.804688 L 0.703125 604.378906 L 604.277344 604.378906 L 604.277344 0.804688 Z M 0.703125 0.804688 " fill-rule="nonzero"/></g></g></g></g></g></g><g clip-path="url(#371aa64f77)"><path fill="#fff5e6" d="M 470.941406 310.082031 Z M 470.941406 310.082031 L 302.542969 160.941406 L 134.039062 310.144531 L 134.039062 523.339844 C 134.039062 528.847656 138.488281 533.265625 143.996094 533.265625 L 249.300781 533.265625 L 249.300781 439.785156 C 249.300781 434.28125 253.71875 429.832031 259.222656 429.832031 L 345.75 429.832031 C 351.257812 429.832031 355.675781 434.28125 355.675781 439.785156 L 355.675781 533.265625 L 461.011719 533.265625 C 466.519531 533.265625 470.933594 528.847656 470.933594 523.339844 L 470.933594 310.070312 Z M 134.039062 310.144531 Z M 134.039062 310.144531 " fill-opacity="1" fill-rule="nonzero"/></g><g clip-path="url(#16db7da443)"><path fill="#fff5e6" d="M 301.558594 79.320312 L 62.578125 290.925781 L 87.75 319.324219 L 302.539062 129.132812 L 517.277344 319.324219 L 542.402344 290.925781 L 303.472656 79.320312 L 302.542969 80.398438 L 301.566406 79.320312 Z M 301.558594 79.320312 " fill-opacity="1" fill-rule="nonzero"/></g><path fill="#fff5e6" d="M 134.039062 109.78125 L 194.621094 109.78125 L 194.09375 145.664062 L 134.039062 199.917969 Z M 134.039062 109.78125 " fill-opacity="1" fill-rule="nonzero"/><g clip-path="url(#8bafd0c883)"><g transform="matrix(1, 0, 0, 1, 210, 345)"><g clip-path="url(#61fd796452)"><g clip-path="url(#1cafeef60f)"><path fill="#fff5e6" d="M 0.894531 0.476562 L 184.089844 0.476562 L 184.089844 188.679688 L 0.894531 188.679688 Z M 0.894531 0.476562 " fill-opacity="1" fill-rule="nonzero"/></g></g></g></g><path fill="#8b6345" d="M 350.425781 250.175781 C 349.863281 250.179688 349.285156 250.207031 348.710938 250.253906 C 325.871094 254.195312 313.3125 278.347656 311.492188 299.648438 C 308.835938 318.972656 317.351562 343.8125 338.570312 348.140625 C 341.648438 348.726562 344.847656 348.460938 347.855469 347.644531 C 373.40625 339.078125 384.84375 308.8125 381.148438 283.746094 C 380.074219 267.554688 367.871094 249.949219 350.425781 250.171875 Z M 253.589844 251.210938 C 239.386719 251.558594 228.324219 265.960938 226.074219 279.503906 C 221.328125 306.328125 233.53125 339.660156 261.480469 348.144531 C 264.097656 348.714844 266.804688 348.773438 269.449219 348.363281 C 288.339844 345.214844 296.339844 324.039062 295.550781 306.941406 C 294.980469 284.386719 283.265625 258.3125 259.847656 251.96875 C 257.707031 251.402344 255.617188 251.164062 253.589844 251.210938 Z M 412.308594 327.402344 C 387.742188 328.871094 370.894531 353.386719 368.496094 376.277344 C 365.242188 392.785156 374.046875 414.867188 392.882812 416.183594 C 419.148438 415.859375 437.066406 387.792969 437.8125 363.644531 C 439.472656 347.671875 430.066406 328.28125 412.308594 327.402344 Z M 197.265625 332.839844 C 186.8125 332.75 176.53125 339.011719 173.117188 349.636719 C 164.003906 378.058594 182.304688 414.058594 212.40625 420.03125 C 224.972656 422.183594 236.011719 412.535156 239.125 400.925781 C 245.730469 376.09375 232.167969 347.261719 209.21875 335.992188 C 205.480469 333.894531 201.355469 332.878906 197.265625 332.84375 Z M 307.40625 383.808594 C 286.917969 383.851562 266.101562 394.25 252.835938 409.730469 C 238.503906 427.769531 226.765625 448.765625 222.171875 471.535156 C 216.589844 487.925781 229.238281 506.785156 246.757812 506.902344 C 267.835938 507.488281 285.949219 493.011719 306.910156 491.9375 C 324.691406 489.226562 340.613281 498.476562 356.601562 504.53125 C 370.214844 510.351562 389.023438 508.121094 395.972656 493.472656 C 401.4375 478.539062 393.390625 462.617188 386.726562 449.359375 C 373.132812 427.835938 358.566406 405.214844 336.277344 391.777344 C 327.34375 386.238281 317.414062 383.785156 307.40625 383.808594 Z M 307.40625 383.808594 " fill-opacity="1" fill-rule="nonzero"/><g clip-path="url(#fec178825e)"><g transform="matrix(1, 0, 0, 1, 631, -0.000000000000113687)"><g clip-path="url(#ff3fed7881)"><g fill="#8b6345" fill-opacity="1"><g transform="translate(1.070713, 325.378756)"><g><path d="M 112.265625 -217.390625 C 127.828125 -217.390625 141.132812 -214.535156 152.1875 -208.828125 C 163.238281 -203.128906 171.585938 -195.148438 177.234375 -184.890625 C 182.890625 -174.628906 185.71875 -162.710938 185.71875 -149.140625 C 185.71875 -135.554688 182.890625 -123.660156 177.234375 -113.453125 C 171.585938 -103.242188 163.238281 -95.285156 152.1875 -89.578125 C 141.132812 -83.878906 127.828125 -81.03125 112.265625 -81.03125 L 71.21875 -81.03125 L 71.21875 0 L 28.25 0 L 28.25 -217.390625 Z M 106.609375 -115.078125 C 130.492188 -115.078125 142.4375 -126.429688 142.4375 -149.140625 C 142.4375 -171.929688 130.492188 -183.328125 106.609375 -183.328125 L 71.21875 -183.328125 L 71.21875 -115.078125 Z M 106.609375 -115.078125 "/></g></g></g><g fill="#8b6345" fill-opacity="1"><g transform="translate(191.689961, 325.378756)"><g><path d="M 63.9375 3.125 C 53.425781 3.125 44.304688 1.191406 36.578125 -2.671875 C 28.847656 -6.535156 22.898438 -12.207031 18.734375 -19.6875 C 14.566406 -27.175781 12.484375 -36.175781 12.484375 -46.6875 C 12.484375 -56.40625 14.566406 -64.554688 18.734375 -71.140625 C 22.898438 -77.734375 29.34375 -83.132812 38.0625 -87.34375 C 46.789062 -91.5625 58.191406 -94.8125 72.265625 -97.09375 C 82.078125 -98.675781 89.535156 -100.410156 94.640625 -102.296875 C 99.742188 -104.179688 103.1875 -106.3125 104.96875 -108.6875 C 106.757812 -111.070312 107.65625 -114.097656 107.65625 -117.765625 C 107.65625 -123.015625 105.816406 -127.023438 102.140625 -129.796875 C 98.472656 -132.578125 92.378906 -133.96875 83.859375 -133.96875 C 74.742188 -133.96875 66.070312 -131.9375 57.84375 -127.875 C 49.613281 -123.8125 42.472656 -118.457031 36.421875 -111.8125 L 33.453125 -111.8125 L 16.203125 -137.828125 C 24.535156 -147.046875 34.695312 -154.234375 46.6875 -159.390625 C 58.6875 -164.546875 71.769531 -167.125 85.9375 -167.125 C 107.644531 -167.125 123.359375 -162.515625 133.078125 -153.296875 C 142.796875 -144.078125 147.65625 -130.992188 147.65625 -114.046875 L 147.65625 -42.828125 C 147.65625 -35.484375 150.875 -31.8125 157.3125 -31.8125 C 159.789062 -31.8125 162.21875 -32.257812 164.59375 -33.15625 L 166.6875 -32.5625 L 169.65625 -3.859375 C 167.375 -2.378906 164.203125 -1.164062 160.140625 -0.21875 C 156.078125 0.71875 151.613281 1.1875 146.75 1.1875 C 136.9375 1.1875 129.28125 -0.691406 123.78125 -4.453125 C 118.28125 -8.222656 114.34375 -14.125 111.96875 -22.15625 L 108.84375 -22.453125 C 100.8125 -5.398438 85.84375 3.125 63.9375 3.125 Z M 77.015625 -27.65625 C 86.535156 -27.65625 94.144531 -30.851562 99.84375 -37.25 C 105.539062 -43.644531 108.390625 -52.539062 108.390625 -63.9375 L 108.390625 -80.59375 L 105.5625 -81.1875 C 103.09375 -79.195312 99.847656 -77.535156 95.828125 -76.203125 C 91.816406 -74.867188 86.046875 -73.554688 78.515625 -72.265625 C 69.585938 -70.773438 63.164062 -68.21875 59.25 -64.59375 C 55.332031 -60.976562 53.375 -55.851562 53.375 -49.21875 C 53.375 -42.175781 55.457031 -36.820312 59.625 -33.15625 C 63.789062 -29.488281 69.585938 -27.65625 77.015625 -27.65625 Z M 77.015625 -27.65625 "/></g></g></g><g fill="#8b6345" fill-opacity="1"><g transform="translate(362.682262, 325.378756)"><g><path d="M 88.03125 0 L 44.90625 0 L 5.953125 -164 L 44.15625 -164 L 68.25 -53.078125 L 71.375 -53.078125 L 102.59375 -164 L 138.28125 -164 L 170.546875 -53.078125 L 173.671875 -53.078125 L 196.859375 -164 L 234.03125 -164 L 195.53125 0 L 152.265625 0 L 121.1875 -111.671875 L 118.0625 -111.671875 Z M 88.03125 0 "/></g></g></g><g fill="#ff6b63" fill-opacity="1"><g transform="translate(605.203105, 325.378756)"><g><path d="M 113.15625 -39.109375 L 123.859375 -8.625 C 119.398438 -4.957031 113.800781 -2.082031 107.0625 0 C 100.320312 2.082031 92.6875 3.125 84.15625 3.125 C 66.414062 3.125 52.9375 -1.707031 43.71875 -11.375 C 34.5 -21.039062 29.890625 -35.09375 29.890625 -53.53125 L 29.890625 -131.4375 L 4.90625 -131.4375 L 4.90625 -164.15625 L 29.890625 -164.15625 L 29.890625 -196.125 L 71.078125 -202.8125 L 71.078125 -164.15625 L 117.609375 -164.15625 L 117.609375 -131.4375 L 71.078125 -131.4375 L 71.078125 -56.5 C 71.078125 -48.375 72.757812 -42.453125 76.125 -38.734375 C 79.5 -35.015625 84.40625 -33.15625 90.84375 -33.15625 C 98.1875 -33.15625 104.582031 -35.140625 110.03125 -39.109375 Z M 113.15625 -39.109375 "/></g></g><g transform="translate(732.629542, 325.378756)"><g><path d="M 23.640625 0 L 23.640625 -229.875 L 64.828125 -229.875 L 64.828125 -142.59375 L 67.953125 -142 C 73.398438 -150.03125 80.085938 -156.222656 88.015625 -160.578125 C 95.953125 -164.941406 105.519531 -167.125 116.71875 -167.125 C 152.90625 -167.125 171 -146.601562 171 -105.5625 L 171 0 L 129.8125 0 L 129.8125 -100.359375 C 129.8125 -111.566406 127.578125 -119.695312 123.109375 -124.75 C 118.648438 -129.800781 111.710938 -132.328125 102.296875 -132.328125 C 90.796875 -132.328125 81.675781 -128.484375 74.9375 -120.796875 C 68.195312 -113.117188 64.828125 -101.15625 64.828125 -84.90625 L 64.828125 0 Z M 23.640625 0 "/></g></g><g transform="translate(924.735677, 325.378756)"><g><path d="M 162.078125 -72.703125 L 56.65625 -72.703125 C 57.84375 -58.429688 61.90625 -48.046875 68.84375 -41.546875 C 75.78125 -35.054688 85.25 -31.8125 97.25 -31.8125 C 106.664062 -31.8125 114.296875 -33.570312 120.140625 -37.09375 C 125.984375 -40.613281 130.691406 -45.941406 134.265625 -53.078125 L 137.390625 -53.078125 L 164.75 -35.53125 C 159.394531 -24.03125 151.3125 -14.710938 140.5 -7.578125 C 129.695312 -0.441406 115.28125 3.125 97.25 3.125 C 80.289062 3.125 65.640625 -0.09375 53.296875 -6.53125 C 40.960938 -12.976562 31.445312 -22.570312 24.75 -35.3125 C 18.0625 -48.050781 14.71875 -63.585938 14.71875 -81.921875 C 14.71875 -100.554688 18.234375 -116.269531 25.265625 -129.0625 C 32.304688 -141.851562 41.820312 -151.394531 53.8125 -157.6875 C 65.8125 -163.976562 79.296875 -167.125 94.265625 -167.125 C 117.460938 -167.125 135.226562 -160.976562 147.5625 -148.6875 C 159.90625 -136.394531 166.078125 -118.351562 166.078125 -94.5625 C 166.078125 -85.9375 165.78125 -79.25 165.1875 -74.5 Z M 126.6875 -99.328125 C 126.289062 -111.816406 123.390625 -120.910156 117.984375 -126.609375 C 112.578125 -132.304688 104.671875 -135.15625 94.265625 -135.15625 C 73.453125 -135.15625 61.210938 -123.210938 57.546875 -99.328125 Z M 126.6875 -99.328125 "/></g></g></g><g fill="#ff6b63" fill-opacity="1"><g transform="translate(1103.013746, 325.378756)"><g><path d="M 23.640625 0 L 23.640625 -164 L 63.1875 -164 L 63.1875 -139.921875 L 66.3125 -139.171875 C 76.519531 -157.804688 93.078125 -167.125 115.984375 -167.125 C 134.910156 -167.125 148.8125 -161.96875 157.6875 -151.65625 C 166.5625 -141.351562 171 -126.335938 171 -106.609375 L 171 0 L 129.8125 0 L 129.8125 -101.5625 C 129.8125 -112.457031 127.628906 -120.304688 123.265625 -125.109375 C 118.898438 -129.921875 111.910156 -132.328125 102.296875 -132.328125 C 90.503906 -132.328125 81.3125 -128.507812 74.71875 -120.875 C 68.125 -113.25 64.828125 -101.257812 64.828125 -84.90625 L 64.828125 0 Z M 23.640625 0 "/></g></g></g><g fill="#ff6b63" fill-opacity="1"><g transform="translate(1293.930367, 325.378756)"><g><path d="M 113.15625 -39.109375 L 123.859375 -8.625 C 119.398438 -4.957031 113.800781 -2.082031 107.0625 0 C 100.320312 2.082031 92.6875 3.125 84.15625 3.125 C 66.414062 3.125 52.9375 -1.707031 43.71875 -11.375 C 34.5 -21.039062 29.890625 -35.09375 29.890625 -53.53125 L 29.890625 -131.4375 L 4.90625 -131.4375 L 4.90625 -164.15625 L 29.890625 -164.15625 L 29.890625 -196.125 L 71.078125 -202.8125 L 71.078125 -164.15625 L 117.609375 -164.15625 L 117.609375 -131.4375 L 71.078125 -131.4375 L 71.078125 -56.5 C 71.078125 -48.375 72.757812 -42.453125 76.125 -38.734375 C 79.5 -35.015625 84.40625 -33.15625 90.84375 -33.15625 C 98.1875 -33.15625 104.582031 -35.140625 110.03125 -39.109375 Z M 113.15625 -39.109375 "/></g></g><g transform="translate(1421.356803, 325.378756)"><g><path d="M 44.15625 -183.625 C 36.726562 -183.625 30.679688 -185.878906 26.015625 -190.390625 C 21.359375 -194.898438 19.03125 -200.726562 19.03125 -207.875 C 19.03125 -214.90625 21.359375 -220.675781 26.015625 -225.1875 C 30.679688 -229.695312 36.726562 -231.953125 44.15625 -231.953125 C 49.113281 -231.953125 53.523438 -230.910156 57.390625 -228.828125 C 61.253906 -226.742188 64.253906 -223.894531 66.390625 -220.28125 C 68.523438 -216.664062 69.59375 -212.53125 69.59375 -207.875 C 69.59375 -203.207031 68.523438 -199.039062 66.390625 -195.375 C 64.253906 -191.707031 61.253906 -188.832031 57.390625 -186.75 C 53.523438 -184.664062 49.113281 -183.625 44.15625 -183.625 Z M 23.640625 0 L 23.640625 -164 L 64.828125 -164 L 64.828125 0 Z M 23.640625 0 "/></g></g></g><g fill="#ff6b63" fill-opacity="1"><g transform="translate(1509.678024, 325.378756)"><g><path d="M 95.609375 3.125 C 79.742188 3.125 65.710938 -0.171875 53.515625 -6.765625 C 41.328125 -13.359375 31.8125 -23.046875 24.96875 -35.828125 C 18.132812 -48.617188 14.71875 -63.984375 14.71875 -81.921875 C 14.71875 -99.960938 18.132812 -115.375 24.96875 -128.15625 C 31.8125 -140.945312 41.28125 -150.640625 53.375 -157.234375 C 65.46875 -163.828125 79.296875 -167.125 94.859375 -167.125 C 129.453125 -167.125 151.609375 -154.585938 161.328125 -129.515625 L 133.078125 -109.28125 L 129.953125 -109.28125 C 126.585938 -117.019531 122.203125 -122.769531 116.796875 -126.53125 C 111.390625 -130.300781 104.078125 -132.1875 94.859375 -132.1875 C 82.960938 -132.1875 73.691406 -128.070312 67.046875 -119.84375 C 60.410156 -111.613281 57.09375 -98.972656 57.09375 -81.921875 C 57.09375 -65.078125 60.460938 -52.515625 67.203125 -44.234375 C 73.941406 -35.953125 83.410156 -31.8125 95.609375 -31.8125 C 104.523438 -31.8125 112.082031 -34.21875 118.28125 -39.03125 C 124.476562 -43.84375 128.914062 -50.753906 131.59375 -59.765625 L 134.71875 -60.078125 L 164 -44.015625 C 159.84375 -30.140625 152.132812 -18.8125 140.875 -10.03125 C 129.625 -1.257812 114.535156 3.125 95.609375 3.125 Z M 95.609375 3.125 "/></g></g></g><g fill="#ff6b63" fill-opacity="1"><g transform="translate(1678.737414, 325.378756)"><g><path d="M 63.9375 3.125 C 53.425781 3.125 44.304688 1.191406 36.578125 -2.671875 C 28.847656 -6.535156 22.898438 -12.207031 18.734375 -19.6875 C 14.566406 -27.175781 12.484375 -36.175781 12.484375 -46.6875 C 12.484375 -56.40625 14.566406 -64.554688 18.734375 -71.140625 C 22.898438 -77.734375 29.34375 -83.132812 38.0625 -87.34375 C 46.789062 -91.5625 58.191406 -94.8125 72.265625 -97.09375 C 82.078125 -98.675781 89.535156 -100.410156 94.640625 -102.296875 C 99.742188 -104.179688 103.1875 -106.3125 104.96875 -108.6875 C 106.757812 -111.070312 107.65625 -114.097656 107.65625 -117.765625 C 107.65625 -123.015625 105.816406 -127.023438 102.140625 -129.796875 C 98.472656 -132.578125 92.378906 -133.96875 83.859375 -133.96875 C 74.742188 -133.96875 66.070312 -131.9375 57.84375 -127.875 C 49.613281 -123.8125 42.472656 -118.457031 36.421875 -111.8125 L 33.453125 -111.8125 L 16.203125 -137.828125 C 24.535156 -147.046875 34.695312 -154.234375 46.6875 -159.390625 C 58.6875 -164.546875 71.769531 -167.125 85.9375 -167.125 C 107.644531 -167.125 123.359375 -162.515625 133.078125 -153.296875 C 142.796875 -144.078125 147.65625 -130.992188 147.65625 -114.046875 L 147.65625 -42.828125 C 147.65625 -35.484375 150.875 -31.8125 157.3125 -31.8125 C 159.789062 -31.8125 162.21875 -32.257812 164.59375 -33.15625 L 166.6875 -32.5625 L 169.65625 -3.859375 C 167.375 -2.378906 164.203125 -1.164062 160.140625 -0.21875 C 156.078125 0.71875 151.613281 1.1875 146.75 1.1875 C 136.9375 1.1875 129.28125 -0.691406 123.78125 -4.453125 C 118.28125 -8.222656 114.34375 -14.125 111.96875 -22.15625 L 108.84375 -22.453125 C 100.8125 -5.398438 85.84375 3.125 63.9375 3.125 Z M 77.015625 -27.65625 C 86.535156 -27.65625 94.144531 -30.851562 99.84375 -37.25 C 105.539062 -43.644531 108.390625 -52.539062 108.390625 -63.9375 L 108.390625 -80.59375 L 105.5625 -81.1875 C 103.09375 -79.195312 99.847656 -77.535156 95.828125 -76.203125 C 91.816406 -74.867188 86.046875 -73.554688 78.515625 -72.265625 C 69.585938 -70.773438 63.164062 -68.21875 59.25 -64.59375 C 55.332031 -60.976562 53.375 -55.851562 53.375 -49.21875 C 53.375 -42.175781 55.457031 -36.820312 59.625 -33.15625 C 63.789062 -29.488281 69.585938 -27.65625 77.015625 -27.65625 Z M 77.015625 -27.65625 "/></g></g></g><g fill="#ff6b63" fill-opacity="1"><g transform="translate(1849.729716, 325.378756)"><g><path d="M 113.15625 -39.109375 L 123.859375 -8.625 C 119.398438 -4.957031 113.800781 -2.082031 107.0625 0 C 100.320312 2.082031 92.6875 3.125 84.15625 3.125 C 66.414062 3.125 52.9375 -1.707031 43.71875 -11.375 C 34.5 -21.039062 29.890625 -35.09375 29.890625 -53.53125 L 29.890625 -131.4375 L 4.90625 -131.4375 L 4.90625 -164.15625 L 29.890625 -164.15625 L 29.890625 -196.125 L 71.078125 -202.8125 L 71.078125 -164.15625 L 117.609375 -164.15625 L 117.609375 -131.4375 L 71.078125 -131.4375 L 71.078125 -56.5 C 71.078125 -48.375 72.757812 -42.453125 76.125 -38.734375 C 79.5 -35.015625 84.40625 -33.15625 90.84375 -33.15625 C 98.1875 -33.15625 104.582031 -35.140625 110.03125 -39.109375 Z M 113.15625 -39.109375 "/></g></g></g><g fill="#ff6b63" fill-opacity="1"><g transform="translate(1975.223174, 325.378756)"><g><path d="M 162.078125 -72.703125 L 56.65625 -72.703125 C 57.84375 -58.429688 61.90625 -48.046875 68.84375 -41.546875 C 75.78125 -35.054688 85.25 -31.8125 97.25 -31.8125 C 106.664062 -31.8125 114.296875 -33.570312 120.140625 -37.09375 C 125.984375 -40.613281 130.691406 -45.941406 134.265625 -53.078125 L 137.390625 -53.078125 L 164.75 -35.53125 C 159.394531 -24.03125 151.3125 -14.710938 140.5 -7.578125 C 129.695312 -0.441406 115.28125 3.125 97.25 3.125 C 80.289062 3.125 65.640625 -0.09375 53.296875 -6.53125 C 40.960938 -12.976562 31.445312 -22.570312 24.75 -35.3125 C 18.0625 -48.050781 14.71875 -63.585938 14.71875 -81.921875 C 14.71875 -100.554688 18.234375 -116.269531 25.265625 -129.0625 C 32.304688 -141.851562 41.820312 -151.394531 53.8125 -157.6875 C 65.8125 -163.976562 79.296875 -167.125 94.265625 -167.125 C 117.460938 -167.125 135.226562 -160.976562 147.5625 -148.6875 C 159.90625 -136.394531 166.078125 -118.351562 166.078125 -94.5625 C 166.078125 -85.9375 165.78125 -79.25 165.1875 -74.5 Z M 126.6875 -99.328125 C 126.289062 -111.816406 123.390625 -120.910156 117.984375 -126.609375 C 112.578125 -132.304688 104.671875 -135.15625 94.265625 -135.15625 C 73.453125 -135.15625 61.210938 -123.210938 57.546875 -99.328125 Z M 126.6875 -99.328125 "/></g></g></g></g></g></g><g transform="matrix(1, 0, 0, 1, 631, 380)"><g clip-path="url(#aa6491e53c)"><g fill="#8b6345" fill-opacity="1"><g transform="translate(1.088556, 129.995465)"><g><path d="M 31.875 0 L 18.25 0 L 16.171875 -86.953125 L 26.28125 -86.953125 L 27.359375 -15.046875 L 28.84375 -15.046875 L 63.21875 -86.953125 L 72.671875 -86.953125 L 77.3125 -15.046875 L 78.796875 -15.046875 L 109.96875 -86.953125 L 120.3125 -86.953125 L 82.84375 0 L 69.171875 0 L 64.640625 -65.828125 L 63.390625 -65.828125 Z M 31.875 0 "/></g></g></g><g fill="#8b6345" fill-opacity="1"><g transform="translate(114.619195, 129.995465)"><g><path d="M 4.453125 0 L 23.96875 -91.9375 L 33.65625 -91.9375 L 26.109375 -56.265625 L 27.296875 -56.015625 C 29.992188 -59.503906 33.097656 -62.179688 36.609375 -64.046875 C 40.117188 -65.910156 44.148438 -66.84375 48.703125 -66.84375 C 55.085938 -66.84375 59.882812 -65.265625 63.09375 -62.109375 C 66.3125 -58.960938 67.921875 -54.65625 67.921875 -49.1875 C 67.921875 -46.882812 67.660156 -44.5625 67.140625 -42.21875 L 58.15625 0 L 48.46875 0 L 57.390625 -41.984375 C 57.828125 -44.046875 58.046875 -45.851562 58.046875 -47.40625 C 58.046875 -51.007812 57.023438 -53.742188 54.984375 -55.609375 C 52.941406 -57.472656 49.878906 -58.40625 45.796875 -58.40625 C 40.046875 -58.40625 34.976562 -56.421875 30.59375 -52.453125 C 26.21875 -48.484375 23.117188 -42.21875 21.296875 -33.65625 L 14.15625 0 Z M 4.453125 0 "/></g></g></g><g fill="#8b6345" fill-opacity="1"><g transform="translate(190.147698, 129.995465)"><g><path d="M 63.9375 -46.03125 C 62.820312 -40.238281 59.585938 -35.566406 54.234375 -32.015625 C 48.878906 -28.472656 41.25 -26.703125 31.34375 -26.703125 C 26.664062 -26.703125 21.75 -27.097656 16.59375 -27.890625 C 16.4375 -26.660156 16.359375 -25.332031 16.359375 -23.90625 C 16.359375 -18.550781 17.722656 -14.46875 20.453125 -11.65625 C 23.191406 -8.84375 27.160156 -7.4375 32.359375 -7.4375 C 36.953125 -7.4375 40.785156 -8.296875 43.859375 -10.015625 C 46.929688 -11.742188 49.675781 -14.429688 52.09375 -18.078125 L 53.34375 -18.078125 L 59.359375 -14.03125 C 56.535156 -8.957031 52.785156 -5.140625 48.109375 -2.578125 C 43.429688 -0.0234375 37.566406 1.25 30.515625 1.25 C 25.753906 1.25 21.566406 0.160156 17.953125 -2.015625 C 14.347656 -4.203125 11.5625 -7.304688 9.59375 -11.328125 C 7.632812 -15.347656 6.65625 -20.035156 6.65625 -25.390625 C 6.65625 -28.679688 7.035156 -32.070312 7.796875 -35.5625 C 9.222656 -42.226562 11.585938 -47.910156 14.890625 -52.609375 C 18.203125 -57.304688 22.238281 -60.851562 27 -63.25 C 31.757812 -65.644531 37.015625 -66.84375 42.765625 -66.84375 C 47.484375 -66.84375 51.457031 -66.050781 54.6875 -64.46875 C 57.914062 -62.882812 60.320312 -60.769531 61.90625 -58.125 C 63.488281 -55.488281 64.28125 -52.628906 64.28125 -49.546875 C 64.28125 -48.390625 64.164062 -47.21875 63.9375 -46.03125 Z M 41.03125 -58.640625 C 35.25 -58.640625 30.492188 -56.851562 26.765625 -53.28125 C 23.035156 -49.71875 20.160156 -43.988281 18.140625 -36.09375 C 22.773438 -35.625 26.898438 -35.390625 30.515625 -35.390625 C 38.285156 -35.390625 44.050781 -36.390625 47.8125 -38.390625 C 51.582031 -40.390625 53.800781 -43.253906 54.46875 -46.984375 C 54.59375 -47.691406 54.65625 -48.382812 54.65625 -49.0625 C 54.65625 -51.957031 53.453125 -54.273438 51.046875 -56.015625 C 48.648438 -57.765625 45.3125 -58.640625 41.03125 -58.640625 Z M 41.03125 -58.640625 "/></g></g></g><g fill="#8b6345" fill-opacity="1"><g transform="translate(260.085903, 129.995465)"><g><path d="M 4.453125 0 L 18.375 -65.59375 L 27.59375 -65.59375 L 25.390625 -55.3125 L 26.578125 -55.015625 C 29.003906 -58.972656 31.75 -61.820312 34.8125 -63.5625 C 37.882812 -65.3125 41.679688 -66.1875 46.203125 -66.1875 C 48.503906 -66.1875 50.40625 -65.988281 51.90625 -65.59375 C 53.414062 -65.195312 54.707031 -64.582031 55.78125 -63.75 L 51.796875 -55.25 L 50.546875 -55.015625 C 48.367188 -56.441406 45.710938 -57.15625 42.578125 -57.15625 C 31.753906 -57.15625 24.5625 -48.828125 21 -32.171875 L 14.15625 0 Z M 4.453125 0 "/></g></g></g><g fill="#8b6345" fill-opacity="1"><g transform="translate(309.030716, 129.995465)"><g><path d="M 63.9375 -46.03125 C 62.820312 -40.238281 59.585938 -35.566406 54.234375 -32.015625 C 48.878906 -28.472656 41.25 -26.703125 31.34375 -26.703125 C 26.664062 -26.703125 21.75 -27.097656 16.59375 -27.890625 C 16.4375 -26.660156 16.359375 -25.332031 16.359375 -23.90625 C 16.359375 -18.550781 17.722656 -14.46875 20.453125 -11.65625 C 23.191406 -8.84375 27.160156 -7.4375 32.359375 -7.4375 C 36.953125 -7.4375 40.785156 -8.296875 43.859375 -10.015625 C 46.929688 -11.742188 49.675781 -14.429688 52.09375 -18.078125 L 53.34375 -18.078125 L 59.359375 -14.03125 C 56.535156 -8.957031 52.785156 -5.140625 48.109375 -2.578125 C 43.429688 -0.0234375 37.566406 1.25 30.515625 1.25 C 25.753906 1.25 21.566406 0.160156 17.953125 -2.015625 C 14.347656 -4.203125 11.5625 -7.304688 9.59375 -11.328125 C 7.632812 -15.347656 6.65625 -20.035156 6.65625 -25.390625 C 6.65625 -28.679688 7.035156 -32.070312 7.796875 -35.5625 C 9.222656 -42.226562 11.585938 -47.910156 14.890625 -52.609375 C 18.203125 -57.304688 22.238281 -60.851562 27 -63.25 C 31.757812 -65.644531 37.015625 -66.84375 42.765625 -66.84375 C 47.484375 -66.84375 51.457031 -66.050781 54.6875 -64.46875 C 57.914062 -62.882812 60.320312 -60.769531 61.90625 -58.125 C 63.488281 -55.488281 64.28125 -52.628906 64.28125 -49.546875 C 64.28125 -48.390625 64.164062 -47.21875 63.9375 -46.03125 Z M 41.03125 -58.640625 C 35.25 -58.640625 30.492188 -56.851562 26.765625 -53.28125 C 23.035156 -49.71875 20.160156 -43.988281 18.140625 -36.09375 C 22.773438 -35.625 26.898438 -35.390625 30.515625 -35.390625 C 38.285156 -35.390625 44.050781 -36.390625 47.8125 -38.390625 C 51.582031 -40.390625 53.800781 -43.253906 54.46875 -46.984375 C 54.59375 -47.691406 54.65625 -48.382812 54.65625 -49.0625 C 54.65625 -51.957031 53.453125 -54.273438 51.046875 -56.015625 C 48.648438 -57.765625 45.3125 -58.640625 41.03125 -58.640625 Z M 41.03125 -58.640625 "/></g></g></g><g fill="#8b6345" fill-opacity="1"><g transform="translate(378.968921, 129.995465)"><g/></g></g><g fill="#8b6345" fill-opacity="1"><g transform="translate(408.82346, 129.995465)"><g><path d="M 0.234375 27.828125 C -1.867188 27.828125 -3.835938 27.585938 -5.671875 27.109375 C -7.515625 26.640625 -9.113281 26.03125 -10.46875 25.28125 L -7.078125 17.609375 L -5.953125 17.25 C -5.148438 17.84375 -4.046875 18.347656 -2.640625 18.765625 C -1.234375 19.179688 0.203125 19.390625 1.671875 19.390625 C 4.328125 19.390625 6.578125 19.03125 8.421875 18.3125 C 10.265625 17.601562 11.96875 16.4375 13.53125 14.8125 C 15.09375 13.1875 16.75 10.90625 18.5 7.96875 L 22.359375 1.546875 L 10.171875 -65.59375 L 20.09375 -65.59375 L 29.375 -12.078125 L 30.515625 -12.078125 L 61.375 -65.59375 L 72.4375 -65.59375 L 27.359375 10.578125 C 24.816406 14.898438 22.285156 18.300781 19.765625 20.78125 C 17.253906 23.257812 14.453125 25.050781 11.359375 26.15625 C 8.265625 27.269531 4.554688 27.828125 0.234375 27.828125 Z M 0.234375 27.828125 "/></g></g></g><g fill="#8b6345" fill-opacity="1"><g transform="translate(476.739607, 129.995465)"><g><path d="M 30.984375 1.25 C 25.910156 1.25 21.507812 0.269531 17.78125 -1.6875 C 14.050781 -3.65625 11.175781 -6.484375 9.15625 -10.171875 C 7.132812 -13.859375 6.125 -18.257812 6.125 -23.375 C 6.125 -26.300781 6.484375 -29.429688 7.203125 -32.765625 C 9.535156 -43.867188 13.863281 -52.320312 20.1875 -58.125 C 26.507812 -63.9375 34.550781 -66.84375 44.3125 -66.84375 C 49.382812 -66.84375 53.789062 -65.859375 57.53125 -63.890625 C 61.28125 -61.929688 64.15625 -59.097656 66.15625 -55.390625 C 68.164062 -51.691406 69.171875 -47.285156 69.171875 -42.171875 C 69.171875 -39.234375 68.8125 -36.097656 68.09375 -32.765625 C 65.75 -21.703125 61.414062 -13.265625 55.09375 -7.453125 C 48.769531 -1.648438 40.734375 1.25 30.984375 1.25 Z M 32.234375 -7.4375 C 38.773438 -7.4375 44.222656 -9.492188 48.578125 -13.609375 C 52.941406 -17.734375 56.035156 -24.117188 57.859375 -32.765625 C 58.535156 -36.054688 58.875 -38.929688 58.875 -41.390625 C 58.875 -46.984375 57.445312 -51.175781 54.59375 -53.96875 C 51.738281 -56.757812 47.894531 -58.15625 43.0625 -58.15625 C 36.519531 -58.15625 31.054688 -56.082031 26.671875 -51.9375 C 22.285156 -47.800781 19.179688 -41.410156 17.359375 -32.765625 C 16.691406 -29.515625 16.359375 -26.660156 16.359375 -24.203125 C 16.359375 -18.609375 17.796875 -14.414062 20.671875 -11.625 C 23.546875 -8.832031 27.398438 -7.4375 32.234375 -7.4375 Z M 32.234375 -7.4375 "/></g></g></g><g fill="#8b6345" fill-opacity="1"><g transform="translate(552.030224, 129.995465)"><g><path d="M 25.875 1.25 C 22.0625 1.25 18.785156 0.488281 16.046875 -1.03125 C 13.316406 -2.5625 11.25 -4.703125 9.84375 -7.453125 C 8.4375 -10.210938 7.734375 -13.414062 7.734375 -17.0625 C 7.734375 -19.125 7.96875 -21.304688 8.4375 -23.609375 L 17.359375 -65.59375 L 27.0625 -65.59375 L 17.84375 -22.125 C 17.5625 -20.851562 17.421875 -19.546875 17.421875 -18.203125 C 17.421875 -14.828125 18.441406 -12.148438 20.484375 -10.171875 C 22.523438 -8.191406 25.351562 -7.203125 28.96875 -7.203125 C 34.875 -7.203125 39.925781 -9.132812 44.125 -13 C 48.332031 -16.863281 51.367188 -23.175781 53.234375 -31.9375 L 60.359375 -65.59375 L 70.0625 -65.59375 L 56.140625 0 L 46.984375 0 L 49.1875 -10.28125 L 48 -10.578125 C 45.300781 -6.492188 42.253906 -3.5 38.859375 -1.59375 C 35.472656 0.300781 31.144531 1.25 25.875 1.25 Z M 25.875 1.25 "/></g></g></g><g fill="#8b6345" fill-opacity="1"><g transform="translate(626.547733, 129.995465)"><g><path d="M 4.453125 0 L 18.375 -65.59375 L 27.59375 -65.59375 L 25.390625 -55.3125 L 26.578125 -55.015625 C 29.003906 -58.972656 31.75 -61.820312 34.8125 -63.5625 C 37.882812 -65.3125 41.679688 -66.1875 46.203125 -66.1875 C 48.503906 -66.1875 50.40625 -65.988281 51.90625 -65.59375 C 53.414062 -65.195312 54.707031 -64.582031 55.78125 -63.75 L 51.796875 -55.25 L 50.546875 -55.015625 C 48.367188 -56.441406 45.710938 -57.15625 42.578125 -57.15625 C 31.753906 -57.15625 24.5625 -48.828125 21 -32.171875 L 14.15625 0 Z M 4.453125 0 "/></g></g></g><g fill="#8b6345" fill-opacity="1"><g transform="translate(677.217249, 129.995465)"><g/></g></g><g fill="#8b6345" fill-opacity="1"><g transform="translate(707.071788, 129.995465)"><g><path d="M -1.1875 26.53125 L 18.375 -65.59375 L 28.078125 -65.59375 L 26.046875 -56.015625 L 27.234375 -55.78125 C 29.378906 -58.957031 32.472656 -61.59375 36.515625 -63.6875 C 40.554688 -65.789062 45.15625 -66.84375 50.3125 -66.84375 C 54.476562 -66.84375 58.1875 -65.910156 61.4375 -64.046875 C 64.6875 -62.179688 67.242188 -59.382812 69.109375 -55.65625 C 70.972656 -51.9375 71.90625 -47.421875 71.90625 -42.109375 C 71.90625 -38.535156 71.46875 -34.707031 70.59375 -30.625 C 69.125 -23.726562 66.765625 -17.898438 63.515625 -13.140625 C 60.265625 -8.378906 56.289062 -4.789062 51.59375 -2.375 C 46.894531 0.0390625 41.648438 1.25 35.859375 1.25 C 31.617188 1.25 27.820312 0.378906 24.46875 -1.359375 C 21.125 -3.109375 18.753906 -5.6875 17.359375 -9.09375 L 16.0625 -8.859375 L 8.5 26.53125 Z M 35.796875 -7.4375 C 48.921875 -7.4375 57.289062 -15.898438 60.90625 -32.828125 C 61.65625 -36.316406 62.03125 -39.445312 62.03125 -42.21875 C 62.03125 -47.695312 60.679688 -51.722656 57.984375 -54.296875 C 55.285156 -56.867188 51.5 -58.15625 46.625 -58.15625 C 42.65625 -58.15625 38.976562 -57.28125 35.59375 -55.53125 C 32.207031 -53.789062 29.273438 -51.117188 26.796875 -47.515625 C 24.316406 -43.910156 22.5 -39.410156 21.34375 -34.015625 C 20.59375 -30.367188 20.21875 -27.078125 20.21875 -24.140625 C 20.21875 -18.429688 21.59375 -14.21875 24.34375 -11.5 C 27.101562 -8.789062 30.921875 -7.4375 35.796875 -7.4375 Z M 35.796875 -7.4375 "/></g></g></g><g fill="#8b6345" fill-opacity="1"><g transform="translate(785.335968, 129.995465)"><g><path d="M 63.9375 -46.03125 C 62.820312 -40.238281 59.585938 -35.566406 54.234375 -32.015625 C 48.878906 -28.472656 41.25 -26.703125 31.34375 -26.703125 C 26.664062 -26.703125 21.75 -27.097656 16.59375 -27.890625 C 16.4375 -26.660156 16.359375 -25.332031 16.359375 -23.90625 C 16.359375 -18.550781 17.722656 -14.46875 20.453125 -11.65625 C 23.191406 -8.84375 27.160156 -7.4375 32.359375 -7.4375 C 36.953125 -7.4375 40.785156 -8.296875 43.859375 -10.015625 C 46.929688 -11.742188 49.675781 -14.429688 52.09375 -18.078125 L 53.34375 -18.078125 L 59.359375 -14.03125 C 56.535156 -8.957031 52.785156 -5.140625 48.109375 -2.578125 C 43.429688 -0.0234375 37.566406 1.25 30.515625 1.25 C 25.753906 1.25 21.566406 0.160156 17.953125 -2.015625 C 14.347656 -4.203125 11.5625 -7.304688 9.59375 -11.328125 C 7.632812 -15.347656 6.65625 -20.035156 6.65625 -25.390625 C 6.65625 -28.679688 7.035156 -32.070312 7.796875 -35.5625 C 9.222656 -42.226562 11.585938 -47.910156 14.890625 -52.609375 C 18.203125 -57.304688 22.238281 -60.851562 27 -63.25 C 31.757812 -65.644531 37.015625 -66.84375 42.765625 -66.84375 C 47.484375 -66.84375 51.457031 -66.050781 54.6875 -64.46875 C 57.914062 -62.882812 60.320312 -60.769531 61.90625 -58.125 C 63.488281 -55.488281 64.28125 -52.628906 64.28125 -49.546875 C 64.28125 -48.390625 64.164062 -47.21875 63.9375 -46.03125 Z M 41.03125 -58.640625 C 35.25 -58.640625 30.492188 -56.851562 26.765625 -53.28125 C 23.035156 -49.71875 20.160156 -43.988281 18.140625 -36.09375 C 22.773438 -35.625 26.898438 -35.390625 30.515625 -35.390625 C 38.285156 -35.390625 44.050781 -36.390625 47.8125 -38.390625 C 51.582031 -40.390625 53.800781 -43.253906 54.46875 -46.984375 C 54.59375 -47.691406 54.65625 -48.382812 54.65625 -49.0625 C 54.65625 -51.957031 53.453125 -54.273438 51.046875 -56.015625 C 48.648438 -57.765625 45.3125 -58.640625 41.03125 -58.640625 Z M 41.03125 -58.640625 "/></g></g></g><g fill="#8b6345" fill-opacity="1"><g transform="translate(855.274173, 129.995465)"><g><path d="M 29.375 -57.6875 L 21.109375 -18.734375 C 20.835938 -17.390625 20.703125 -16.117188 20.703125 -14.921875 C 20.703125 -12.347656 21.394531 -10.457031 22.78125 -9.25 C 24.164062 -8.039062 26.085938 -7.4375 28.546875 -7.4375 C 32.078125 -7.4375 35.25 -8.425781 38.0625 -10.40625 L 39.3125 -10.40625 L 41.265625 -3.453125 C 37.578125 -0.316406 32.601562 1.25 26.34375 1.25 C 21.550781 1.25 17.773438 -0.0546875 15.015625 -2.671875 C 12.265625 -5.285156 10.890625 -8.894531 10.890625 -13.5 C 10.890625 -15.28125 11.085938 -17.101562 11.484375 -18.96875 L 19.6875 -57.6875 L 8.265625 -57.6875 L 9.984375 -65.65625 L 21.40625 -65.65625 L 24.328125 -79.515625 L 34.375 -81.125 L 31.109375 -65.65625 L 52.21875 -65.65625 L 50.484375 -57.6875 Z M 29.375 -57.6875 "/></g></g></g><g fill="#8b6345" fill-opacity="1"><g transform="translate(908.976878, 129.995465)"><g><path d="M 9.8125 -61.96875 C 14.007812 -64.070312 17.503906 -66.351562 20.296875 -68.8125 C 23.097656 -71.269531 24.859375 -73.882812 25.578125 -76.65625 C 23.785156 -76.65625 22.316406 -77.207031 21.171875 -78.3125 C 20.023438 -79.425781 19.453125 -80.835938 19.453125 -82.546875 C 19.453125 -83.054688 19.507812 -83.613281 19.625 -84.21875 C 20.019531 -86.113281 20.898438 -87.664062 22.265625 -88.875 C 23.640625 -90.082031 25.4375 -90.6875 27.65625 -90.6875 C 29.519531 -90.6875 31.023438 -90.070312 32.171875 -88.84375 C 33.328125 -87.613281 33.90625 -85.753906 33.90625 -83.265625 C 33.90625 -81.992188 33.722656 -80.523438 33.359375 -78.859375 C 32.328125 -73.941406 30.015625 -69.476562 26.421875 -65.46875 C 22.835938 -61.46875 18.210938 -58.019531 12.546875 -55.125 Z M 9.8125 -61.96875 "/></g></g></g><g fill="#8b6345" fill-opacity="1"><g transform="translate(937.523015, 129.995465)"><g><path d="M 22.65625 1.25 C 18.925781 1.25 15.492188 0.707031 12.359375 -0.375 C 9.234375 -1.46875 6.597656 -2.96875 4.453125 -4.875 C 2.316406 -6.78125 0.789062 -8.921875 -0.125 -11.296875 L 6.84375 -17.25 L 8.09375 -17.25 C 9.550781 -14 11.609375 -11.550781 14.265625 -9.90625 C 16.921875 -8.257812 20.332031 -7.4375 24.5 -7.4375 C 29.332031 -7.4375 33.21875 -8.375 36.15625 -10.25 C 39.09375 -12.132812 40.914062 -14.765625 41.625 -18.140625 C 41.789062 -18.816406 41.875 -19.585938 41.875 -20.453125 C 41.875 -24.421875 39.253906 -27.078125 34.015625 -28.421875 L 23.609375 -31.046875 C 19.523438 -32.078125 16.28125 -33.9375 13.875 -36.625 C 11.476562 -39.320312 10.28125 -42.613281 10.28125 -46.5 C 10.28125 -47.894531 10.421875 -49.222656 10.703125 -50.484375 C 11.378906 -53.742188 12.828125 -56.59375 15.046875 -59.03125 C 17.265625 -61.46875 20.226562 -63.378906 23.9375 -64.765625 C 27.644531 -66.148438 32.015625 -66.84375 37.046875 -66.84375 C 42.285156 -66.84375 46.421875 -66.019531 49.453125 -64.375 C 52.484375 -62.726562 55.109375 -60.359375 57.328125 -57.265625 L 50.734375 -51.921875 L 49.546875 -51.921875 C 47.992188 -54.335938 46.085938 -56.078125 43.828125 -57.140625 C 41.566406 -58.210938 38.734375 -58.75 35.328125 -58.75 C 31.003906 -58.75 27.523438 -57.976562 24.890625 -56.4375 C 22.253906 -54.894531 20.617188 -52.65625 19.984375 -49.71875 C 19.828125 -49.039062 19.75 -48.304688 19.75 -47.515625 C 19.75 -45.578125 20.460938 -43.953125 21.890625 -42.640625 C 23.316406 -41.328125 25.59375 -40.238281 28.71875 -39.375 L 37.640625 -36.984375 C 42.160156 -35.753906 45.617188 -33.8125 48.015625 -31.15625 C 50.421875 -28.5 51.625 -25.289062 51.625 -21.53125 C 51.625 -20.300781 51.460938 -18.894531 51.140625 -17.3125 C 49.953125 -11.71875 47.007812 -7.222656 42.3125 -3.828125 C 37.613281 -0.441406 31.0625 1.25 22.65625 1.25 Z M 22.65625 1.25 "/></g></g></g><g fill="#8b6345" fill-opacity="1"><g transform="translate(998.183632, 129.995465)"><g/></g></g><g fill="#8b6345" fill-opacity="1"><g transform="translate(1028.038241, 129.995465)"><g><path d="M 22.65625 1.25 C 18.925781 1.25 15.492188 0.707031 12.359375 -0.375 C 9.234375 -1.46875 6.597656 -2.96875 4.453125 -4.875 C 2.316406 -6.78125 0.789062 -8.921875 -0.125 -11.296875 L 6.84375 -17.25 L 8.09375 -17.25 C 9.550781 -14 11.609375 -11.550781 14.265625 -9.90625 C 16.921875 -8.257812 20.332031 -7.4375 24.5 -7.4375 C 29.332031 -7.4375 33.21875 -8.375 36.15625 -10.25 C 39.09375 -12.132812 40.914062 -14.765625 41.625 -18.140625 C 41.789062 -18.816406 41.875 -19.585938 41.875 -20.453125 C 41.875 -24.421875 39.253906 -27.078125 34.015625 -28.421875 L 23.609375 -31.046875 C 19.523438 -32.078125 16.28125 -33.9375 13.875 -36.625 C 11.476562 -39.320312 10.28125 -42.613281 10.28125 -46.5 C 10.28125 -47.894531 10.421875 -49.222656 10.703125 -50.484375 C 11.378906 -53.742188 12.828125 -56.59375 15.046875 -59.03125 C 17.265625 -61.46875 20.226562 -63.378906 23.9375 -64.765625 C 27.644531 -66.148438 32.015625 -66.84375 37.046875 -66.84375 C 42.285156 -66.84375 46.421875 -66.019531 49.453125 -64.375 C 52.484375 -62.726562 55.109375 -60.359375 57.328125 -57.265625 L 50.734375 -51.921875 L 49.546875 -51.921875 C 47.992188 -54.335938 46.085938 -56.078125 43.828125 -57.140625 C 41.566406 -58.210938 38.734375 -58.75 35.328125 -58.75 C 31.003906 -58.75 27.523438 -57.976562 24.890625 -56.4375 C 22.253906 -54.894531 20.617188 -52.65625 19.984375 -49.71875 C 19.828125 -49.039062 19.75 -48.304688 19.75 -47.515625 C 19.75 -45.578125 20.460938 -43.953125 21.890625 -42.640625 C 23.316406 -41.328125 25.59375 -40.238281 28.71875 -39.375 L 37.640625 -36.984375 C 42.160156 -35.753906 45.617188 -33.8125 48.015625 -31.15625 C 50.421875 -28.5 51.625 -25.289062 51.625 -21.53125 C 51.625 -20.300781 51.460938 -18.894531 51.140625 -17.3125 C 49.953125 -11.71875 47.007812 -7.222656 42.3125 -3.828125 C 37.613281 -0.441406 31.0625 1.25 22.65625 1.25 Z M 22.65625 1.25 "/></g></g></g><g fill="#8b6345" fill-opacity="1"><g transform="translate(1088.698928, 129.995465)"><g><path d="M 29.375 -57.6875 L 21.109375 -18.734375 C 20.835938 -17.390625 20.703125 -16.117188 20.703125 -14.921875 C 20.703125 -12.347656 21.394531 -10.457031 22.78125 -9.25 C 24.164062 -8.039062 26.085938 -7.4375 28.546875 -7.4375 C 32.078125 -7.4375 35.25 -8.425781 38.0625 -10.40625 L 39.3125 -10.40625 L 41.265625 -3.453125 C 37.578125 -0.316406 32.601562 1.25 26.34375 1.25 C 21.550781 1.25 17.773438 -0.0546875 15.015625 -2.671875 C 12.265625 -5.285156 10.890625 -8.894531 10.890625 -13.5 C 10.890625 -15.28125 11.085938 -17.101562 11.484375 -18.96875 L 19.6875 -57.6875 L 8.265625 -57.6875 L 9.984375 -65.65625 L 21.40625 -65.65625 L 24.328125 -79.515625 L 34.375 -81.125 L 31.109375 -65.65625 L 52.21875 -65.65625 L 50.484375 -57.6875 Z M 29.375 -57.6875 "/></g></g></g><g fill="#8b6345" fill-opacity="1"><g transform="translate(1137.88161, 129.995465)"><g><path d="M 30.984375 1.25 C 25.910156 1.25 21.507812 0.269531 17.78125 -1.6875 C 14.050781 -3.65625 11.175781 -6.484375 9.15625 -10.171875 C 7.132812 -13.859375 6.125 -18.257812 6.125 -23.375 C 6.125 -26.300781 6.484375 -29.429688 7.203125 -32.765625 C 9.535156 -43.867188 13.863281 -52.320312 20.1875 -58.125 C 26.507812 -63.9375 34.550781 -66.84375 44.3125 -66.84375 C 49.382812 -66.84375 53.789062 -65.859375 57.53125 -63.890625 C 61.28125 -61.929688 64.15625 -59.097656 66.15625 -55.390625 C 68.164062 -51.691406 69.171875 -47.285156 69.171875 -42.171875 C 69.171875 -39.234375 68.8125 -36.097656 68.09375 -32.765625 C 65.75 -21.703125 61.414062 -13.265625 55.09375 -7.453125 C 48.769531 -1.648438 40.734375 1.25 30.984375 1.25 Z M 32.234375 -7.4375 C 38.773438 -7.4375 44.222656 -9.492188 48.578125 -13.609375 C 52.941406 -17.734375 56.035156 -24.117188 57.859375 -32.765625 C 58.535156 -36.054688 58.875 -38.929688 58.875 -41.390625 C 58.875 -46.984375 57.445312 -51.175781 54.59375 -53.96875 C 51.738281 -56.757812 47.894531 -58.15625 43.0625 -58.15625 C 36.519531 -58.15625 31.054688 -56.082031 26.671875 -51.9375 C 22.285156 -47.800781 19.179688 -41.410156 17.359375 -32.765625 C 16.691406 -29.515625 16.359375 -26.660156 16.359375 -24.203125 C 16.359375 -18.609375 17.796875 -14.414062 20.671875 -11.625 C 23.546875 -8.832031 27.398438 -7.4375 32.234375 -7.4375 Z M 32.234375 -7.4375 "/></g></g></g><g fill="#8b6345" fill-opacity="1"><g transform="translate(1213.172192, 129.995465)"><g><path d="M 4.453125 0 L 18.375 -65.59375 L 27.59375 -65.59375 L 25.390625 -55.3125 L 26.578125 -55.015625 C 29.003906 -58.972656 31.75 -61.820312 34.8125 -63.5625 C 37.882812 -65.3125 41.679688 -66.1875 46.203125 -66.1875 C 48.503906 -66.1875 50.40625 -65.988281 51.90625 -65.59375 C 53.414062 -65.195312 54.707031 -64.582031 55.78125 -63.75 L 51.796875 -55.25 L 50.546875 -55.015625 C 48.367188 -56.441406 45.710938 -57.15625 42.578125 -57.15625 C 31.753906 -57.15625 24.5625 -48.828125 21 -32.171875 L 14.15625 0 Z M 4.453125 0 "/></g></g></g><g fill="#8b6345" fill-opacity="1"><g transform="translate(1263.841777, 129.995465)"><g><path d="M 0.234375 27.828125 C -1.867188 27.828125 -3.835938 27.585938 -5.671875 27.109375 C -7.515625 26.640625 -9.113281 26.03125 -10.46875 25.28125 L -7.078125 17.609375 L -5.953125 17.25 C -5.148438 17.84375 -4.046875 18.347656 -2.640625 18.765625 C -1.234375 19.179688 0.203125 19.390625 1.671875 19.390625 C 4.328125 19.390625 6.578125 19.03125 8.421875 18.3125 C 10.265625 17.601562 11.96875 16.4375 13.53125 14.8125 C 15.09375 13.1875 16.75 10.90625 18.5 7.96875 L 22.359375 1.546875 L 10.171875 -65.59375 L 20.09375 -65.59375 L 29.375 -12.078125 L 30.515625 -12.078125 L 61.375 -65.59375 L 72.4375 -65.59375 L 27.359375 10.578125 C 24.816406 14.898438 22.285156 18.300781 19.765625 20.78125 C 17.253906 23.257812 14.453125 25.050781 11.359375 26.15625 C 8.265625 27.269531 4.554688 27.828125 0.234375 27.828125 Z M 0.234375 27.828125 "/></g></g></g><g fill="#8b6345" fill-opacity="1"><g transform="translate(1333.024012, 129.995465)"><g/></g></g><g fill="#8b6345" fill-opacity="1"><g transform="translate(1362.878586, 129.995465)"><g/></g></g><g fill="#8b6345" fill-opacity="1"><g transform="translate(1392.744944, 129.995465)"><g><path d="M 18.859375 1.1875 C 15.242188 1.1875 12.363281 0.117188 10.21875 -2.015625 C 8.082031 -4.160156 7.015625 -7.132812 7.015625 -10.9375 C 7.015625 -12.40625 7.191406 -13.972656 7.546875 -15.640625 L 23.78125 -91.9375 L 33.484375 -91.9375 L 17.125 -15.171875 C 16.925781 -14.097656 16.828125 -13.242188 16.828125 -12.609375 C 16.828125 -10.898438 17.28125 -9.609375 18.1875 -8.734375 C 19.101562 -7.867188 20.351562 -7.4375 21.9375 -7.4375 C 23.050781 -7.4375 24.34375 -7.65625 25.8125 -8.09375 L 26.578125 -7.84375 L 26.578125 -0.234375 C 24.753906 0.710938 22.179688 1.1875 18.859375 1.1875 Z M 18.859375 1.1875 "/></g></g></g><g fill="#8b6345" fill-opacity="1"><g transform="translate(1428.427701, 129.995465)"><g><path d="M 27.359375 -78.265625 C 25.296875 -78.265625 23.617188 -78.90625 22.328125 -80.1875 C 21.046875 -81.476562 20.40625 -83.117188 20.40625 -85.109375 C 20.40625 -87.085938 21.046875 -88.71875 22.328125 -90 C 23.617188 -91.289062 25.296875 -91.9375 27.359375 -91.9375 C 29.421875 -91.9375 31.09375 -91.289062 32.375 -90 C 33.664062 -88.71875 34.3125 -87.085938 34.3125 -85.109375 C 34.3125 -83.117188 33.664062 -81.476562 32.375 -80.1875 C 31.09375 -78.90625 29.421875 -78.265625 27.359375 -78.265625 Z M 4.40625 0 L 18.3125 -65.59375 L 28.015625 -65.59375 L 14.09375 0 Z M 4.40625 0 "/></g></g></g><g fill="#8b6345" fill-opacity="1"><g transform="translate(1460.958481, 129.995465)"><g><path d="M 34.609375 0 L 21.34375 0 L 10.171875 -65.59375 L 19.984375 -65.59375 L 29.078125 -11.0625 L 30.453125 -11.0625 L 62.4375 -65.59375 L 73.328125 -65.59375 Z M 34.609375 0 "/></g></g></g><g fill="#8b6345" fill-opacity="1"><g transform="translate(1529.231438, 129.995465)"><g><path d="M 63.9375 -46.03125 C 62.820312 -40.238281 59.585938 -35.566406 54.234375 -32.015625 C 48.878906 -28.472656 41.25 -26.703125 31.34375 -26.703125 C 26.664062 -26.703125 21.75 -27.097656 16.59375 -27.890625 C 16.4375 -26.660156 16.359375 -25.332031 16.359375 -23.90625 C 16.359375 -18.550781 17.722656 -14.46875 20.453125 -11.65625 C 23.191406 -8.84375 27.160156 -7.4375 32.359375 -7.4375 C 36.953125 -7.4375 40.785156 -8.296875 43.859375 -10.015625 C 46.929688 -11.742188 49.675781 -14.429688 52.09375 -18.078125 L 53.34375 -18.078125 L 59.359375 -14.03125 C 56.535156 -8.957031 52.785156 -5.140625 48.109375 -2.578125 C 43.429688 -0.0234375 37.566406 1.25 30.515625 1.25 C 25.753906 1.25 21.566406 0.160156 17.953125 -2.015625 C 14.347656 -4.203125 11.5625 -7.304688 9.59375 -11.328125 C 7.632812 -15.347656 6.65625 -20.035156 6.65625 -25.390625 C 6.65625 -28.679688 7.035156 -32.070312 7.796875 -35.5625 C 9.222656 -42.226562 11.585938 -47.910156 14.890625 -52.609375 C 18.203125 -57.304688 22.238281 -60.851562 27 -63.25 C 31.757812 -65.644531 37.015625 -66.84375 42.765625 -66.84375 C 47.484375 -66.84375 51.457031 -66.050781 54.6875 -64.46875 C 57.914062 -62.882812 60.320312 -60.769531 61.90625 -58.125 C 63.488281 -55.488281 64.28125 -52.628906 64.28125 -49.546875 C 64.28125 -48.390625 64.164062 -47.21875 63.9375 -46.03125 Z M 41.03125 -58.640625 C 35.25 -58.640625 30.492188 -56.851562 26.765625 -53.28125 C 23.035156 -49.71875 20.160156 -43.988281 18.140625 -36.09375 C 22.773438 -35.625 26.898438 -35.390625 30.515625 -35.390625 C 38.285156 -35.390625 44.050781 -36.390625 47.8125 -38.390625 C 51.582031 -40.390625 53.800781 -43.253906 54.46875 -46.984375 C 54.59375 -47.691406 54.65625 -48.382812 54.65625 -49.0625 C 54.65625 -51.957031 53.453125 -54.273438 51.046875 -56.015625 C 48.648438 -57.765625 45.3125 -58.640625 41.03125 -58.640625 Z M 41.03125 -58.640625 "/></g></g></g><g fill="#8b6345" fill-opacity="1"><g transform="translate(1599.169642, 129.995465)"><g><path d="M 22.65625 1.25 C 18.925781 1.25 15.492188 0.707031 12.359375 -0.375 C 9.234375 -1.46875 6.597656 -2.96875 4.453125 -4.875 C 2.316406 -6.78125 0.789062 -8.921875 -0.125 -11.296875 L 6.84375 -17.25 L 8.09375 -17.25 C 9.550781 -14 11.609375 -11.550781 14.265625 -9.90625 C 16.921875 -8.257812 20.332031 -7.4375 24.5 -7.4375 C 29.332031 -7.4375 33.21875 -8.375 36.15625 -10.25 C 39.09375 -12.132812 40.914062 -14.765625 41.625 -18.140625 C 41.789062 -18.816406 41.875 -19.585938 41.875 -20.453125 C 41.875 -24.421875 39.253906 -27.078125 34.015625 -28.421875 L 23.609375 -31.046875 C 19.523438 -32.078125 16.28125 -33.9375 13.875 -36.625 C 11.476562 -39.320312 10.28125 -42.613281 10.28125 -46.5 C 10.28125 -47.894531 10.421875 -49.222656 10.703125 -50.484375 C 11.378906 -53.742188 12.828125 -56.59375 15.046875 -59.03125 C 17.265625 -61.46875 20.226562 -63.378906 23.9375 -64.765625 C 27.644531 -66.148438 32.015625 -66.84375 37.046875 -66.84375 C 42.285156 -66.84375 46.421875 -66.019531 49.453125 -64.375 C 52.484375 -62.726562 55.109375 -60.359375 57.328125 -57.265625 L 50.734375 -51.921875 L 49.546875 -51.921875 C 47.992188 -54.335938 46.085938 -56.078125 43.828125 -57.140625 C 41.566406 -58.210938 38.734375 -58.75 35.328125 -58.75 C 31.003906 -58.75 27.523438 -57.976562 24.890625 -56.4375 C 22.253906 -54.894531 20.617188 -52.65625 19.984375 -49.71875 C 19.828125 -49.039062 19.75 -48.304688 19.75 -47.515625 C 19.75 -45.578125 20.460938 -43.953125 21.890625 -42.640625 C 23.316406 -41.328125 25.59375 -40.238281 28.71875 -39.375 L 37.640625 -36.984375 C 42.160156 -35.753906 45.617188 -33.8125 48.015625 -31.15625 C 50.421875 -28.5 51.625 -25.289062 51.625 -21.53125 C 51.625 -20.300781 51.460938 -18.894531 51.140625 -17.3125 C 49.953125 -11.71875 47.007812 -7.222656 42.3125 -3.828125 C 37.613281 -0.441406 31.0625 1.25 22.65625 1.25 Z M 22.65625 1.25 "/></g></g></g><g fill="#8b6345" fill-opacity="1"><g transform="translate(1659.830329, 129.995465)"><g><path d="M 22.890625 -28.84375 L 12.96875 -28.84375 L 25.28125 -86.953125 L 35.203125 -86.953125 Z M 13.140625 0.59375 C 10.878906 0.59375 9.09375 -0.0390625 7.78125 -1.3125 C 6.476562 -2.582031 5.828125 -4.265625 5.828125 -6.359375 C 5.828125 -8.421875 6.476562 -10.113281 7.78125 -11.4375 C 9.09375 -12.769531 10.878906 -13.4375 13.140625 -13.4375 C 15.441406 -13.4375 17.242188 -12.800781 18.546875 -11.53125 C 19.859375 -10.269531 20.515625 -8.585938 20.515625 -6.484375 C 20.515625 -4.378906 19.847656 -2.671875 18.515625 -1.359375 C 17.191406 -0.0546875 15.398438 0.59375 13.140625 0.59375 Z M 13.140625 0.59375 "/></g></g></g></g></g></g></g></g></g></g></svg>